<?xml version="1.0" encoding="UTF-8" standalone="no"?>
<!DOCTYPE svg PUBLIC "-//W3C//DTD SVG 1.1//EN" "http://www.w3.org/Graphics/SVG/1.1/DTD/svg11.dtd">
<!-- Generated by Microsoft Visio, SVG Export LimeFEA-mPCIe_v1.0_power.svg Power  -->
<svg xmlns="http://www.w3.org/2000/svg" xmlns:xlink="http://www.w3.org/1999/xlink" xmlns:ev="http://www.w3.org/2001/xml-events"
		xmlns:v="http://schemas.microsoft.com/visio/2003/SVGExtensions/" width="9.40764in" height="3.46276in"
		viewBox="0 0 677.35 249.318" xml:space="preserve" color-interpolation-filters="sRGB" class="st14">
	<v:documentProperties v:langID="1033" v:viewMarkup="false">
		<v:userDefs>
			<v:ud v:nameU="msvConvertTheme"/>
			<v:ud v:nameU="msvNoAutoConnect" v:val="VT0(1):26"/>
		</v:userDefs>
	</v:documentProperties>

	<style type="text/css">
	<![CDATA[
		.st1 {stroke:#000000;stroke-linecap:round;stroke-linejoin:round;stroke-width:0.72}
		.st2 {fill:none;stroke:none;stroke-linecap:round;stroke-linejoin:round;stroke-width:0.72}
		.st3 {fill:#000000;font-family:Arial;font-size:1.00001em}
		.st4 {stroke:#000000;stroke-linecap:round;stroke-linejoin:round;stroke-width:0.5}
		.st5 {fill:#000000;stroke:#000000;stroke-linecap:round;stroke-linejoin:round;stroke-width:0.72}
		.st6 {fill:#000000;font-family:Arial;font-size:0.833336em;font-style:italic;font-weight:bold}
		.st7 {fill:#000000;font-family:Arial;font-size:0.833336em;font-style:italic}
		.st8 {fill:#ffcccc;stroke:#000000;stroke-linecap:round;stroke-linejoin:round;stroke-width:2.25}
		.st9 {font-size:0.83333em;font-style:italic}
		.st10 {fill:#ccecff;stroke:#000000;stroke-linecap:round;stroke-linejoin:round;stroke-width:2.25}
		.st11 {stroke:#000000;stroke-linecap:round;stroke-linejoin:round;stroke-width:1.5}
		.st12 {fill:#ffffff;stroke:#000000;stroke-linecap:round;stroke-linejoin:round;stroke-width:1.5}
		.st13 {fill:#ffffff;stroke:#000000;stroke-linecap:round;stroke-linejoin:round;stroke-width:1}
		.st14 {fill:none;fill-rule:evenodd;font-size:12px;overflow:visible;stroke-linecap:square;stroke-miterlimit:3}
	]]>
	</style>

	<g v:mID="37" v:index="1" v:groupContext="foregroundPage">
		<title>Power </title>
		<v:pageProperties v:drawingScale="0.0393701" v:pageScale="0.0393701" v:drawingUnits="24" v:shadowOffsetX="9"
				v:shadowOffsetY="-9"/>
		<v:layer v:name="Flowchart" v:index="0"/>
		<g id="shape161-1" v:mID="161" v:groupContext="shape" transform="translate(395.237,32.5332) rotate(90)">
			<title>Sheet.161</title>
			<path d="M0 249.32 L21.26 249.32" class="st1"/>
		</g>
		<g id="shape162-4" v:mID="162" v:groupContext="shape" transform="translate(82.1395,-216.785)">
			<title>Sheet.162</title>
			<desc>+12VIN</desc>
			<v:textBlock v:margins="rect(4,4,4,4)" v:tabSpace="42.5197"/>
			<v:textRect cx="63.7795" cy="242.232" width="127.56" height="14.1732"/>
			<rect x="0" y="235.145" width="127.559" height="14.1732" class="st2"/>
			<text x="43.6" y="245.83" class="st3" v:langID="1033"><v:paragraph v:horizAlign="1"/><v:tabList/>+12VIN</text>		</g>
		<g id="shape163-7" v:mID="163" v:groupContext="shape" transform="translate(256.47,303.111) rotate(180)">
			<title>Sheet.163</title>
			<path d="M0 249.32 L110.55 249.32" class="st1"/>
		</g>
		<g id="shape164-10" v:mID="164" v:groupContext="shape" transform="translate(145.919,303.111) rotate(180)">
			<title>Sheet.164</title>
			<path d="M0 249.32 L56.69 249.32" class="st1"/>
		</g>
		<g id="group165-13" transform="translate(82.1395,-188.439)" v:mID="165" v:groupContext="group">
			<title>Sheet.165</title>
			<g id="shape166-14" v:mID="166" v:groupContext="shape" transform="translate(176.295,58.8504) rotate(45)">
				<title>Sheet.166</title>
				<path d="M-0 249.32 A7.08661 7.08661 135 0 1 10.02 249.32" class="st4"/>
			</g>
			<g id="shape167-17" v:mID="167" v:groupContext="shape" transform="translate(183.381,418.527) rotate(135)">
				<title>Sheet.167</title>
				<path d="M0 249.32 A7.08661 7.08661 45 0 1 10.02 249.32" class="st4"/>
			</g>
		</g>
		<g id="shape168-20" v:mID="168" v:groupContext="shape" transform="translate(144.502,-194.108)">
			<title>Sheet.168</title>
			<ellipse cx="1.41732" cy="247.901" rx="1.41732" ry="1.41732" class="st5"/>
		</g>
		<g id="shape169-22" v:mID="169" v:groupContext="shape" transform="translate(18.36,-174.266)">
			<title>Sheet.169</title>
			<desc>PCIe edge connector</desc>
			<v:textBlock v:margins="rect(4,4,4,4)" v:tabSpace="42.5197"/>
			<v:textRect cx="63.7795" cy="242.232" width="127.56" height="14.1732"/>
			<rect x="0" y="235.145" width="127.559" height="14.1732" class="st2"/>
			<text x="14.05" y="245.23" class="st6" v:langID="1033"><v:paragraph v:horizAlign="1"/><v:tabList/>PCIe edge connector</text>		</g>
		<g id="shape170-25" v:mID="170" v:groupContext="shape" transform="translate(32.5332,-160.092)">
			<title>Sheet.170</title>
			<desc>12V</desc>
			<v:textBlock v:margins="rect(4,4,4,4)" v:tabSpace="42.5197"/>
			<v:textRect cx="49.6063" cy="242.232" width="99.22" height="14.1732"/>
			<rect x="0" y="235.145" width="99.2126" height="14.1732" class="st2"/>
			<text x="40.71" y="245.23" class="st7" v:langID="1033"><v:paragraph v:horizAlign="1"/><v:tabList/>12V</text>		</g>
		<g id="shape171-28" v:mID="171" v:groupContext="shape" transform="translate(140.25,-216.785)">
			<title>Sheet.171</title>
			<path d="M0 249.32 L11.34 249.32" class="st1"/>
		</g>
		<g id="shape172-31" v:mID="172" v:groupContext="shape" transform="translate(395.237,93.4781) rotate(90)">
			<title>Sheet.172</title>
			<path d="M0 249.32 L22.68 249.32" class="st1"/>
		</g>
		<g id="shape173-34" v:mID="173" v:groupContext="shape" transform="translate(82.1395,-155.84)">
			<title>Sheet.173</title>
			<desc>+5VBUS</desc>
			<v:textBlock v:margins="rect(4,4,4,4)" v:tabSpace="42.5197"/>
			<v:textRect cx="63.7795" cy="242.232" width="127.56" height="14.1732"/>
			<rect x="0" y="235.145" width="127.559" height="14.1732" class="st2"/>
			<text x="40.6" y="245.83" class="st3" v:langID="1033"><v:paragraph v:horizAlign="1"/><v:tabList/>+5VBUS</text>		</g>
		<g id="shape174-37" v:mID="174" v:groupContext="shape" transform="translate(572.533,365.474) rotate(180)">
			<title>Sheet.174</title>
			<path d="M0 249.32 L426.61 249.32" class="st1"/>
		</g>
		<g id="shape175-40" v:mID="175" v:groupContext="shape" transform="translate(145.919,365.474) rotate(180)">
			<title>Sheet.175</title>
			<path d="M0 249.32 L56.69 249.32" class="st1"/>
		</g>
		<g id="group176-43" transform="translate(82.1395,-126.077)" v:mID="176" v:groupContext="group">
			<title>Sheet.176</title>
			<g id="shape177-44" v:mID="177" v:groupContext="shape" transform="translate(176.295,58.8504) rotate(45)">
				<title>Sheet.177</title>
				<path d="M-0 249.32 A7.08661 7.08661 135 0 1 10.02 249.32" class="st4"/>
			</g>
			<g id="shape178-47" v:mID="178" v:groupContext="shape" transform="translate(183.381,418.527) rotate(135)">
				<title>Sheet.178</title>
				<path d="M0 249.32 A7.08661 7.08661 45 0 1 10.02 249.32" class="st4"/>
			</g>
		</g>
		<g id="shape179-50" v:mID="179" v:groupContext="shape" transform="translate(144.502,-131.746)">
			<title>Sheet.179</title>
			<ellipse cx="1.41732" cy="247.901" rx="1.41732" ry="1.41732" class="st5"/>
		</g>
		<g id="shape180-52" v:mID="180" v:groupContext="shape" transform="translate(18.36,-110.486)">
			<title>Sheet.180</title>
			<desc>USB microB</desc>
			<v:textBlock v:margins="rect(4,4,4,4)" v:tabSpace="42.5197"/>
			<v:textRect cx="63.7795" cy="242.232" width="127.56" height="14.1732"/>
			<rect x="0" y="235.145" width="127.559" height="14.1732" class="st2"/>
			<text x="34.61" y="245.23" class="st6" v:langID="1033"><v:paragraph v:horizAlign="1"/><v:tabList/>USB microB</text>		</g>
		<g id="shape181-55" v:mID="181" v:groupContext="shape" transform="translate(32.5332,-96.3128)">
			<title>Sheet.181</title>
			<desc>5V</desc>
			<v:textBlock v:margins="rect(4,4,4,4)" v:tabSpace="42.5197"/>
			<v:textRect cx="49.6063" cy="242.232" width="99.22" height="14.1732"/>
			<rect x="0" y="235.145" width="99.2126" height="14.1732" class="st2"/>
			<text x="43.49" y="245.23" class="st7" v:langID="1033"><v:paragraph v:horizAlign="1"/><v:tabList/>5V</text>		</g>
		<g id="shape182-58" v:mID="182" v:groupContext="shape" transform="translate(140.25,-155.84)">
			<title>Sheet.182</title>
			<path d="M0 249.32 L11.34 249.32" class="st1"/>
		</g>
		<g id="shape183-61" v:mID="183" v:groupContext="shape" transform="translate(395.237,174.266) rotate(90)">
			<title>Sheet.183</title>
			<path d="M0 249.32 L21.26 249.32" class="st1"/>
		</g>
		<g id="shape184-64" v:mID="184" v:groupContext="shape" transform="translate(82.1395,-75.0529)">
			<title>Sheet.184</title>
			<desc>+3.3VPCI</desc>
			<v:textBlock v:margins="rect(4,4,4,4)" v:tabSpace="42.5197"/>
			<v:textRect cx="63.7795" cy="242.232" width="127.56" height="14.1732"/>
			<rect x="0" y="235.145" width="127.559" height="14.1732" class="st2"/>
			<text x="37.93" y="245.83" class="st3" v:langID="1033"><v:paragraph v:horizAlign="1"/><v:tabList/>+3.3VPCI</text>		</g>
		<g id="shape185-67" v:mID="185" v:groupContext="shape" transform="translate(296.155,444.844) rotate(180)">
			<title>Sheet.185</title>
			<path d="M0 249.32 L150.24 249.32" class="st1"/>
		</g>
		<g id="shape186-70" v:mID="186" v:groupContext="shape" transform="translate(145.919,444.844) rotate(180)">
			<title>Sheet.186</title>
			<path d="M0 249.32 L56.69 249.32" class="st1"/>
		</g>
		<g id="group187-73" transform="translate(82.1395,-46.7065)" v:mID="187" v:groupContext="group">
			<title>Sheet.187</title>
			<g id="shape188-74" v:mID="188" v:groupContext="shape" transform="translate(176.295,58.8504) rotate(45)">
				<title>Sheet.188</title>
				<path d="M-0 249.32 A7.08661 7.08661 135 0 1 10.02 249.32" class="st4"/>
			</g>
			<g id="shape189-77" v:mID="189" v:groupContext="shape" transform="translate(183.381,418.527) rotate(135)">
				<title>Sheet.189</title>
				<path d="M0 249.32 A7.08661 7.08661 45 0 1 10.02 249.32" class="st4"/>
			</g>
		</g>
		<g id="shape190-80" v:mID="190" v:groupContext="shape" transform="translate(144.502,-52.3757)">
			<title>Sheet.190</title>
			<ellipse cx="1.41732" cy="247.901" rx="1.41732" ry="1.41732" class="st5"/>
		</g>
		<g id="shape191-82" v:mID="191" v:groupContext="shape" transform="translate(18.36,-32.5332)">
			<title>Sheet.191</title>
			<desc>PCIe edge connector</desc>
			<v:textBlock v:margins="rect(4,4,4,4)" v:tabSpace="42.5197"/>
			<v:textRect cx="63.7795" cy="242.232" width="127.56" height="14.1732"/>
			<rect x="0" y="235.145" width="127.559" height="14.1732" class="st2"/>
			<text x="14.05" y="245.23" class="st6" v:langID="1033"><v:paragraph v:horizAlign="1"/><v:tabList/>PCIe edge connector</text>		</g>
		<g id="shape192-85" v:mID="192" v:groupContext="shape" transform="translate(32.5332,-18.36)">
			<title>Sheet.192</title>
			<desc>3.3V</desc>
			<v:textBlock v:margins="rect(4,4,4,4)" v:tabSpace="42.5197"/>
			<v:textRect cx="49.6063" cy="242.232" width="99.22" height="14.1732"/>
			<rect x="0" y="235.145" width="99.2126" height="14.1732" class="st2"/>
			<text x="39.32" y="245.23" class="st7" v:langID="1033"><v:paragraph v:horizAlign="1"/><v:tabList/>3.3V</text>		</g>
		<g id="shape193-88" v:mID="193" v:groupContext="shape" transform="translate(140.25,-75.0529)">
			<title>Sheet.193</title>
			<path d="M0 249.32 L11.34 249.32" class="st1"/>
		</g>
		<g id="shape194-91" v:mID="194" v:groupContext="shape" transform="translate(256.47,-172.848)">
			<title>Sheet.194</title>
			<desc>Switching reg. TPS62130RG 5.6V 3A</desc>
			<v:textBlock v:margins="rect(4,4,4,4)"/>
			<v:textRect cx="42.5197" cy="226.641" width="85.04" height="45.3543"/>
			<rect x="0" y="203.964" width="85.0394" height="45.3543" class="st8"/>
			<text x="4.83" y="217.04" class="st3" v:langID="1033"><v:paragraph v:horizAlign="1"/><v:tabList/>Switching reg. <v:newlineChar/><tspan
						x="11.39" dy="1.26em" class="st9">TPS</tspan><tspan class="st9">62130</tspan><tspan class="st9">RG<v:newlineChar/></tspan><tspan
						x="24.73" dy="1.38em" class="st9">5</tspan><tspan class="st9">.</tspan><tspan class="st9">6</tspan><tspan
						class="st9">V </tspan><tspan class="st9">3</tspan><tspan class="st9">A</tspan></text>		</g>
		<g id="shape195-103" v:mID="195" v:groupContext="shape" transform="translate(426.549,-172.848)">
			<title>Sheet.195</title>
			<desc>Linear reg. NCP5501DT50G 5V 0.5A</desc>
			<v:textBlock v:margins="rect(4,4,4,4)"/>
			<v:textRect cx="42.5197" cy="226.641" width="85.04" height="45.3543"/>
			<rect x="0" y="203.964" width="85.0394" height="45.3543" class="st8"/>
			<text x="13.83" y="217.04" class="st3" v:langID="1033"><v:paragraph v:horizAlign="1"/><v:tabList/>Linear reg. <v:newlineChar/><tspan
						x="4.72" dy="1.26em" class="st9">NCP</tspan><tspan class="st9">5501</tspan><tspan class="st9">DT</tspan><tspan
						class="st9">50</tspan><tspan class="st9">G<v:newlineChar/></tspan><tspan x="24.73" dy="1.38em" class="st9">5</tspan><tspan
						class="st9">V </tspan><tspan class="st9">0</tspan><tspan class="st9">.</tspan><tspan class="st9">5</tspan><tspan
						class="st9">A</tspan></text>		</g>
		<g id="shape196-117" v:mID="196" v:groupContext="shape" transform="translate(369.856,303.111) rotate(180)">
			<title>Sheet.196</title>
			<path d="M0 249.32 L28.35 249.32" class="st1"/>
		</g>
		<g id="shape197-120" v:mID="197" v:groupContext="shape" transform="translate(619.174,32.5332) rotate(90)">
			<title>Sheet.197</title>
			<path d="M0 249.32 L21.26 249.32" class="st1"/>
		</g>
		<g id="shape198-123" v:mID="198" v:groupContext="shape" transform="translate(364.187,-216.785)">
			<title>Sheet.198</title>
			<path d="M0 249.32 L11.34 249.32" class="st1"/>
		</g>
		<g id="shape199-126" v:mID="199" v:groupContext="shape" transform="translate(313.163,-216.785)">
			<title>Sheet.199</title>
			<desc>+5V6</desc>
			<v:textBlock v:margins="rect(4,4,4,4)" v:tabSpace="42.5197"/>
			<v:textRect cx="56.6929" cy="242.232" width="113.39" height="14.1732"/>
			<rect x="0" y="235.145" width="113.386" height="14.1732" class="st2"/>
			<text x="42.51" y="245.83" class="st3" v:langID="1033"><v:paragraph v:horizAlign="1"/><v:tabList/>+5V6</text>		</g>
		<g id="shape200-129" v:mID="200" v:groupContext="shape" transform="translate(426.549,303.111) rotate(180)">
			<title>Sheet.200</title>
			<path d="M0 249.32 L56.69 249.32" class="st1"/>
		</g>
		<g id="shape201-132" v:mID="201" v:groupContext="shape" transform="translate(384.029,-184.187)">
			<title>Sheet.201</title>
			<desc>LC</desc>
			<v:textBlock v:margins="rect(4,4,4,4)" v:tabSpace="42.5197"/>
			<v:textRect cx="14.1732" cy="237.98" width="28.35" height="22.6772"/>
			<rect x="0" y="226.641" width="28.3465" height="22.6772" class="st10"/>
			<text x="6.5" y="241.58" class="st3" v:langID="1033"><v:paragraph v:horizAlign="1"/><v:tabList/>LC</text>		</g>
		<g id="shape202-135" v:mID="202" v:groupContext="shape" transform="translate(368.439,-194.108)">
			<title>Sheet.202</title>
			<ellipse cx="1.41732" cy="247.901" rx="1.41732" ry="1.41732" class="st5"/>
		</g>
		<g id="shape203-137" v:mID="203" v:groupContext="shape" transform="translate(572.625,303.111) rotate(180)">
			<title>Sheet.203</title>
			<path d="M0 249.32 L63.87 249.32" class="st1"/>
		</g>
		<g id="shape209-140" v:mID="209" v:groupContext="shape" transform="translate(386.864,416.497) rotate(180)">
			<title>Sheet.209</title>
			<path d="M0 249.32 L96.38 249.32" class="st1"/>
		</g>
		<g id="shape210-143" v:mID="210" v:groupContext="shape" transform="translate(637.6,145.919) rotate(90)">
			<title>Sheet.210</title>
			<path d="M0 249.32 L21.26 249.32" class="st1"/>
		</g>
		<g id="shape211-146" v:mID="211" v:groupContext="shape" transform="translate(382.612,-103.399)">
			<title>Sheet.211</title>
			<path d="M0 249.32 L11.34 249.32" class="st1"/>
		</g>
		<g id="shape212-149" v:mID="212" v:groupContext="shape" transform="translate(331.588,-103.399)">
			<title>Sheet.212</title>
			<desc>+VCXTRX</desc>
			<v:textBlock v:margins="rect(4,4,4,4)" v:tabSpace="42.5197"/>
			<v:textRect cx="56.6929" cy="242.232" width="113.39" height="14.1732"/>
			<rect x="0" y="235.145" width="113.386" height="14.1732" class="st2"/>
			<text x="28.85" y="245.83" class="st3" v:langID="1033"><v:paragraph v:horizAlign="1"/><v:tabList/>+VCXTRX</text>		</g>
		<g id="shape219-152" v:mID="219" v:groupContext="shape" transform="translate(600.88,331.458) rotate(180)">
			<title>Sheet.219</title>
			<path d="M0 249.32 L28.35 249.32" class="st1"/>
		</g>
		<g id="shape220-155" v:mID="220" v:groupContext="shape" transform="translate(850.198,60.8797) rotate(90)">
			<title>Sheet.220</title>
			<path d="M0 249.32 L21.26 249.32" class="st1"/>
		</g>
		<g id="shape221-158" v:mID="221" v:groupContext="shape" transform="translate(595.21,-188.439)">
			<title>Sheet.221</title>
			<path d="M0 249.32 L11.34 249.32" class="st1"/>
		</g>
		<g id="shape222-161" v:mID="222" v:groupContext="shape" transform="translate(545.604,-188.439)">
			<title>Sheet.222</title>
			<desc>+5VRF</desc>
			<v:textBlock v:margins="rect(4,4,4,4)" v:tabSpace="42.5197"/>
			<v:textRect cx="56.6929" cy="242.232" width="113.39" height="14.1732"/>
			<rect x="0" y="235.145" width="113.386" height="14.1732" class="st2"/>
			<text x="37.85" y="245.83" class="st3" v:langID="1033"><v:paragraph v:horizAlign="1"/><v:tabList/>+5VRF</text>		</g>
		<g id="group223-164" transform="translate(423.714,409.411) rotate(180)" v:mID="223" v:groupContext="group">
			<title>Sheet.223</title>
			<g id="shape224-165" v:mID="224" v:groupContext="shape" transform="translate(176.295,58.8504) rotate(45)">
				<title>Sheet.224</title>
				<path d="M-0 249.32 A7.08661 7.08661 135 0 1 10.02 249.32" class="st4"/>
			</g>
			<g id="shape225-168" v:mID="225" v:groupContext="shape" transform="translate(183.381,418.527) rotate(135)">
				<title>Sheet.225</title>
				<path d="M0 249.32 A7.08661 7.08661 45 0 1 10.02 249.32" class="st4"/>
			</g>
		</g>
		<g id="shape226-171" v:mID="226" v:groupContext="shape" transform="translate(416.628,416.497) rotate(180)">
			<title>Sheet.226</title>
			<path d="M0 249.32 L28.35 249.32" class="st1"/>
		</g>
		<g id="shape227-174" v:mID="227" v:groupContext="shape" transform="translate(381.195,-53.7931)">
			<title>Sheet.227</title>
			<desc>mPCIe connector</desc>
			<v:textBlock v:margins="rect(4,4,4,4)" v:tabSpace="42.5197"/>
			<v:textRect cx="63.7795" cy="242.232" width="127.56" height="14.1732"/>
			<rect x="0" y="235.145" width="127.559" height="14.1732" class="st2"/>
			<text x="22.66" y="245.23" class="st6" v:langID="1033"><v:paragraph v:horizAlign="1"/><v:tabList/>mPCIe connector</text>		</g>
		<g id="shape228-177" v:mID="228" v:groupContext="shape" transform="translate(637.6,166.382) rotate(90)">
			<title>Sheet.228</title>
			<path d="M0 249.32 L23.47 249.32" class="st1"/>
		</g>
		<g id="shape229-180" v:mID="229" v:groupContext="shape" transform="translate(386.864,-80.7222)">
			<title>Sheet.229</title>
			<ellipse cx="1.41732" cy="247.901" rx="1.41732" ry="1.41732" class="st5"/>
		</g>
		<g id="group230-182" transform="translate(355.559,-52.3757)" v:mID="230" v:groupContext="group">
			<title>Sheet.230</title>
			<g id="shape231-183" v:mID="231" v:groupContext="shape" transform="translate(176.295,58.8504) rotate(45)">
				<title>Sheet.231</title>
				<path d="M-0 249.32 A7.08661 7.08661 135 0 1 10.02 249.32" class="st4"/>
			</g>
			<g id="shape232-186" v:mID="232" v:groupContext="shape" transform="translate(183.381,418.527) rotate(135)">
				<title>Sheet.232</title>
				<path d="M0 249.32 A7.08661 7.08661 45 0 1 10.02 249.32" class="st4"/>
			</g>
		</g>
		<g id="shape233-189" v:mID="233" v:groupContext="shape" transform="translate(387.685,439.173) rotate(-179.829)">
			<title>Sheet.233</title>
			<path d="M0 249.32 L25.79 249.32" class="st1"/>
		</g>
		<g id="shape234-192" v:mID="234" v:groupContext="shape" transform="translate(293.321,-32.5332)">
			<title>Sheet.234</title>
			<desc>Pin header</desc>
			<v:textBlock v:margins="rect(4,4,4,4)" v:tabSpace="42.5197"/>
			<v:textRect cx="63.7795" cy="242.232" width="127.56" height="14.1732"/>
			<rect x="0" y="235.145" width="127.559" height="14.1732" class="st2"/>
			<text x="38.22" y="245.23" class="st6" v:langID="1033"><v:paragraph v:horizAlign="1"/><v:tabList/>Pin header</text>		</g>
		<g id="shape235-195" v:mID="235" v:groupContext="shape" transform="translate(199.777,-76.4702)">
			<title>Sheet.235</title>
			<desc>J2</desc>
			<v:textBlock v:margins="rect(4,4,4,4)" v:tabSpace="42.5197"/>
			<v:textRect cx="49.6063" cy="242.232" width="99.22" height="14.1732"/>
			<rect x="0" y="235.145" width="99.2126" height="14.1732" class="st2"/>
			<text x="44.33" y="245.23" class="st7" v:langID="1033"><v:paragraph v:horizAlign="1"/><v:tabList/>J2</text>		</g>
		<g id="shape236-198" v:mID="236" v:groupContext="shape" transform="translate(389.699,-39.6198)">
			<title>Sheet.236</title>
			<desc>3.3V or 5.0V</desc>
			<v:textBlock v:margins="rect(4,4,4,4)" v:tabSpace="42.5197"/>
			<v:textRect cx="55.2756" cy="242.232" width="110.56" height="14.1732"/>
			<rect x="0" y="235.145" width="110.551" height="14.1732" class="st2"/>
			<text x="27.48" y="245.23" class="st7" v:langID="1033"><v:paragraph v:horizAlign="1"/><v:tabList/>3.3V or 5.0V</text>		</g>
		<g id="shape242-201" v:mID="242" v:groupContext="shape" transform="translate(262.14,-82.1395)">
			<title>Sheet.242</title>
			<path d="M0 249.32 L28.35 249.32" class="st11"/>
		</g>
		<g id="shape243-204" v:mID="243" v:groupContext="shape" transform="translate(262.14,-93.4781)">
			<title>Sheet.243</title>
			<path d="M0 249.32 L28.35 249.32" class="st11"/>
		</g>
		<g id="shape244-207" v:mID="244" v:groupContext="shape" transform="translate(262.048,-70.8009)">
			<title>Sheet.244</title>
			<path d="M0 249.32 L28.35 249.32" class="st11"/>
		</g>
		<g id="shape245-210" v:mID="245" v:groupContext="shape" transform="translate(277.639,-65.1317)">
			<title>Sheet.245</title>
			<rect x="0" y="215.303" width="7.08661" height="34.0157" class="st12"/>
		</g>
		<g id="shape250-212" v:mID="250" v:groupContext="shape" transform="translate(545.474,178.517) rotate(90)">
			<title>Sheet.250</title>
			<path d="M0 249.32 L17.01 249.32" class="st1"/>
		</g>
		<g id="shape251-215" v:mID="251" v:groupContext="shape" transform="translate(290.395,-70.8009)">
			<title>Sheet.251</title>
			<path d="M0 249.32 L17.1 249.32" class="st1"/>
		</g>
		<g id="shape252-218" v:mID="252" v:groupContext="shape" transform="translate(545.474,116.155) rotate(90)">
			<title>Sheet.252</title>
			<path d="M0 249.32 L39.69 249.32" class="st1"/>
		</g>
		<g id="shape253-221" v:mID="253" v:groupContext="shape" transform="translate(290.486,-93.4781)">
			<title>Sheet.253</title>
			<path d="M0 249.32 L5.67 249.32" class="st1"/>
		</g>
		<g id="shape254-224" v:mID="254" v:groupContext="shape" transform="translate(294.738,-131.746)">
			<title>Sheet.254</title>
			<ellipse cx="1.41732" cy="247.901" rx="1.41732" ry="1.41732" class="st5"/>
		</g>
		<g id="shape255-226" v:mID="255" v:groupContext="shape" transform="translate(544.278,-167.179)">
			<title>Sheet.255</title>
			<path d="M0 249.32 L28.35 249.32" class="st11"/>
		</g>
		<g id="shape256-229" v:mID="256" v:groupContext="shape" transform="translate(544.278,-178.517)">
			<title>Sheet.256</title>
			<path d="M0 249.32 L28.35 249.32" class="st11"/>
		</g>
		<g id="shape257-232" v:mID="257" v:groupContext="shape" transform="translate(544.187,-155.84)">
			<title>Sheet.257</title>
			<path d="M0 249.32 L28.35 249.32" class="st11"/>
		</g>
		<g id="shape258-235" v:mID="258" v:groupContext="shape" transform="translate(559.777,-150.171)">
			<title>Sheet.258</title>
			<rect x="0" y="215.303" width="7.08661" height="34.0157" class="st12"/>
		</g>
		<g id="shape259-237" v:mID="259" v:groupContext="shape" transform="translate(484.659,-160.092)">
			<title>Sheet.259</title>
			<desc>J1</desc>
			<v:textBlock v:margins="rect(4,4,4,4)" v:tabSpace="42.5197"/>
			<v:textRect cx="49.6063" cy="242.232" width="99.22" height="14.1732"/>
			<rect x="0" y="235.145" width="99.2126" height="14.1732" class="st2"/>
			<text x="44.33" y="245.23" class="st7" v:langID="1033"><v:paragraph v:horizAlign="1"/><v:tabList/>J1</text>		</g>
		<g id="shape260-240" v:mID="260" v:groupContext="shape" transform="translate(308.911,-18.36)">
			<title>Sheet.260</title>
			<desc>3.3V or 5.0V</desc>
			<v:textBlock v:margins="rect(4,4,4,4)" v:tabSpace="42.5197"/>
			<v:textRect cx="49.6063" cy="242.232" width="99.22" height="14.1732"/>
			<rect x="0" y="235.145" width="99.2126" height="14.1732" class="st2"/>
			<text x="21.81" y="245.23" class="st7" v:langID="1033"><v:paragraph v:horizAlign="1"/><v:tabList/>3.3V or 5.0V</text>		</g>
		<g id="shape261-243" v:mID="261" v:groupContext="shape" transform="translate(821.943,53.7931) rotate(90)">
			<title>Sheet.261</title>
			<path d="M0 249.32 L17.01 249.32" class="st1"/>
		</g>
		<g id="shape262-246" v:mID="262" v:groupContext="shape" transform="translate(821.852,93.4781) rotate(90)">
			<title>Sheet.262</title>
			<path d="M0 249.32 L22.68 249.32" class="st1"/>
		</g>
		<g id="shape263-249" v:mID="263" v:groupContext="shape" transform="translate(307.494,-67.3994)">
			<title>Sheet.263</title>
			<rect x="0" y="242.515" width="21.4884" height="6.80315" class="st13"/>
		</g>
		<g id="shape264-251" v:mID="264" v:groupContext="shape" transform="translate(294.738,-69.3836)">
			<title>Sheet.264</title>
			<ellipse cx="1.41732" cy="247.901" rx="1.41732" ry="1.41732" class="st5"/>
		</g>
		<g id="shape265-253" v:mID="265" v:groupContext="shape" transform="translate(328.982,-70.8009)">
			<title>Sheet.265</title>
			<path d="M0 249.32 L12.53 249.32" class="st1"/>
		</g>
		<g id="shape266-256" v:mID="266" v:groupContext="shape" transform="translate(590.828,167.179) rotate(90)">
			<title>Sheet.266</title>
			<path d="M0 249.32 L11.34 249.32" class="st1"/>
		</g>
		<g id="shape267-259" v:mID="267" v:groupContext="shape" transform="translate(340.092,-80.7222)">
			<title>Sheet.267</title>
			<ellipse cx="1.41732" cy="247.901" rx="1.41732" ry="1.41732" class="st5"/>
		</g>
		<g id="shape268-261" v:mID="268" v:groupContext="shape" transform="translate(255.326,-51.3065)">
			<title>Sheet.268</title>
			<desc>NF</desc>
			<v:textBlock v:margins="rect(4,4,4,4)" v:tabSpace="42.5197"/>
			<v:textRect cx="63.7795" cy="242.232" width="127.56" height="14.1732"/>
			<rect x="0" y="235.145" width="127.559" height="14.1732" class="st2"/>
			<text x="55.78" y="245.83" class="st3" v:langID="1033"><v:paragraph v:horizAlign="1"/><v:tabList/>NF</text>		</g>
	</g>
</svg>
