G04*
G04 #@! TF.GenerationSoftware,Altium Limited,Altium Designer,19.1.9 (167)*
G04*
G04 Layer_Color=65535*
%FSLAX24Y24*%
%MOIN*%
G70*
G01*
G75*
%ADD10C,0.0098*%
%ADD11C,0.0079*%
%ADD12C,0.0010*%
%ADD13C,0.0010*%
%ADD14C,0.0100*%
%ADD15C,0.0050*%
%ADD16C,0.0080*%
%ADD17C,0.0060*%
%ADD18C,0.0197*%
%ADD19C,0.0059*%
G36*
X34577Y36378D02*
X34291Y36663D01*
X34577Y36663D01*
X34577Y36378D01*
D02*
G37*
G36*
X46594Y32156D02*
X46309Y32156D01*
X46309Y32441D01*
X46594Y32156D01*
D02*
G37*
G36*
X12475Y28051D02*
X12554D01*
Y27933D01*
X12475D01*
Y27835D01*
X12377D01*
Y28150D01*
X12475D01*
Y28051D01*
D02*
G37*
G36*
X12490Y27579D02*
X12569D01*
Y27461D01*
X12490D01*
Y27362D01*
X12392D01*
Y27677D01*
X12490D01*
Y27579D01*
D02*
G37*
G36*
X12480Y27077D02*
X12559D01*
Y26959D01*
X12480D01*
Y26860D01*
X12382D01*
Y27175D01*
X12480D01*
Y27077D01*
D02*
G37*
G36*
X16037Y18192D02*
X15801D01*
Y20397D01*
X16037D01*
Y18192D01*
D02*
G37*
G36*
X15698Y20871D02*
X15698Y17531D01*
X11971D01*
X11971Y20871D01*
X15698Y20871D01*
D02*
G37*
G36*
X34036Y16011D02*
X33908D01*
X33933Y16126D01*
X34060D01*
X34036Y16011D01*
D02*
G37*
G36*
X39299Y16137D02*
X39308Y16137D01*
X39318Y16136D01*
X39331Y16134D01*
X39343Y16131D01*
X39370Y16124D01*
X39385Y16119D01*
X39399Y16114D01*
X39414Y16107D01*
X39427Y16100D01*
X39441Y16091D01*
X39454Y16081D01*
X39455Y16080D01*
X39457Y16078D01*
X39460Y16075D01*
X39464Y16070D01*
X39469Y16065D01*
X39476Y16058D01*
X39481Y16049D01*
X39488Y16040D01*
X39495Y16030D01*
X39501Y16018D01*
X39508Y16005D01*
X39514Y15992D01*
X39520Y15976D01*
X39525Y15960D01*
X39529Y15943D01*
X39531Y15925D01*
X39403Y15913D01*
Y15914D01*
X39402Y15916D01*
Y15919D01*
X39401Y15923D01*
X39398Y15932D01*
X39393Y15944D01*
X39388Y15958D01*
X39380Y15972D01*
X39371Y15985D01*
X39361Y15995D01*
X39360Y15996D01*
X39355Y15999D01*
X39349Y16004D01*
X39339Y16009D01*
X39328Y16013D01*
X39314Y16018D01*
X39298Y16021D01*
X39280Y16022D01*
X39274D01*
X39270Y16021D01*
X39260Y16020D01*
X39245Y16017D01*
X39229Y16013D01*
X39212Y16007D01*
X39193Y15998D01*
X39175Y15987D01*
X39174D01*
X39174Y15985D01*
X39168Y15980D01*
X39158Y15973D01*
X39148Y15960D01*
X39136Y15946D01*
X39122Y15927D01*
X39109Y15905D01*
X39098Y15880D01*
Y15879D01*
X39097Y15877D01*
X39095Y15873D01*
X39093Y15868D01*
X39091Y15861D01*
X39089Y15853D01*
X39086Y15845D01*
X39084Y15835D01*
X39079Y15814D01*
X39074Y15789D01*
X39070Y15762D01*
X39069Y15736D01*
Y15735D01*
Y15732D01*
Y15728D01*
X39070Y15723D01*
Y15716D01*
X39071Y15708D01*
X39074Y15691D01*
X39079Y15672D01*
X39084Y15652D01*
X39094Y15632D01*
X39106Y15614D01*
X39108Y15612D01*
X39113Y15607D01*
X39121Y15601D01*
X39132Y15593D01*
X39146Y15584D01*
X39162Y15578D01*
X39180Y15573D01*
X39190Y15572D01*
X39200Y15571D01*
X39205D01*
X39209Y15572D01*
X39219Y15573D01*
X39231Y15575D01*
X39246Y15580D01*
X39263Y15585D01*
X39279Y15593D01*
X39296Y15604D01*
X39297D01*
X39298Y15606D01*
X39303Y15611D01*
X39311Y15619D01*
X39320Y15630D01*
X39331Y15644D01*
X39342Y15661D01*
X39352Y15682D01*
X39361Y15706D01*
X39497Y15685D01*
Y15684D01*
X39495Y15680D01*
X39494Y15674D01*
X39490Y15667D01*
X39485Y15657D01*
X39480Y15647D01*
X39475Y15635D01*
X39467Y15622D01*
X39450Y15595D01*
X39429Y15567D01*
X39406Y15540D01*
X39391Y15528D01*
X39377Y15516D01*
X39376Y15515D01*
X39373Y15513D01*
X39370Y15511D01*
X39363Y15508D01*
X39355Y15503D01*
X39347Y15498D01*
X39335Y15493D01*
X39324Y15488D01*
X39311Y15482D01*
X39297Y15476D01*
X39281Y15472D01*
X39265Y15468D01*
X39248Y15464D01*
X39230Y15461D01*
X39211Y15459D01*
X39191Y15458D01*
X39186D01*
X39180Y15459D01*
X39172D01*
X39161Y15460D01*
X39150Y15462D01*
X39137Y15464D01*
X39123Y15468D01*
X39108Y15472D01*
X39093Y15476D01*
X39077Y15482D01*
X39062Y15489D01*
X39046Y15497D01*
X39030Y15507D01*
X39016Y15518D01*
X39003Y15530D01*
X39002Y15531D01*
X39000Y15534D01*
X38996Y15538D01*
X38993Y15544D01*
X38988Y15551D01*
X38982Y15561D01*
X38976Y15572D01*
X38970Y15584D01*
X38963Y15599D01*
X38957Y15614D01*
X38951Y15632D01*
X38946Y15651D01*
X38942Y15671D01*
X38939Y15693D01*
X38937Y15716D01*
X38936Y15742D01*
Y15743D01*
Y15746D01*
Y15753D01*
X38937Y15761D01*
Y15770D01*
X38939Y15782D01*
X38940Y15795D01*
X38941Y15809D01*
X38943Y15824D01*
X38947Y15841D01*
X38955Y15875D01*
X38966Y15911D01*
X38973Y15928D01*
X38980Y15946D01*
X38981Y15947D01*
X38982Y15950D01*
X38985Y15955D01*
X38989Y15961D01*
X38994Y15969D01*
X38999Y15978D01*
X39006Y15988D01*
X39013Y15999D01*
X39031Y16022D01*
X39052Y16046D01*
X39078Y16068D01*
X39092Y16079D01*
X39106Y16088D01*
X39107Y16089D01*
X39110Y16090D01*
X39115Y16093D01*
X39120Y16096D01*
X39128Y16100D01*
X39137Y16104D01*
X39147Y16109D01*
X39158Y16114D01*
X39171Y16118D01*
X39185Y16122D01*
X39214Y16131D01*
X39246Y16137D01*
X39263Y16137D01*
X39281Y16138D01*
X39292D01*
X39299Y16137D01*
D02*
G37*
G36*
X38121Y15955D02*
X38134Y15953D01*
X38148Y15949D01*
X38163Y15943D01*
X38177Y15936D01*
X38190Y15925D01*
X38191Y15924D01*
X38194Y15920D01*
X38200Y15913D01*
X38206Y15904D01*
X38211Y15892D01*
X38217Y15879D01*
X38221Y15863D01*
X38222Y15845D01*
Y15844D01*
Y15840D01*
X38221Y15833D01*
X38220Y15825D01*
X38219Y15814D01*
X38216Y15798D01*
X38213Y15780D01*
X38209Y15760D01*
X38146Y15471D01*
X38019D01*
X38081Y15760D01*
Y15761D01*
X38082Y15762D01*
Y15764D01*
X38083Y15768D01*
X38084Y15778D01*
X38086Y15788D01*
X38088Y15798D01*
X38090Y15809D01*
X38092Y15816D01*
Y15819D01*
Y15821D01*
Y15822D01*
Y15825D01*
X38091Y15828D01*
X38090Y15833D01*
X38087Y15843D01*
X38084Y15848D01*
X38080Y15852D01*
X38079Y15853D01*
X38078Y15854D01*
X38075Y15856D01*
X38071Y15859D01*
X38066Y15861D01*
X38060Y15863D01*
X38053Y15864D01*
X38045Y15865D01*
X38040D01*
X38036Y15864D01*
X38027Y15862D01*
X38015Y15858D01*
X38002Y15852D01*
X37987Y15843D01*
X37979Y15837D01*
X37972Y15831D01*
X37965Y15823D01*
X37958Y15814D01*
X37957Y15812D01*
X37955Y15810D01*
X37953Y15807D01*
X37951Y15802D01*
X37948Y15798D01*
X37944Y15791D01*
X37941Y15784D01*
X37938Y15776D01*
X37934Y15766D01*
X37930Y15756D01*
X37926Y15744D01*
X37922Y15732D01*
X37918Y15718D01*
X37914Y15703D01*
X37910Y15686D01*
X37865Y15471D01*
X37738D01*
X37798Y15757D01*
Y15758D01*
X37798Y15759D01*
X37799Y15765D01*
X37801Y15774D01*
X37803Y15783D01*
X37805Y15795D01*
X37806Y15805D01*
X37808Y15815D01*
Y15821D01*
Y15822D01*
Y15824D01*
X37807Y15828D01*
X37806Y15833D01*
X37802Y15842D01*
X37799Y15848D01*
X37795Y15852D01*
X37794Y15853D01*
X37793Y15854D01*
X37790Y15856D01*
X37786Y15859D01*
X37780Y15861D01*
X37775Y15863D01*
X37768Y15864D01*
X37760Y15865D01*
X37756D01*
X37752Y15864D01*
X37746Y15863D01*
X37740Y15862D01*
X37732Y15859D01*
X37725Y15856D01*
X37716Y15851D01*
X37715Y15851D01*
X37712Y15850D01*
X37708Y15847D01*
X37703Y15843D01*
X37696Y15838D01*
X37690Y15832D01*
X37683Y15825D01*
X37676Y15817D01*
X37675Y15816D01*
X37673Y15814D01*
X37671Y15809D01*
X37667Y15802D01*
X37662Y15795D01*
X37657Y15784D01*
X37653Y15774D01*
X37648Y15762D01*
Y15761D01*
X37647Y15758D01*
X37645Y15753D01*
X37643Y15746D01*
X37641Y15737D01*
X37637Y15724D01*
X37634Y15708D01*
X37632Y15699D01*
X37629Y15689D01*
X37583Y15471D01*
X37457D01*
X37556Y15946D01*
X37676D01*
X37665Y15888D01*
X37666Y15889D01*
X37668Y15891D01*
X37672Y15895D01*
X37677Y15899D01*
X37684Y15905D01*
X37691Y15910D01*
X37700Y15916D01*
X37710Y15923D01*
X37733Y15935D01*
X37758Y15946D01*
X37772Y15950D01*
X37785Y15954D01*
X37800Y15956D01*
X37815Y15957D01*
X37823D01*
X37833Y15956D01*
X37845Y15954D01*
X37858Y15951D01*
X37872Y15947D01*
X37886Y15941D01*
X37897Y15934D01*
X37898Y15933D01*
X37902Y15930D01*
X37906Y15924D01*
X37913Y15918D01*
X37919Y15909D01*
X37925Y15898D01*
X37931Y15887D01*
X37935Y15872D01*
X37936Y15874D01*
X37940Y15878D01*
X37945Y15885D01*
X37953Y15893D01*
X37963Y15903D01*
X37975Y15912D01*
X37989Y15923D01*
X38005Y15932D01*
X38006D01*
X38007Y15933D01*
X38010Y15934D01*
X38013Y15936D01*
X38022Y15940D01*
X38034Y15944D01*
X38048Y15949D01*
X38066Y15953D01*
X38083Y15956D01*
X38101Y15957D01*
X38111D01*
X38121Y15955D01*
D02*
G37*
G36*
X34711Y15955D02*
X34724Y15953D01*
X34738Y15949D01*
X34753Y15943D01*
X34767Y15936D01*
X34779Y15925D01*
X34780Y15924D01*
X34784Y15920D01*
X34790Y15913D01*
X34796Y15904D01*
X34801Y15892D01*
X34807Y15879D01*
X34811Y15863D01*
X34812Y15845D01*
Y15844D01*
Y15840D01*
X34811Y15833D01*
X34810Y15825D01*
X34809Y15814D01*
X34806Y15798D01*
X34803Y15780D01*
X34798Y15760D01*
X34736Y15471D01*
X34609D01*
X34671Y15760D01*
Y15761D01*
X34671Y15762D01*
Y15764D01*
X34672Y15768D01*
X34674Y15778D01*
X34676Y15788D01*
X34678Y15798D01*
X34680Y15809D01*
X34682Y15816D01*
Y15819D01*
Y15821D01*
Y15822D01*
Y15825D01*
X34681Y15828D01*
X34680Y15833D01*
X34677Y15843D01*
X34673Y15848D01*
X34670Y15852D01*
X34669Y15853D01*
X34668Y15854D01*
X34665Y15856D01*
X34661Y15859D01*
X34656Y15861D01*
X34650Y15863D01*
X34643Y15864D01*
X34635Y15865D01*
X34630D01*
X34626Y15864D01*
X34617Y15862D01*
X34605Y15858D01*
X34592Y15852D01*
X34577Y15843D01*
X34569Y15837D01*
X34562Y15831D01*
X34555Y15823D01*
X34547Y15814D01*
X34546Y15812D01*
X34545Y15810D01*
X34543Y15807D01*
X34541Y15802D01*
X34538Y15798D01*
X34534Y15791D01*
X34531Y15784D01*
X34528Y15776D01*
X34524Y15766D01*
X34520Y15756D01*
X34516Y15744D01*
X34511Y15732D01*
X34508Y15718D01*
X34504Y15703D01*
X34500Y15686D01*
X34455Y15471D01*
X34328D01*
X34387Y15757D01*
Y15758D01*
X34388Y15759D01*
X34389Y15765D01*
X34391Y15774D01*
X34393Y15783D01*
X34395Y15795D01*
X34396Y15805D01*
X34398Y15815D01*
Y15821D01*
Y15822D01*
Y15824D01*
X34397Y15828D01*
X34396Y15833D01*
X34392Y15842D01*
X34389Y15848D01*
X34385Y15852D01*
X34384Y15853D01*
X34383Y15854D01*
X34380Y15856D01*
X34376Y15859D01*
X34370Y15861D01*
X34365Y15863D01*
X34358Y15864D01*
X34349Y15865D01*
X34346D01*
X34342Y15864D01*
X34336Y15863D01*
X34330Y15862D01*
X34322Y15859D01*
X34314Y15856D01*
X34306Y15851D01*
X34305Y15851D01*
X34302Y15850D01*
X34297Y15847D01*
X34293Y15843D01*
X34286Y15838D01*
X34279Y15832D01*
X34273Y15825D01*
X34266Y15817D01*
X34265Y15816D01*
X34263Y15814D01*
X34260Y15809D01*
X34257Y15802D01*
X34252Y15795D01*
X34247Y15784D01*
X34242Y15774D01*
X34238Y15762D01*
Y15761D01*
X34237Y15758D01*
X34235Y15753D01*
X34233Y15746D01*
X34231Y15737D01*
X34227Y15724D01*
X34224Y15708D01*
X34222Y15699D01*
X34219Y15689D01*
X34173Y15471D01*
X34046D01*
X34146Y15946D01*
X34266D01*
X34255Y15888D01*
X34256Y15889D01*
X34258Y15891D01*
X34261Y15895D01*
X34267Y15899D01*
X34274Y15905D01*
X34281Y15910D01*
X34290Y15916D01*
X34300Y15923D01*
X34323Y15935D01*
X34348Y15946D01*
X34362Y15950D01*
X34375Y15954D01*
X34390Y15956D01*
X34404Y15957D01*
X34413D01*
X34423Y15956D01*
X34435Y15954D01*
X34448Y15951D01*
X34462Y15947D01*
X34475Y15941D01*
X34487Y15934D01*
X34488Y15933D01*
X34492Y15930D01*
X34496Y15924D01*
X34503Y15918D01*
X34509Y15909D01*
X34515Y15898D01*
X34521Y15887D01*
X34525Y15872D01*
X34526Y15874D01*
X34529Y15878D01*
X34535Y15885D01*
X34543Y15893D01*
X34553Y15903D01*
X34564Y15912D01*
X34579Y15923D01*
X34595Y15932D01*
X34596D01*
X34597Y15933D01*
X34599Y15934D01*
X34603Y15936D01*
X34612Y15940D01*
X34624Y15944D01*
X34638Y15949D01*
X34655Y15953D01*
X34672Y15956D01*
X34691Y15957D01*
X34701D01*
X34711Y15955D01*
D02*
G37*
G36*
X40802Y15471D02*
X40692D01*
X40598Y15946D01*
X40724D01*
X40756Y15738D01*
Y15737D01*
X40757Y15734D01*
Y15730D01*
X40758Y15725D01*
X40759Y15718D01*
X40761Y15709D01*
X40764Y15692D01*
X40766Y15673D01*
X40769Y15655D01*
X40771Y15639D01*
X40772Y15633D01*
X40773Y15627D01*
X40774Y15629D01*
X40776Y15632D01*
X40779Y15637D01*
X40782Y15644D01*
X40788Y15654D01*
X40795Y15667D01*
X40799Y15675D01*
X40804Y15684D01*
Y15685D01*
X40805Y15686D01*
X40809Y15691D01*
X40814Y15700D01*
X40819Y15710D01*
X40825Y15721D01*
X40831Y15730D01*
X40835Y15739D01*
X40838Y15744D01*
X40957Y15946D01*
X41095D01*
X40802Y15471D01*
D02*
G37*
G36*
X41716D02*
X41589D01*
X41614Y15595D01*
X41741D01*
X41716Y15471D01*
D02*
G37*
G36*
X41367D02*
X41238D01*
X41333Y15924D01*
X41331Y15923D01*
X41326Y15920D01*
X41318Y15915D01*
X41306Y15908D01*
X41293Y15901D01*
X41277Y15893D01*
X41259Y15885D01*
X41240Y15876D01*
X41239D01*
X41238Y15875D01*
X41235Y15874D01*
X41231Y15872D01*
X41221Y15869D01*
X41209Y15865D01*
X41194Y15860D01*
X41178Y15855D01*
X41163Y15851D01*
X41147Y15847D01*
X41172Y15961D01*
X41173D01*
X41174Y15962D01*
X41179Y15964D01*
X41188Y15969D01*
X41199Y15975D01*
X41212Y15981D01*
X41228Y15989D01*
X41246Y15998D01*
X41265Y16010D01*
X41285Y16021D01*
X41306Y16034D01*
X41328Y16048D01*
X41349Y16063D01*
X41370Y16079D01*
X41390Y16095D01*
X41409Y16112D01*
X41427Y16130D01*
X41505D01*
X41367Y15471D01*
D02*
G37*
G36*
X39675D02*
X39542D01*
X39679Y16126D01*
X39814D01*
X39675Y15471D01*
D02*
G37*
G36*
X38696Y16125D02*
X38703D01*
X38719Y16124D01*
X38737Y16122D01*
X38755Y16119D01*
X38774Y16115D01*
X38790Y16109D01*
X38791D01*
X38792Y16108D01*
X38797Y16106D01*
X38804Y16101D01*
X38814Y16096D01*
X38824Y16088D01*
X38835Y16079D01*
X38847Y16066D01*
X38856Y16053D01*
X38857Y16051D01*
X38860Y16047D01*
X38864Y16038D01*
X38869Y16028D01*
X38873Y16013D01*
X38877Y15998D01*
X38880Y15980D01*
X38881Y15961D01*
Y15960D01*
Y15959D01*
Y15957D01*
Y15953D01*
X38880Y15943D01*
X38878Y15930D01*
X38876Y15916D01*
X38872Y15899D01*
X38868Y15882D01*
X38861Y15864D01*
Y15863D01*
X38860Y15862D01*
X38857Y15856D01*
X38853Y15848D01*
X38848Y15837D01*
X38841Y15825D01*
X38834Y15813D01*
X38824Y15800D01*
X38814Y15789D01*
X38813Y15788D01*
X38809Y15784D01*
X38803Y15780D01*
X38796Y15774D01*
X38787Y15766D01*
X38777Y15760D01*
X38766Y15753D01*
X38754Y15746D01*
X38752Y15745D01*
X38748Y15744D01*
X38741Y15742D01*
X38731Y15739D01*
X38719Y15735D01*
X38704Y15731D01*
X38687Y15727D01*
X38667Y15725D01*
X38665D01*
X38660Y15724D01*
X38652D01*
X38646Y15723D01*
X38632D01*
X38623Y15722D01*
X38603D01*
X38591Y15721D01*
X38461D01*
X38408Y15471D01*
X38275D01*
X38412Y16126D01*
X38690D01*
X38696Y16125D01*
D02*
G37*
G36*
X37124Y15471D02*
X36996D01*
X36975Y15616D01*
X36715D01*
X36636Y15471D01*
X36498D01*
X36867Y16126D01*
X37019D01*
X37124Y15471D01*
D02*
G37*
G36*
X36535Y16016D02*
X36184D01*
X36152Y15869D01*
X36492D01*
X36469Y15759D01*
X36127D01*
X36088Y15581D01*
X36470Y15581D01*
X36446Y15471D01*
X35935Y15471D01*
X36072Y16126D01*
X36558Y16126D01*
X36535Y16016D01*
D02*
G37*
G36*
X35945Y16016D02*
X35621D01*
X35588Y15859D01*
X35906D01*
X35884Y15749D01*
X35565D01*
X35507Y15471D01*
X35373D01*
X35511Y16126D01*
X35969D01*
X35945Y16016D01*
D02*
G37*
G36*
X33922Y15471D02*
X33795D01*
X33895Y15946D01*
X34023D01*
X33922Y15471D01*
D02*
G37*
G36*
X33397Y15581D02*
X33732D01*
X33709Y15471D01*
X33240D01*
X33377Y16126D01*
X33511D01*
X33397Y15581D01*
D02*
G37*
G36*
X42157Y16129D02*
X42163Y16128D01*
X42171Y16127D01*
X42190Y16122D01*
X42211Y16116D01*
X42221Y16111D01*
X42232Y16105D01*
X42243Y16099D01*
X42254Y16090D01*
X42265Y16082D01*
X42274Y16071D01*
X42275Y16070D01*
X42276Y16068D01*
X42279Y16066D01*
X42283Y16061D01*
X42286Y16054D01*
X42290Y16048D01*
X42295Y16039D01*
X42301Y16029D01*
X42305Y16017D01*
X42310Y16005D01*
X42314Y15991D01*
X42318Y15976D01*
X42321Y15959D01*
X42324Y15942D01*
X42325Y15923D01*
X42326Y15904D01*
Y15903D01*
Y15899D01*
Y15893D01*
X42325Y15886D01*
Y15877D01*
X42324Y15866D01*
X42323Y15853D01*
X42321Y15839D01*
X42319Y15823D01*
X42317Y15807D01*
X42314Y15789D01*
X42310Y15771D01*
X42301Y15731D01*
X42288Y15690D01*
Y15689D01*
X42286Y15685D01*
X42284Y15679D01*
X42282Y15672D01*
X42278Y15662D01*
X42273Y15651D01*
X42267Y15639D01*
X42262Y15626D01*
X42247Y15599D01*
X42229Y15570D01*
X42210Y15543D01*
X42198Y15530D01*
X42187Y15518D01*
X42186Y15517D01*
X42184Y15515D01*
X42180Y15512D01*
X42175Y15509D01*
X42170Y15504D01*
X42162Y15499D01*
X42155Y15494D01*
X42145Y15489D01*
X42123Y15477D01*
X42100Y15468D01*
X42086Y15464D01*
X42072Y15461D01*
X42058Y15459D01*
X42043Y15458D01*
X42035D01*
X42030Y15459D01*
X42023Y15460D01*
X42015Y15461D01*
X41997Y15466D01*
X41976Y15473D01*
X41965Y15477D01*
X41954Y15483D01*
X41943Y15490D01*
X41932Y15497D01*
X41922Y15506D01*
X41911Y15516D01*
X41910Y15517D01*
X41909Y15519D01*
X41907Y15522D01*
X41904Y15527D01*
X41900Y15533D01*
X41895Y15540D01*
X41890Y15548D01*
X41886Y15559D01*
X41881Y15570D01*
X41876Y15583D01*
X41872Y15596D01*
X41868Y15611D01*
X41865Y15627D01*
X41862Y15644D01*
X41861Y15663D01*
X41860Y15683D01*
Y15684D01*
Y15688D01*
Y15692D01*
X41861Y15700D01*
Y15709D01*
X41862Y15720D01*
X41863Y15732D01*
X41864Y15745D01*
X41866Y15760D01*
X41869Y15776D01*
X41874Y15810D01*
X41882Y15846D01*
X41893Y15884D01*
X41894Y15886D01*
X41895Y15889D01*
X41898Y15896D01*
X41901Y15905D01*
X41905Y15915D01*
X41910Y15926D01*
X41916Y15940D01*
X41923Y15954D01*
X41938Y15984D01*
X41956Y16014D01*
X41965Y16030D01*
X41977Y16044D01*
X41988Y16057D01*
X41999Y16069D01*
X42000Y16070D01*
X42002Y16072D01*
X42006Y16075D01*
X42011Y16079D01*
X42016Y16084D01*
X42024Y16088D01*
X42032Y16094D01*
X42042Y16100D01*
X42063Y16111D01*
X42087Y16120D01*
X42101Y16124D01*
X42114Y16127D01*
X42128Y16129D01*
X42143Y16130D01*
X42151D01*
X42157Y16129D01*
D02*
G37*
G36*
X40096Y15956D02*
X40103Y15955D01*
X40112Y15954D01*
X40121Y15952D01*
X40132Y15950D01*
X40155Y15943D01*
X40166Y15940D01*
X40177Y15934D01*
X40189Y15927D01*
X40200Y15921D01*
X40210Y15912D01*
X40221Y15903D01*
X40222Y15902D01*
X40223Y15900D01*
X40226Y15897D01*
X40229Y15893D01*
X40233Y15887D01*
X40237Y15881D01*
X40242Y15872D01*
X40247Y15864D01*
X40252Y15853D01*
X40257Y15842D01*
X40261Y15830D01*
X40264Y15816D01*
X40268Y15801D01*
X40271Y15785D01*
X40272Y15769D01*
X40273Y15751D01*
Y15750D01*
Y15749D01*
Y15744D01*
Y15734D01*
X40272Y15724D01*
X40271Y15710D01*
X40269Y15696D01*
X40264Y15668D01*
X39942D01*
Y15667D01*
Y15663D01*
X39941Y15659D01*
Y15655D01*
Y15655D01*
Y15654D01*
Y15648D01*
X39942Y15639D01*
X39944Y15628D01*
X39947Y15616D01*
X39952Y15603D01*
X39959Y15590D01*
X39967Y15579D01*
X39968Y15578D01*
X39972Y15574D01*
X39978Y15570D01*
X39986Y15565D01*
X39996Y15560D01*
X40007Y15555D01*
X40020Y15551D01*
X40034Y15550D01*
X40041D01*
X40045Y15551D01*
X40050Y15552D01*
X40057Y15554D01*
X40071Y15559D01*
X40079Y15562D01*
X40087Y15566D01*
X40096Y15572D01*
X40103Y15579D01*
X40112Y15586D01*
X40121Y15595D01*
X40128Y15605D01*
X40135Y15617D01*
X40249Y15598D01*
Y15597D01*
X40247Y15595D01*
X40246Y15591D01*
X40243Y15586D01*
X40240Y15581D01*
X40235Y15574D01*
X40226Y15558D01*
X40212Y15541D01*
X40196Y15524D01*
X40178Y15507D01*
X40158Y15493D01*
X40157D01*
X40156Y15491D01*
X40153Y15490D01*
X40149Y15487D01*
X40143Y15485D01*
X40138Y15482D01*
X40121Y15476D01*
X40103Y15469D01*
X40082Y15464D01*
X40059Y15460D01*
X40033Y15458D01*
X40024D01*
X40017Y15459D01*
X40009Y15460D01*
X39999Y15461D01*
X39989Y15463D01*
X39978Y15466D01*
X39953Y15474D01*
X39940Y15478D01*
X39926Y15484D01*
X39914Y15491D01*
X39901Y15499D01*
X39888Y15509D01*
X39877Y15519D01*
X39876Y15520D01*
X39874Y15522D01*
X39871Y15526D01*
X39868Y15530D01*
X39863Y15536D01*
X39858Y15544D01*
X39852Y15552D01*
X39848Y15562D01*
X39842Y15573D01*
X39836Y15584D01*
X39832Y15598D01*
X39827Y15612D01*
X39823Y15627D01*
X39820Y15644D01*
X39818Y15661D01*
X39817Y15679D01*
Y15680D01*
Y15684D01*
Y15689D01*
X39818Y15695D01*
X39819Y15704D01*
X39820Y15714D01*
X39822Y15726D01*
X39824Y15738D01*
X39831Y15764D01*
X39835Y15779D01*
X39840Y15794D01*
X39847Y15809D01*
X39853Y15824D01*
X39862Y15839D01*
X39871Y15853D01*
X39872Y15854D01*
X39875Y15858D01*
X39879Y15863D01*
X39885Y15869D01*
X39893Y15877D01*
X39902Y15887D01*
X39913Y15895D01*
X39925Y15905D01*
X39940Y15915D01*
X39956Y15924D01*
X39973Y15933D01*
X39992Y15941D01*
X40012Y15947D01*
X40033Y15952D01*
X40057Y15956D01*
X40082Y15957D01*
X40090D01*
X40096Y15956D01*
D02*
G37*
G36*
X35159Y15956D02*
X35167Y15955D01*
X35175Y15954D01*
X35185Y15952D01*
X35195Y15950D01*
X35218Y15943D01*
X35229Y15940D01*
X35241Y15934D01*
X35252Y15927D01*
X35263Y15921D01*
X35274Y15912D01*
X35284Y15903D01*
X35285Y15902D01*
X35286Y15900D01*
X35289Y15897D01*
X35293Y15893D01*
X35296Y15887D01*
X35300Y15881D01*
X35305Y15872D01*
X35311Y15864D01*
X35315Y15853D01*
X35320Y15842D01*
X35324Y15830D01*
X35328Y15816D01*
X35332Y15801D01*
X35334Y15785D01*
X35335Y15769D01*
X35336Y15751D01*
Y15750D01*
Y15749D01*
Y15744D01*
Y15734D01*
X35335Y15724D01*
X35334Y15710D01*
X35332Y15696D01*
X35327Y15668D01*
X35005D01*
Y15667D01*
Y15663D01*
X35004Y15659D01*
Y15655D01*
Y15655D01*
Y15654D01*
Y15648D01*
X35006Y15639D01*
X35008Y15628D01*
X35010Y15616D01*
X35015Y15603D01*
X35022Y15590D01*
X35030Y15579D01*
X35031Y15578D01*
X35035Y15574D01*
X35041Y15570D01*
X35049Y15565D01*
X35059Y15560D01*
X35070Y15555D01*
X35083Y15551D01*
X35098Y15550D01*
X35104D01*
X35108Y15551D01*
X35114Y15552D01*
X35120Y15554D01*
X35135Y15559D01*
X35142Y15562D01*
X35151Y15566D01*
X35159Y15572D01*
X35167Y15579D01*
X35175Y15586D01*
X35184Y15595D01*
X35191Y15605D01*
X35198Y15617D01*
X35313Y15598D01*
Y15597D01*
X35311Y15595D01*
X35309Y15591D01*
X35306Y15586D01*
X35303Y15581D01*
X35298Y15574D01*
X35289Y15558D01*
X35276Y15541D01*
X35260Y15524D01*
X35242Y15507D01*
X35222Y15493D01*
X35221D01*
X35219Y15491D01*
X35216Y15490D01*
X35212Y15487D01*
X35207Y15485D01*
X35201Y15482D01*
X35185Y15476D01*
X35167Y15469D01*
X35145Y15464D01*
X35122Y15460D01*
X35097Y15458D01*
X35087D01*
X35081Y15459D01*
X35072Y15460D01*
X35063Y15461D01*
X35052Y15463D01*
X35041Y15466D01*
X35016Y15474D01*
X35003Y15478D01*
X34990Y15484D01*
X34977Y15491D01*
X34964Y15499D01*
X34952Y15509D01*
X34940Y15519D01*
X34939Y15520D01*
X34938Y15522D01*
X34935Y15526D01*
X34931Y15530D01*
X34926Y15536D01*
X34921Y15544D01*
X34916Y15552D01*
X34911Y15562D01*
X34905Y15573D01*
X34900Y15584D01*
X34895Y15598D01*
X34890Y15612D01*
X34886Y15627D01*
X34884Y15644D01*
X34882Y15661D01*
X34881Y15679D01*
Y15680D01*
Y15684D01*
Y15689D01*
X34882Y15695D01*
X34883Y15704D01*
X34884Y15714D01*
X34885Y15726D01*
X34887Y15738D01*
X34894Y15764D01*
X34899Y15779D01*
X34903Y15794D01*
X34910Y15809D01*
X34917Y15824D01*
X34925Y15839D01*
X34935Y15853D01*
X34936Y15854D01*
X34939Y15858D01*
X34942Y15863D01*
X34948Y15869D01*
X34957Y15877D01*
X34965Y15887D01*
X34976Y15895D01*
X34989Y15905D01*
X35003Y15915D01*
X35019Y15924D01*
X35036Y15933D01*
X35055Y15941D01*
X35075Y15947D01*
X35097Y15952D01*
X35120Y15956D01*
X35145Y15957D01*
X35153D01*
X35159Y15956D01*
D02*
G37*
%LPC*%
G36*
X38643Y16018D02*
X38524D01*
X38484Y15831D01*
X38551D01*
X38562Y15832D01*
X38584Y15833D01*
X38607Y15833D01*
X38631Y15836D01*
X38641Y15838D01*
X38652Y15839D01*
X38660Y15842D01*
X38668Y15844D01*
X38670Y15845D01*
X38673Y15847D01*
X38680Y15850D01*
X38689Y15854D01*
X38697Y15860D01*
X38707Y15868D01*
X38716Y15876D01*
X38725Y15886D01*
X38726Y15887D01*
X38727Y15890D01*
X38731Y15897D01*
X38735Y15905D01*
X38739Y15914D01*
X38743Y15925D01*
X38745Y15937D01*
X38745Y15950D01*
Y15951D01*
Y15954D01*
X38745Y15958D01*
Y15964D01*
X38741Y15976D01*
X38738Y15983D01*
X38734Y15989D01*
Y15990D01*
X38732Y15992D01*
X38727Y15997D01*
X38717Y16004D01*
X38705Y16011D01*
X38704D01*
X38701Y16012D01*
X38695Y16013D01*
X38687Y16014D01*
X38676Y16016D01*
X38661Y16017D01*
X38653D01*
X38643Y16018D01*
D02*
G37*
G36*
X36920Y15989D02*
X36776Y15726D01*
X36958D01*
X36920Y15989D01*
D02*
G37*
G36*
X42139Y16028D02*
X42137D01*
X42133Y16027D01*
X42126Y16026D01*
X42118Y16024D01*
X42108Y16019D01*
X42098Y16013D01*
X42087Y16006D01*
X42077Y15994D01*
Y15994D01*
X42075Y15993D01*
X42073Y15989D01*
X42070Y15985D01*
X42068Y15979D01*
X42063Y15973D01*
X42059Y15965D01*
X42054Y15956D01*
X42049Y15944D01*
X42043Y15932D01*
X42037Y15919D01*
X42032Y15903D01*
X42026Y15887D01*
X42020Y15868D01*
X42014Y15848D01*
X42009Y15826D01*
Y15825D01*
X42008Y15821D01*
X42007Y15816D01*
X42005Y15809D01*
X42003Y15800D01*
X42001Y15790D01*
X41999Y15779D01*
X41997Y15766D01*
X41993Y15739D01*
X41989Y15711D01*
X41986Y15683D01*
X41985Y15656D01*
Y15655D01*
Y15655D01*
Y15652D01*
Y15648D01*
X41986Y15638D01*
X41987Y15627D01*
X41989Y15615D01*
X41993Y15602D01*
X41997Y15591D01*
X42002Y15582D01*
X42003Y15581D01*
X42005Y15579D01*
X42009Y15575D01*
X42014Y15571D01*
X42020Y15567D01*
X42028Y15564D01*
X42037Y15562D01*
X42047Y15561D01*
X42049D01*
X42052Y15562D01*
X42060Y15563D01*
X42068Y15565D01*
X42078Y15569D01*
X42089Y15575D01*
X42100Y15583D01*
X42111Y15594D01*
Y15595D01*
X42113Y15596D01*
X42115Y15599D01*
X42118Y15603D01*
X42121Y15608D01*
X42124Y15615D01*
X42128Y15623D01*
X42133Y15633D01*
X42139Y15643D01*
X42143Y15656D01*
X42149Y15671D01*
X42155Y15687D01*
X42160Y15705D01*
X42166Y15724D01*
X42172Y15745D01*
X42177Y15769D01*
Y15770D01*
X42178Y15774D01*
X42179Y15780D01*
X42181Y15786D01*
X42183Y15795D01*
X42185Y15805D01*
X42187Y15816D01*
X42190Y15829D01*
X42193Y15855D01*
X42197Y15883D01*
X42200Y15909D01*
X42201Y15923D01*
Y15934D01*
Y15935D01*
Y15936D01*
Y15942D01*
X42200Y15951D01*
X42199Y15961D01*
X42196Y15973D01*
X42193Y15985D01*
X42189Y15995D01*
X42183Y16005D01*
X42182Y16006D01*
X42180Y16009D01*
X42176Y16012D01*
X42171Y16016D01*
X42165Y16020D01*
X42158Y16024D01*
X42148Y16027D01*
X42139Y16028D01*
D02*
G37*
G36*
X40068Y15865D02*
X40062D01*
X40054Y15863D01*
X40045Y15861D01*
X40033Y15857D01*
X40021Y15852D01*
X40009Y15845D01*
X39996Y15834D01*
X39996Y15833D01*
X39992Y15829D01*
X39986Y15822D01*
X39979Y15812D01*
X39973Y15799D01*
X39965Y15784D01*
X39959Y15767D01*
X39954Y15746D01*
X40156D01*
Y15747D01*
Y15751D01*
Y15755D01*
Y15759D01*
Y15760D01*
Y15761D01*
Y15763D01*
Y15767D01*
X40155Y15777D01*
X40153Y15789D01*
X40150Y15801D01*
X40145Y15815D01*
X40139Y15827D01*
X40132Y15838D01*
X40131Y15839D01*
X40127Y15842D01*
X40122Y15847D01*
X40115Y15851D01*
X40106Y15856D01*
X40095Y15861D01*
X40083Y15864D01*
X40068Y15865D01*
D02*
G37*
G36*
X35132Y15865D02*
X35125D01*
X35117Y15863D01*
X35108Y15861D01*
X35097Y15857D01*
X35084Y15852D01*
X35072Y15845D01*
X35060Y15834D01*
X35059Y15833D01*
X35055Y15829D01*
X35049Y15822D01*
X35043Y15812D01*
X35036Y15799D01*
X35028Y15784D01*
X35022Y15767D01*
X35017Y15746D01*
X35219D01*
Y15747D01*
Y15751D01*
Y15755D01*
Y15759D01*
Y15760D01*
Y15761D01*
Y15763D01*
Y15767D01*
X35218Y15777D01*
X35216Y15789D01*
X35213Y15801D01*
X35208Y15815D01*
X35203Y15827D01*
X35195Y15838D01*
X35194Y15839D01*
X35190Y15842D01*
X35186Y15847D01*
X35178Y15851D01*
X35170Y15856D01*
X35158Y15861D01*
X35146Y15864D01*
X35132Y15865D01*
D02*
G37*
%LPD*%
G54D10*
X20433Y28238D02*
G03*
X20433Y28238I-49J0D01*
G01*
X41472Y36477D02*
G03*
X41472Y36477I-49J0D01*
G01*
X39729Y32342D02*
G03*
X39729Y32342I-49J0D01*
G01*
X48672Y36402D02*
G03*
X48672Y36402I-49J0D01*
G01*
X32529Y32417D02*
G03*
X32529Y32417I-49J0D01*
G01*
X27677Y27933D02*
X27795Y28051D01*
X27677Y28169D02*
X27795Y28051D01*
X16191Y18055D02*
Y17792D01*
X16322Y17661D01*
X16453Y17792D01*
Y18055D01*
X16847Y17989D02*
X16781Y18055D01*
X16650D01*
X16585Y17989D01*
Y17727D01*
X16650Y17661D01*
X16781D01*
X16847Y17727D01*
X17241Y17989D02*
X17175Y18055D01*
X17044D01*
X16978Y17989D01*
Y17727D01*
X17044Y17661D01*
X17175D01*
X17241Y17727D01*
X17372Y17595D02*
X17634D01*
X17765Y18055D02*
X18028Y17661D01*
Y18055D02*
X17765Y17661D01*
X18159Y18055D02*
X18421D01*
X18290D01*
Y17661D01*
X18552D02*
Y18055D01*
X18749D01*
X18815Y17989D01*
Y17858D01*
X18749Y17792D01*
X18552D01*
X18684D02*
X18815Y17661D01*
X18946Y18055D02*
X19208Y17661D01*
Y18055D02*
X18946Y17661D01*
X18761Y20123D02*
X18695Y20189D01*
X18564D01*
X18498Y20123D01*
Y19861D01*
X18564Y19795D01*
X18695D01*
X18761Y19861D01*
Y19992D01*
X18630D01*
X18892Y19795D02*
Y20189D01*
X19154Y19795D01*
Y20189D01*
X19286D02*
Y19795D01*
X19482D01*
X19548Y19861D01*
Y20123D01*
X19482Y20189D01*
X19286D01*
X23907Y37441D02*
Y37703D01*
Y37572D01*
X24300D01*
Y37835D02*
X23907D01*
X24038Y37966D01*
X23907Y38097D01*
X24300D01*
X23973Y38490D02*
X23907Y38425D01*
Y38294D01*
X23973Y38228D01*
X24038D01*
X24104Y38294D01*
Y38425D01*
X24169Y38490D01*
X24235D01*
X24300Y38425D01*
Y38294D01*
X24235Y38228D01*
X24896Y37559D02*
Y37821D01*
Y37690D01*
X25290D01*
X24896Y37953D02*
X25290D01*
Y38149D01*
X25224Y38215D01*
X24962D01*
X24896Y38149D01*
Y37953D01*
Y38346D02*
Y38477D01*
Y38412D01*
X25290D01*
Y38346D01*
Y38477D01*
X25866Y37480D02*
Y37743D01*
Y37612D01*
X26260D01*
X25866Y37874D02*
X26260D01*
Y38071D01*
X26194Y38136D01*
X25932D01*
X25866Y38071D01*
Y37874D01*
Y38464D02*
Y38333D01*
X25932Y38267D01*
X26194D01*
X26260Y38333D01*
Y38464D01*
X26194Y38530D01*
X25932D01*
X25866Y38464D01*
X26855Y37500D02*
Y37762D01*
Y37631D01*
X27249D01*
X26921Y38156D02*
X26855Y38090D01*
Y37959D01*
X26921Y37894D01*
X27183D01*
X27249Y37959D01*
Y38090D01*
X27183Y38156D01*
X26855Y38287D02*
X27249D01*
X27118D01*
X26855Y38550D01*
X27052Y38353D01*
X27249Y38550D01*
X27984Y37782D02*
X27919Y37716D01*
Y37585D01*
X27984Y37520D01*
X28247D01*
X28312Y37585D01*
Y37716D01*
X28247Y37782D01*
X28115D01*
Y37651D01*
X28312Y37913D02*
X27919D01*
X28312Y38176D01*
X27919D01*
Y38307D02*
X28312D01*
Y38504D01*
X28247Y38569D01*
X27984D01*
X27919Y38504D01*
Y38307D01*
X28832Y37500D02*
X29095D01*
X29226Y37631D01*
X29095Y37762D01*
X28832D01*
Y37894D02*
Y38025D01*
Y37959D01*
X29226D01*
Y37894D01*
Y38025D01*
X28832Y38418D02*
Y38287D01*
X28898Y38222D01*
X29160D01*
X29226Y38287D01*
Y38418D01*
X29160Y38484D01*
X28898D01*
X28832Y38418D01*
X23445Y17780D02*
Y17517D01*
X23576Y17386D01*
X23707Y17517D01*
Y17780D01*
X24101Y17714D02*
X24035Y17780D01*
X23904D01*
X23838Y17714D01*
Y17452D01*
X23904Y17386D01*
X24035D01*
X24101Y17452D01*
X24494Y17714D02*
X24429Y17780D01*
X24298D01*
X24232Y17714D01*
Y17452D01*
X24298Y17386D01*
X24429D01*
X24494Y17452D01*
X24626Y17320D02*
X24888D01*
X25019Y17780D02*
X25282Y17386D01*
Y17780D02*
X25019Y17386D01*
X25413Y17780D02*
X25675D01*
X25544D01*
Y17386D01*
X25806D02*
Y17780D01*
X26003D01*
X26069Y17714D01*
Y17583D01*
X26003Y17517D01*
X25806D01*
X25938D02*
X26069Y17386D01*
X26200Y17780D02*
X26462Y17386D01*
Y17780D02*
X26200Y17386D01*
X20433Y33770D02*
Y33507D01*
X20564Y33376D01*
X20695Y33507D01*
Y33770D01*
X21089Y33704D02*
X21023Y33770D01*
X20892D01*
X20827Y33704D01*
Y33442D01*
X20892Y33376D01*
X21023D01*
X21089Y33442D01*
X21483Y33704D02*
X21417Y33770D01*
X21286D01*
X21220Y33704D01*
Y33442D01*
X21286Y33376D01*
X21417D01*
X21483Y33442D01*
X21614Y33310D02*
X21876D01*
X22007Y33376D02*
Y33770D01*
X22204D01*
X22270Y33704D01*
Y33573D01*
X22204Y33507D01*
X22007D01*
X22139D02*
X22270Y33376D01*
X22663Y33770D02*
X22401D01*
Y33573D01*
X22532D01*
X22401D01*
Y33376D01*
X19444Y34232D02*
X19772D01*
X19837Y34298D01*
Y34429D01*
X19772Y34495D01*
X19444D01*
X19509Y34888D02*
X19444Y34823D01*
Y34691D01*
X19509Y34626D01*
X19575D01*
X19640Y34691D01*
Y34823D01*
X19706Y34888D01*
X19772D01*
X19837Y34823D01*
Y34691D01*
X19772Y34626D01*
X19444Y35019D02*
X19837D01*
Y35216D01*
X19772Y35282D01*
X19706D01*
X19640Y35216D01*
Y35019D01*
Y35216D01*
X19575Y35282D01*
X19509D01*
X19444Y35216D01*
Y35019D01*
X23327Y34311D02*
X22933D01*
Y34508D01*
X22999Y34573D01*
X23130D01*
X23196Y34508D01*
Y34311D01*
X22999Y34967D02*
X22933Y34901D01*
Y34770D01*
X22999Y34705D01*
X23261D01*
X23327Y34770D01*
Y34901D01*
X23261Y34967D01*
X22933Y35098D02*
Y35229D01*
Y35164D01*
X23327D01*
Y35098D01*
Y35229D01*
Y35623D02*
Y35492D01*
X23261Y35426D01*
X23130D01*
X23064Y35492D01*
Y35623D01*
X23130Y35689D01*
X23196D01*
Y35426D01*
X23494Y20446D02*
X23101D01*
Y20643D01*
X23166Y20709D01*
X23297D01*
X23363Y20643D01*
Y20446D01*
X23166Y21102D02*
X23101Y21037D01*
Y20906D01*
X23166Y20840D01*
X23428D01*
X23494Y20906D01*
Y21037D01*
X23428Y21102D01*
X23101Y21233D02*
Y21365D01*
Y21299D01*
X23494D01*
Y21233D01*
Y21365D01*
Y21758D02*
Y21627D01*
X23428Y21561D01*
X23297D01*
X23232Y21627D01*
Y21758D01*
X23297Y21824D01*
X23363D01*
Y21561D01*
X19117Y20641D02*
X19445D01*
X19511Y20707D01*
Y20838D01*
X19445Y20903D01*
X19117D01*
X19183Y21297D02*
X19117Y21231D01*
Y21100D01*
X19183Y21035D01*
X19249D01*
X19314Y21100D01*
Y21231D01*
X19380Y21297D01*
X19445D01*
X19511Y21231D01*
Y21100D01*
X19445Y21035D01*
X19117Y21428D02*
X19511D01*
Y21625D01*
X19445Y21691D01*
X19380D01*
X19314Y21625D01*
Y21428D01*
Y21625D01*
X19249Y21691D01*
X19183D01*
X19117Y21625D01*
Y21428D01*
X46855Y29695D02*
Y29957D01*
X46987Y30088D01*
X47118Y29957D01*
Y29695D01*
Y29892D01*
X46855D01*
X36791Y38169D02*
Y38432D01*
X36923Y38563D01*
X37054Y38432D01*
Y38169D01*
Y38366D01*
X36791D01*
X44099Y38189D02*
Y38451D01*
X44231Y38583D01*
X44362Y38451D01*
Y38189D01*
Y38386D01*
X44099D01*
X46919Y38130D02*
Y38392D01*
X47050Y38523D01*
X47182Y38392D01*
Y38130D01*
Y38327D01*
X46919D01*
X44035Y30138D02*
Y29744D01*
X44232D01*
X44298Y29810D01*
Y29875D01*
X44232Y29941D01*
X44035D01*
X44232D01*
X44298Y30006D01*
Y30072D01*
X44232Y30138D01*
X44035D01*
X36821Y30088D02*
Y29695D01*
X37018D01*
X37083Y29760D01*
Y29826D01*
X37018Y29892D01*
X36821D01*
X37018D01*
X37083Y29957D01*
Y30023D01*
X37018Y30088D01*
X36821D01*
X33750Y30148D02*
Y29754D01*
X33947D01*
X34012Y29820D01*
Y29885D01*
X33947Y29951D01*
X33750D01*
X33947D01*
X34012Y30016D01*
Y30082D01*
X33947Y30148D01*
X33750D01*
X33809Y38543D02*
Y38150D01*
X34006D01*
X34071Y38215D01*
Y38281D01*
X34006Y38346D01*
X33809D01*
X34006D01*
X34071Y38412D01*
Y38478D01*
X34006Y38543D01*
X33809D01*
G54D11*
X18809Y37136D02*
G03*
X18809Y37136I-39J0D01*
G01*
X33150Y36417D02*
Y36663D01*
X33396D01*
X33150Y35246D02*
Y35492D01*
Y35246D02*
X33396D01*
X34321D02*
X34567D01*
Y35492D01*
X34577Y36417D02*
Y36663D01*
X34331D02*
X34577D01*
X34331D02*
X34577Y36417D01*
X47736Y32156D02*
Y32402D01*
X47490Y32156D02*
X47736D01*
Y33327D02*
Y33573D01*
X47490D02*
X47736D01*
X46319D02*
X46565D01*
X46319Y33327D02*
Y33573D01*
X46309Y32156D02*
Y32402D01*
Y32156D02*
X46555D01*
X46309Y32402D02*
X46555Y32156D01*
X12165Y27756D02*
X12795D01*
X12165Y27283D02*
X12795D01*
X13022Y27520D02*
X13081D01*
X13022Y27461D02*
Y27579D01*
X19951Y27904D02*
X20108D01*
Y28061D01*
X19951Y29163D02*
X20108D01*
Y29006D02*
Y29163D01*
X18848Y29006D02*
Y29163D01*
X19006D01*
X18848Y27904D02*
X19006D01*
X18848D02*
Y28061D01*
X41585Y36447D02*
Y36614D01*
X41752D01*
X42992D02*
X43159D01*
Y36447D02*
Y36614D01*
Y35039D02*
Y35207D01*
X42992Y35039D02*
X43159D01*
X41585D02*
X41752D01*
X41585D02*
Y35207D01*
X39518Y33612D02*
Y33780D01*
X39350D02*
X39518D01*
X37943D02*
X38110D01*
X37943Y33612D02*
Y33780D01*
Y32205D02*
Y32372D01*
Y32205D02*
X38110D01*
X39350D02*
X39518D01*
Y32372D01*
X13228Y29783D02*
X15669D01*
Y32461D01*
X13228D02*
X15669D01*
Y30217D02*
X15787D01*
X15669Y32028D02*
X15787D01*
X16250Y37242D02*
Y38159D01*
Y37242D02*
X17274D01*
X18770D02*
X19793D01*
Y38159D01*
X47185Y36240D02*
X47352D01*
X47185Y36073D02*
Y36240D01*
Y34665D02*
Y34833D01*
Y34665D02*
X47352D01*
X48593D02*
X48760D01*
Y34833D01*
Y36073D02*
Y36240D01*
X48593D02*
X48760D01*
X33750Y32579D02*
X33917D01*
Y32746D01*
Y33986D02*
Y34154D01*
X33750D02*
X33917D01*
X32343D02*
X32510D01*
X32343Y33986D02*
Y34154D01*
Y32579D02*
Y32746D01*
Y32579D02*
X32510D01*
X12151Y27756D02*
X12780D01*
X12151Y28228D02*
X12780D01*
X13007Y27992D02*
X13066D01*
X13007Y27933D02*
Y28051D01*
X12156Y27254D02*
X12785D01*
X12156Y26781D02*
X12785D01*
X13012Y27018D02*
X13071D01*
X13012Y26959D02*
Y27077D01*
X34532Y28716D02*
X34656Y28839D01*
X36496D01*
Y28720D02*
Y28839D01*
Y27461D02*
Y27618D01*
X34528Y28091D02*
Y28248D01*
X36496Y28091D02*
Y28248D01*
X34528Y26870D02*
Y26988D01*
Y26870D02*
X36496D01*
Y26988D01*
X34528Y27461D02*
Y27618D01*
X18268Y23709D02*
Y26681D01*
X12539D02*
X18268D01*
Y20933D02*
Y22232D01*
X12421Y20933D02*
X18268D01*
X11890Y21386D02*
Y26150D01*
X11535Y24358D02*
X11624D01*
X11535Y23886D02*
X11762D01*
X11624Y24358D02*
X11762Y24220D01*
Y23886D02*
Y24220D01*
X11535Y21760D02*
X11890D01*
X11535Y26484D02*
X11791D01*
X21673Y26083D02*
Y27421D01*
X19665Y25886D02*
Y26043D01*
Y25886D02*
X22579D01*
X19665Y27421D02*
Y27579D01*
X22579D01*
X29055Y28996D02*
X31535D01*
Y27736D02*
Y28996D01*
Y23957D02*
Y25217D01*
Y17185D02*
Y18287D01*
X29055Y17185D02*
X31535D01*
X27913Y17854D02*
Y18445D01*
Y24114D02*
Y25374D01*
Y27894D02*
Y28327D01*
X18498Y25669D02*
X18695Y25374D01*
Y25669D02*
X18498Y25374D01*
X18794Y25423D02*
X18843Y25374D01*
X18941D01*
X18990Y25423D01*
Y25620D01*
X18941Y25669D01*
X18843D01*
X18794Y25620D01*
Y25571D01*
X18843Y25521D01*
X18990D01*
X18661Y25128D02*
X18612Y25177D01*
X18514D01*
X18465Y25128D01*
Y25079D01*
X18514Y25029D01*
X18612D01*
X18661Y24980D01*
Y24931D01*
X18612Y24882D01*
X18514D01*
X18465Y24931D01*
X18760Y25177D02*
X18858D01*
X18809D01*
Y24882D01*
X18760D01*
X18858D01*
X19006D02*
Y25177D01*
X19104Y25079D01*
X19203Y25177D01*
Y24882D01*
X19596D02*
Y25079D01*
X19645D01*
X19694Y25029D01*
Y24882D01*
Y25029D01*
X19744Y25079D01*
X19793Y25029D01*
Y24882D01*
X19891D02*
X19990D01*
X19940D01*
Y25079D01*
X19891D01*
X20334D02*
X20186D01*
X20137Y25029D01*
Y24931D01*
X20186Y24882D01*
X20334D01*
X20432Y25079D02*
Y24882D01*
Y24980D01*
X20482Y25029D01*
X20531Y25079D01*
X20580D01*
X20777Y24882D02*
X20875D01*
X20924Y24931D01*
Y25029D01*
X20875Y25079D01*
X20777D01*
X20728Y25029D01*
Y24931D01*
X20777Y24882D01*
X21318Y24783D02*
Y25079D01*
X21466D01*
X21515Y25029D01*
Y24931D01*
X21466Y24882D01*
X21318D01*
X21613Y25079D02*
Y24931D01*
X21662Y24882D01*
X21810D01*
Y25079D01*
X21908Y24882D02*
X22056D01*
X22105Y24931D01*
X22056Y24980D01*
X21958D01*
X21908Y25029D01*
X21958Y25079D01*
X22105D01*
X22204Y25177D02*
Y24882D01*
Y25029D01*
X22253Y25079D01*
X22351D01*
X22400Y25029D01*
Y24882D01*
X22499Y25029D02*
X22695D01*
X22794Y24783D02*
Y25079D01*
X22941D01*
X22991Y25029D01*
Y24931D01*
X22941Y24882D01*
X22794D01*
X23089Y25079D02*
Y24931D01*
X23138Y24882D01*
X23286D01*
Y25079D01*
X23384Y24882D02*
X23532D01*
X23581Y24931D01*
X23532Y24980D01*
X23433D01*
X23384Y25029D01*
X23433Y25079D01*
X23581D01*
X23679Y25177D02*
Y24882D01*
Y25029D01*
X23729Y25079D01*
X23827D01*
X23876Y25029D01*
Y24882D01*
G54D12*
X35071Y17921D02*
X35211D01*
X37479Y17121D02*
X37729Y17121D01*
X36574Y17121D02*
X36824Y17121D01*
X38229Y17121D02*
X38489Y17121D01*
X38949Y17121D02*
X39199D01*
X40676D02*
X40899D01*
X33851Y18721D02*
X34261D01*
X34601Y17121D02*
X35121Y17121D01*
X35203Y17078D02*
X35246Y17121D01*
X35454D01*
X35674D02*
X35924Y17121D01*
X35994Y17121D02*
X36234Y17121D01*
X36314Y17121D02*
X36554D01*
X37224Y17121D02*
X37438Y17121D01*
X37225D02*
X37438D01*
X36851Y17121D02*
X37101Y17121D01*
X37919Y17121D02*
X38169D01*
X38509D02*
X38809D01*
X39289D02*
X39539D01*
X39559D02*
X39869D01*
X39999D02*
X40259Y17121D01*
X40326Y17121D02*
X40563Y17121D01*
X40919Y17121D02*
X41169D01*
X41239Y17121D02*
X41469Y17121D01*
X41559D02*
X42119Y17121D01*
X33341Y20321D02*
X33421Y20321D01*
X33311Y19521D02*
X33521D01*
X33861D02*
X34091Y19521D01*
X34381D02*
X34581Y19521D01*
X38589Y16961D02*
X39179D01*
X38589Y16951D02*
X39179D01*
X38609Y16941D02*
X39159Y16941D01*
X38619Y16931D02*
X39159Y16931D01*
X38629Y16921D02*
X39159Y16921D01*
X38629Y16911D02*
X39159D01*
X38642Y16901D02*
X39159Y16901D01*
X38643Y16891D02*
X39159D01*
X38640Y16881D02*
X39169Y16881D01*
X38629Y16871D02*
X39179D01*
X38629Y16861D02*
X39479D01*
X38619Y16851D02*
X39479Y16851D01*
X37879Y16821D02*
X38899Y16821D01*
X37879Y16811D02*
X38899D01*
X37879Y16801D02*
X38889Y16801D01*
X37879Y16791D02*
X38889Y16791D01*
X41479Y16781D02*
X42189Y16781D01*
X41479Y16771D02*
X42189D01*
X41479Y16761D02*
X42169D01*
X41479Y16751D02*
X42169D01*
X41459Y16741D02*
X42189D01*
X41459Y16731D02*
X42179D01*
X37499Y17251D02*
X38959D01*
X37499Y17241D02*
X38959D01*
X37489Y17231D02*
X38959D01*
X37489Y17221D02*
X38959D01*
X37489Y17211D02*
X38949D01*
X38269Y17201D02*
X38769D01*
X38269Y17191D02*
X38769Y17191D01*
X38269Y17181D02*
X38769Y17181D01*
X38269Y17171D02*
X38769Y17171D01*
X38259Y17161D02*
X38769D01*
X38259Y17151D02*
X38789Y17151D01*
X38269Y17141D02*
X38789Y17141D01*
X38249Y17131D02*
X38809Y17131D01*
X40939Y17231D02*
X42269D01*
X40939Y17221D02*
X42269D01*
X40939Y17211D02*
X42269D01*
X34801Y19011D02*
X35661Y19011D01*
X34811Y19001D02*
X35661Y19001D01*
X34821Y18991D02*
X35661D01*
X34821Y18981D02*
X35661D01*
X34821Y18971D02*
X35641Y18971D01*
X34831Y18961D02*
X35631Y18961D01*
X34851Y18951D02*
X35541D01*
X34861Y18941D02*
X35531D01*
X34974Y16661D02*
X35214Y16901D01*
X34601Y17111D02*
X35451Y17111D01*
X34601Y17101D02*
X35451D01*
X34864Y17091D02*
X35454D01*
X34864Y17081D02*
X35454D01*
X34864Y17071D02*
X35454D01*
X34601Y17061D02*
X35431Y17061D01*
X34591Y17051D02*
X35431Y17051D01*
X34581Y17041D02*
X35431D01*
X34581Y17031D02*
X35431Y17031D01*
X34581Y17021D02*
X35431Y17021D01*
X34844Y17011D02*
X35434D01*
X34844Y17001D02*
X35434D01*
X34844Y16991D02*
X35424D01*
X34581Y16981D02*
X35411Y16981D01*
X34581Y16971D02*
X35411D01*
X34581Y16961D02*
X35411Y16961D01*
X34581Y16951D02*
X35411D01*
X34561Y16941D02*
X35411D01*
X35134Y16851D02*
X35394D01*
X34824Y16841D02*
X35394D01*
X34824Y16831D02*
X35384Y16831D01*
X34824Y16821D02*
X35374Y16821D01*
X34824Y16811D02*
X35374D01*
X34844Y16801D02*
X35374Y16801D01*
X34844Y16791D02*
X35374Y16791D01*
X34844Y16781D02*
X35354Y16781D01*
X34844Y16771D02*
X35354D01*
X34844Y16761D02*
X35344D01*
X34854Y16751D02*
X35344Y16751D01*
X34864Y16741D02*
X35344Y16741D01*
X34874Y16731D02*
X35324D01*
X34884Y16721D02*
X35304Y16721D01*
X34894Y16711D02*
X35294D01*
X34914Y16701D02*
X35284Y16701D01*
X34914Y16691D02*
X35274D01*
X34934Y16681D02*
X35244D01*
X34944Y16671D02*
X35234Y16671D01*
X34984Y16661D02*
X35194Y16661D01*
X35004Y16651D02*
X35174D01*
X37470Y17111D02*
X37720D01*
X36574D02*
X36824Y17111D01*
X38229Y17111D02*
X38489Y17111D01*
X36574Y17101D02*
X36814D01*
X37459Y17101D02*
X37709Y17101D01*
X38229D02*
X38489Y17101D01*
X36574Y17091D02*
X36814D01*
X37459D02*
X37709Y17091D01*
X38239Y17091D02*
X38489D01*
X36574Y17081D02*
X36814Y17081D01*
X37459D02*
X37709Y17081D01*
X38239Y17081D02*
X38489Y17081D01*
X36574Y17071D02*
X36814D01*
X37459Y17071D02*
X37709Y17071D01*
X38239Y17071D02*
X38489Y17071D01*
X36574Y17061D02*
X36814D01*
X37459D02*
X37709D01*
X38239D02*
X38489D01*
X36564Y17051D02*
X36814Y17051D01*
X37449Y17051D02*
X37709Y17051D01*
X38239Y17051D02*
X38489Y17051D01*
X36554Y17041D02*
X36804Y17041D01*
X37439Y17041D02*
X37709Y17041D01*
X38249Y17041D02*
X38479Y17041D01*
X36554Y17031D02*
X36804D01*
X37439D02*
X37709D01*
X38239D02*
X38479D01*
X36554Y17021D02*
X36804D01*
X37439D02*
X37689Y17021D01*
X38229Y17021D02*
X38479Y17021D01*
X36554Y17011D02*
X36804D01*
X37439D02*
X37689Y17011D01*
X38229Y17011D02*
X38479Y17011D01*
X36554Y17001D02*
X36794D01*
X37439Y17001D02*
X37689Y17001D01*
X38229Y17001D02*
X38469D01*
X36554Y16991D02*
X36794D01*
X37439D02*
X37699D01*
X38229Y16991D02*
X38469Y16991D01*
X36554Y16981D02*
X36794D01*
X37439D02*
X37699D01*
X38219Y16981D02*
X38469Y16981D01*
X36554Y16971D02*
X36794Y16971D01*
X37439Y16971D02*
X37689Y16971D01*
X38219D02*
X38469Y16971D01*
X36554Y16961D02*
X36784D01*
X37439Y16961D02*
X37689Y16961D01*
X38219Y16961D02*
X38469Y16961D01*
X36544Y16951D02*
X36784Y16951D01*
X37439D02*
X37689D01*
X38219D02*
X38469D01*
X36534Y16941D02*
X36784Y16941D01*
X37419D02*
X37689Y16941D01*
X38209D02*
X38459Y16941D01*
X36534Y16931D02*
X36784D01*
X37419Y16931D02*
X37689Y16931D01*
X38209Y16931D02*
X38449Y16931D01*
X36534Y16921D02*
X36774Y16921D01*
X37419Y16921D02*
X37669D01*
X38209Y16921D02*
X38449Y16921D01*
X36534Y16911D02*
X36774D01*
X37419Y16911D02*
X37669D01*
X38209Y16911D02*
X38449Y16911D01*
X36534Y16901D02*
X36774D01*
X37429D02*
X37669Y16901D01*
X38209Y16901D02*
X38489Y16901D01*
X36534Y16891D02*
X36774D01*
X37429D02*
X37669Y16891D01*
X38209Y16891D02*
X38499D01*
X36534Y16881D02*
X36774Y16881D01*
X37419Y16881D02*
X37669D01*
X38209D02*
X38509D01*
X36524Y16871D02*
X36774D01*
X37419D02*
X37669D01*
X38199D02*
X38519Y16871D01*
X35934Y16861D02*
X36174Y16861D01*
X36514Y16861D02*
X36764Y16861D01*
X37419Y16861D02*
X37669D01*
X38189D02*
X38529Y16861D01*
X35934Y16851D02*
X36174D01*
X36514Y16851D02*
X36764Y16851D01*
X37419Y16851D02*
X37669D01*
X38189Y16851D02*
X38539Y16851D01*
X35934Y16841D02*
X36174D01*
X36514D02*
X36764D01*
X37149D02*
X37669D01*
X38169D02*
X38549D01*
X35934Y16831D02*
X36174Y16831D01*
X36514D02*
X36764D01*
X37139D02*
X37669D01*
X38159D02*
X38559D01*
X35934Y16821D02*
X36154Y16821D01*
X36514Y16821D02*
X36764Y16821D01*
X37399Y16821D02*
X37649Y16821D01*
X35934Y16811D02*
X36164D01*
X36514D02*
X36754D01*
X37399D02*
X37649D01*
X35934Y16801D02*
X36164D01*
X36514D02*
X36764D01*
X37399D02*
X37649D01*
X35934Y16791D02*
X36154D01*
X36514D02*
X36764D01*
X37399D02*
X37649D01*
X35934Y16781D02*
X36154Y16781D01*
X36514Y16781D02*
X36764D01*
X37399D02*
X37649D01*
X37889D02*
X38409Y16781D01*
X35924Y16771D02*
X36154Y16771D01*
X36504Y16771D02*
X36754Y16771D01*
X37399D02*
X37649D01*
X37889D02*
X38409Y16771D01*
X35914Y16761D02*
X36144Y16761D01*
X36494Y16761D02*
X36744Y16761D01*
X37399Y16761D02*
X37649D01*
X37899D02*
X38389D01*
X35914Y16751D02*
X36144Y16751D01*
X36494Y16751D02*
X36744Y16751D01*
X37369D02*
X37649Y16751D01*
X37899D02*
X38389D01*
X35914Y16741D02*
X36134D01*
X36494D02*
X36744Y16741D01*
X37369Y16741D02*
X37649Y16741D01*
X37899Y16741D02*
X38389Y16741D01*
X35914Y16731D02*
X36134D01*
X36494D02*
X36744D01*
X37369D02*
X37649D01*
X37899D02*
X38389D01*
X35914Y16721D02*
X36134Y16721D01*
X36494Y16721D02*
X36744D01*
X37379D02*
X37629Y16721D01*
X37929D02*
X38369D01*
X35914Y16711D02*
X36144Y16711D01*
X36494Y16711D02*
X36744D01*
X37379D02*
X37629D01*
X37929Y16711D02*
X38369D01*
X35904Y16701D02*
X36144D01*
X36494D02*
X36744D01*
X37379Y16701D02*
X37629D01*
X37949Y16701D02*
X38349D01*
X35904Y16691D02*
X36134Y16691D01*
X36484Y16691D02*
X36734D01*
X37379D02*
X37629Y16691D01*
X37949Y16691D02*
X38349D01*
X35874Y16681D02*
X36134Y16681D01*
X37379Y16681D02*
X37629D01*
X35874Y16671D02*
X36134D01*
X37379D02*
X37629D01*
X35874Y16661D02*
X36134D01*
X37379D02*
X37629D01*
X35874Y16651D02*
X36134D01*
X37379D02*
X37629D01*
X38857Y16511D02*
X39349D01*
X38949Y17111D02*
X39199Y17111D01*
X40665Y17111D02*
X40899D01*
X38949Y17101D02*
X39199Y17101D01*
X40659D02*
X40899D01*
X38949Y17091D02*
X39199Y17091D01*
X40319Y17091D02*
X40899D01*
X38949Y17081D02*
X39199Y17081D01*
X40309D02*
X40889D01*
X38949Y17071D02*
X39199Y17071D01*
X40309D02*
X40889D01*
X38949Y17061D02*
X39199D01*
X40319D02*
X40889D01*
X38939Y17051D02*
X39199Y17051D01*
X39593Y17051D02*
X39931D01*
X40299D02*
X40889D01*
X38929Y17041D02*
X39179D01*
X39600D02*
X39944D01*
X40299D02*
X40889D01*
X38929Y17031D02*
X39179D01*
X39599Y17031D02*
X39949Y17031D01*
X40299D02*
X40889D01*
X41529Y17031D02*
X41789Y17031D01*
X38929Y17021D02*
X39179D01*
X39609D02*
X39939D01*
X40299D02*
X40879Y17021D01*
X41519Y17021D02*
X41789Y17021D01*
X38929Y17011D02*
X39179D01*
X39619D02*
X39949D01*
X40299Y17011D02*
X40879D01*
X41519Y17011D02*
X41789Y17011D01*
X38929Y17001D02*
X39179Y17001D01*
X39624D02*
X39959Y17001D01*
X40299D02*
X40879Y17001D01*
X41519D02*
X41769D01*
X38929Y16991D02*
X39179D01*
X39634D02*
X39959D01*
X40299Y16991D02*
X40879Y16991D01*
X41519D02*
X41769Y16991D01*
X38929Y16981D02*
X39179D01*
X39639D02*
X39959Y16981D01*
X40289Y16981D02*
X40869Y16981D01*
X41519Y16981D02*
X41769Y16981D01*
X38919Y16971D02*
X39179Y16971D01*
X39639Y16971D02*
X39959Y16971D01*
X40289Y16971D02*
X40869D01*
X41519D02*
X41769D01*
X39649Y16961D02*
X39959Y16961D01*
X40299Y16961D02*
X40869Y16961D01*
X41519Y16961D02*
X41769D01*
X39659Y16951D02*
X39959D01*
X40289D02*
X40869D01*
X41519D02*
X41769D01*
X39669Y16941D02*
X40219Y16941D01*
X40279Y16941D02*
X40859Y16941D01*
X41519Y16941D02*
X41769D01*
X39669Y16931D02*
X40219D01*
X40279D02*
X40859Y16931D01*
X41519Y16931D02*
X41769D01*
X39669Y16921D02*
X40199Y16921D01*
X41499Y16921D02*
X41749Y16921D01*
X39669Y16911D02*
X40199D01*
X41499Y16911D02*
X41789Y16911D01*
X39689Y16901D02*
X40209Y16901D01*
X41499Y16901D02*
X41809Y16901D01*
X39699Y16891D02*
X40199Y16891D01*
X41499Y16891D02*
X41749Y16891D01*
X39699Y16881D02*
X40199Y16881D01*
X40619Y16881D02*
X40849D01*
X41499D02*
X41819Y16881D01*
X39699Y16871D02*
X40199Y16871D01*
X40609Y16871D02*
X40849Y16871D01*
X41499D02*
X41829Y16871D01*
X39699Y16861D02*
X40199Y16861D01*
X40599Y16861D02*
X40849D01*
X41499D02*
X41849Y16861D01*
X39689Y16851D02*
X40199Y16851D01*
X40599Y16851D02*
X40849D01*
X41499D02*
X41849D01*
X38909Y16841D02*
X39479D01*
X39679D02*
X40199D01*
X40579D02*
X40839D01*
X41499D02*
X41869Y16841D01*
X38909Y16831D02*
X39479D01*
X39649D02*
X40199D01*
X40569Y16831D02*
X40839D01*
X41499Y16831D02*
X41879D01*
X38909Y16821D02*
X39479Y16821D01*
X39489Y16821D02*
X40199D01*
X40269D02*
X40829Y16821D01*
X41479Y16821D02*
X41729Y16821D01*
X38909Y16811D02*
X39479Y16811D01*
X39489Y16811D02*
X40259Y16811D01*
X40269D02*
X40819Y16811D01*
X41479D02*
X41729Y16811D01*
X38909Y16801D02*
X39459D01*
X39479Y16801D02*
X40259Y16801D01*
X40299Y16801D02*
X40819D01*
X41479D02*
X41729D01*
X38909Y16791D02*
X39459D01*
X39469Y16791D02*
X40259Y16791D01*
X40299D02*
X40819Y16791D01*
X41479Y16791D02*
X41729D01*
X38909Y16781D02*
X39459D01*
X39469D02*
X40269Y16781D01*
X40299Y16781D02*
X40819Y16781D01*
X38909Y16771D02*
X39459D01*
X39479Y16771D02*
X40253Y16771D01*
X40299D02*
X40819D01*
X38929Y16761D02*
X39459D01*
X40312Y16761D02*
X40809D01*
X38929Y16751D02*
X39459D01*
X40314Y16751D02*
X40799Y16751D01*
X38941Y16741D02*
X39459Y16741D01*
X40319D02*
X40789D01*
X38950Y16731D02*
X39459Y16731D01*
X40319Y16731D02*
X40799D01*
X38949Y16721D02*
X39439Y16721D01*
X40339Y16721D02*
X40769Y16721D01*
X41459Y16721D02*
X41709Y16721D01*
X38959Y16711D02*
X39439Y16711D01*
X40339Y16711D02*
X40759Y16711D01*
X41459D02*
X41709D01*
X38989Y16701D02*
X39179Y16701D01*
X40339Y16701D02*
X40749Y16701D01*
X41459Y16701D02*
X41709Y16701D01*
X38989Y16691D02*
X39169D01*
X40339D02*
X40739Y16691D01*
X41459Y16691D02*
X41709D01*
X39049Y16681D02*
X39139Y16681D01*
X41459D02*
X41709D01*
X41459Y16671D02*
X41709D01*
X41459Y16661D02*
X41709Y16661D01*
X41459Y16651D02*
X41709Y16651D01*
X39099Y16621D02*
X39419D01*
X38850Y16611D02*
X39419D01*
X38848Y16601D02*
X39399Y16601D01*
X38850Y16591D02*
X39399Y16591D01*
X38850Y16581D02*
X39399Y16581D01*
X38853Y16571D02*
X39399Y16571D01*
X38853Y16561D02*
X39379D01*
X38851Y16551D02*
X39379Y16551D01*
X38858Y16541D02*
X39379Y16541D01*
X38856Y16531D02*
X39379Y16531D01*
X38860Y16521D02*
X39349Y16521D01*
X38859Y16501D02*
X39319D01*
X38862Y16491D02*
X39309Y16491D01*
X38862Y16481D02*
X39299Y16481D01*
X38869Y16471D02*
X39289D01*
X38909Y16461D02*
X39239Y16461D01*
X38909Y16451D02*
X39229Y16451D01*
X39009Y16441D02*
X39159D01*
X39019Y16431D02*
X39149D01*
X34894Y17231D02*
X35454D01*
X35081Y17911D02*
X35211D01*
X35081Y17901D02*
X35221D01*
X35081Y17891D02*
X35231D01*
X35091Y17881D02*
X35231Y17881D01*
X35111Y17871D02*
X35241D01*
X35111Y17861D02*
X35251D01*
X35131Y17851D02*
X35261Y17851D01*
X35124Y17431D02*
X35274D01*
X35114Y17421D02*
X35284Y17421D01*
X35064Y17411D02*
X35334D01*
X35054Y17401D02*
X35344D01*
X35014Y17391D02*
X35374Y17391D01*
X35004Y17381D02*
X35384Y17381D01*
X34141Y17371D02*
X34821D01*
X34984Y17371D02*
X35394Y17371D01*
X34131Y17361D02*
X34831D01*
X34974D02*
X35404D01*
X34111Y17351D02*
X34831D01*
X34964D02*
X35414D01*
X34101Y17341D02*
X34841D01*
X34954D02*
X35434Y17341D01*
X34041Y17331D02*
X34841Y17331D01*
X34944Y17331D02*
X35434D01*
X34011Y17321D02*
X34851D01*
X34934D02*
X35434D01*
X34001Y17311D02*
X34851D01*
X34924Y17311D02*
X35434Y17311D01*
X34001Y17301D02*
X34851Y17301D01*
X34924Y17301D02*
X35454D01*
X34001Y17291D02*
X34861Y17291D01*
X34914Y17291D02*
X35454Y17291D01*
X34001Y17281D02*
X34861D01*
X34904D02*
X35454Y17281D01*
X34001Y17271D02*
X34871D01*
X34904D02*
X35454Y17271D01*
X34001Y17261D02*
X34871D01*
X34904D02*
X35454D01*
X34001Y17251D02*
X34871D01*
X34894D02*
X35454D01*
X34001Y17241D02*
X34871Y17241D01*
X34894D02*
X35454D01*
X34001Y17231D02*
X34871D01*
X34884Y17221D02*
X35164Y17221D01*
X34884Y17211D02*
X35154D01*
X34884Y17201D02*
X35144D01*
X34884Y17191D02*
X35144Y17191D01*
X34884Y17181D02*
X35134D01*
X34884Y17171D02*
X35134D01*
X34621Y17161D02*
X35131Y17161D01*
X34611Y17151D02*
X35131Y17151D01*
X34601Y17141D02*
X35131D01*
X37479Y17131D02*
X37729Y17131D01*
X36734Y17591D02*
X36864Y17591D01*
X36724Y17581D02*
X36874D01*
X36684Y17571D02*
X36894D01*
X36684Y17561D02*
X36894Y17561D01*
X36664Y17551D02*
X36914Y17551D01*
X36654Y17541D02*
X36914D01*
X36654Y17531D02*
X36914Y17531D01*
X36654Y17521D02*
X36924Y17521D01*
X36654Y17511D02*
X36924D01*
X36654Y17501D02*
X36924Y17501D01*
X36644Y17491D02*
X36924D01*
X36634Y17481D02*
X36914D01*
X36634Y17471D02*
X36914Y17471D01*
X36634Y17461D02*
X36914D01*
X36644Y17451D02*
X36914Y17451D01*
X36654Y17441D02*
X36894D01*
X36654Y17431D02*
X36894D01*
X36674Y17421D02*
X36874D01*
X36674Y17411D02*
X36874Y17411D01*
X38179Y17411D02*
X38339D01*
X36684Y17401D02*
X36844D01*
X38169Y17401D02*
X38349Y17401D01*
X35904Y17391D02*
X36114Y17391D01*
X36694Y17391D02*
X36834D01*
X38099Y17391D02*
X38399D01*
X35894Y17381D02*
X36134D01*
X36724D02*
X36794Y17381D01*
X38089Y17381D02*
X38409D01*
X35864Y17371D02*
X36164D01*
X36634Y17371D02*
X36894Y17371D01*
X38049D02*
X38419Y17371D01*
X35854Y17361D02*
X36494D01*
X36634D02*
X36884D01*
X38049D02*
X38429D01*
X35814Y17351D02*
X36514Y17351D01*
X36634D02*
X36884Y17351D01*
X38039D02*
X38439D01*
X35814Y17341D02*
X36514Y17341D01*
X36634D02*
X36874D01*
X38029D02*
X38449D01*
X35804Y17331D02*
X36524D01*
X36614Y17331D02*
X36874Y17331D01*
X37609Y17331D02*
X38469D01*
X35794Y17321D02*
X36534D01*
X36614Y17321D02*
X36864Y17321D01*
X37999D02*
X38469D01*
X35704Y17311D02*
X36534Y17311D01*
X36614D02*
X36864Y17311D01*
X37499D02*
X38499Y17311D01*
X35694Y17301D02*
X36544Y17301D01*
X36614Y17301D02*
X36864D01*
X37489D02*
X38499Y17301D01*
X35694Y17291D02*
X36554Y17291D01*
X36614Y17291D02*
X36864D01*
X37489D02*
X38499Y17291D01*
X35694Y17281D02*
X36554Y17281D01*
X36614D02*
X36864Y17281D01*
X37489D02*
X38499Y17281D01*
X35704Y17271D02*
X36554D01*
X36614D02*
X36864Y17271D01*
X37499D02*
X38499Y17271D01*
X35704Y17261D02*
X36554D01*
X36614Y17261D02*
X36864D01*
X37499D02*
X38489Y17261D01*
X35694Y17251D02*
X36554Y17251D01*
X36614Y17251D02*
X36854Y17251D01*
X35694Y17241D02*
X36554D01*
X36614D02*
X36854D01*
X35694Y17231D02*
X36554Y17231D01*
X36604Y17231D02*
X36854D01*
X35694Y17221D02*
X36554Y17221D01*
X36594Y17221D02*
X36844Y17221D01*
X35694Y17211D02*
X36554D01*
X36594D02*
X36844D01*
X35694Y17201D02*
X35954D01*
X36594Y17201D02*
X36834Y17201D01*
X37489D02*
X38209D01*
X35694Y17191D02*
X35954D01*
X36594Y17191D02*
X36834Y17191D01*
X37489Y17191D02*
X38209Y17191D01*
X35684Y17181D02*
X35934Y17181D01*
X36594D02*
X36834D01*
X37489Y17181D02*
X37739Y17181D01*
X35684Y17171D02*
X35934Y17171D01*
X36594D02*
X36834D01*
X37489Y17171D02*
X37739Y17171D01*
X35684Y17161D02*
X35934Y17161D01*
X36594D02*
X36834D01*
X37479Y17161D02*
X37729Y17161D01*
X35674Y17151D02*
X35934Y17151D01*
X36594Y17151D02*
X36834Y17151D01*
X37479Y17151D02*
X37729Y17151D01*
X36594Y17141D02*
X36824Y17141D01*
X37479Y17141D02*
X37729Y17141D01*
X36584Y17131D02*
X36824D01*
X40569Y17411D02*
X40739D01*
X41529Y17411D02*
X41659Y17411D01*
X40559Y17401D02*
X40739Y17401D01*
X41529D02*
X41669D01*
X39009Y17391D02*
X39255Y17391D01*
X39719Y17391D02*
X40049D01*
X40489D02*
X40799Y17391D01*
X41449Y17391D02*
X41719Y17391D01*
X39009Y17381D02*
X39259D01*
X39719D02*
X40039D01*
X40479D02*
X40799Y17381D01*
X41449Y17381D02*
X41729Y17381D01*
X39009Y17371D02*
X39259Y17371D01*
X39659D02*
X40039Y17371D01*
X40469Y17371D02*
X40839Y17371D01*
X41409Y17371D02*
X41739Y17371D01*
X39009Y17361D02*
X39259D01*
X39659D02*
X40039D01*
X40459D02*
X40839D01*
X41099D02*
X41749D01*
X39009Y17351D02*
X39259D01*
X39619Y17351D02*
X40039Y17351D01*
X40429D02*
X40859D01*
X41069D02*
X41757D01*
X39009Y17341D02*
X39259Y17341D01*
X39619Y17341D02*
X40039Y17341D01*
X40419Y17341D02*
X40859Y17341D01*
X41069Y17341D02*
X41759Y17341D01*
X38999Y17331D02*
X39256D01*
X39589D02*
X40039D01*
X40399Y17331D02*
X40879Y17331D01*
X41049Y17331D02*
X41769Y17331D01*
X38989Y17321D02*
X39255D01*
X39589D02*
X40039Y17321D01*
X40399Y17321D02*
X40879Y17321D01*
X41039Y17321D02*
X41769D01*
X38989Y17311D02*
X39249Y17311D01*
X39589Y17311D02*
X40369D01*
X40379D02*
X40879Y17311D01*
X40959Y17311D02*
X41789D01*
X38989Y17301D02*
X39239D01*
X39589D02*
X40019D01*
X40379D02*
X40889Y17301D01*
X40959Y17301D02*
X41789D01*
X38989Y17291D02*
X39239D01*
X39319Y17291D02*
X40019Y17291D01*
X40379D02*
X40899D01*
X40939Y17291D02*
X41789Y17291D01*
X38989Y17281D02*
X39239D01*
X39309D02*
X40019D01*
X40379D02*
X40899D01*
X40939D02*
X41789D01*
X38989Y17271D02*
X39239Y17271D01*
X39579Y17271D02*
X40019Y17271D01*
X40039D02*
X40909D01*
X40939D02*
X41809D01*
X38989Y17261D02*
X39239D01*
X39569Y17261D02*
X40019D01*
X40359Y17261D02*
X40909Y17261D01*
X40939D02*
X41809D01*
X38989Y17251D02*
X39239Y17251D01*
X39569Y17251D02*
X40019D01*
X40359D02*
X40909D01*
X40939D02*
X41809D01*
X38989Y17241D02*
X39239D01*
X39309D02*
X40019D01*
X40359D02*
X40909D01*
X40939Y17241D02*
X41809Y17241D01*
X38969Y17231D02*
X39229Y17231D01*
X39309Y17231D02*
X40019D01*
X40359Y17231D02*
X40909Y17231D01*
X38969Y17221D02*
X39219Y17221D01*
X39309Y17221D02*
X40019Y17221D01*
X40359Y17221D02*
X40909Y17221D01*
X38969Y17211D02*
X39219D01*
X39309D02*
X40909Y17211D01*
X38969Y17201D02*
X39219D01*
X40659Y17201D02*
X40909Y17201D01*
X38969Y17191D02*
X39219Y17191D01*
X40669D02*
X40909Y17191D01*
X38969Y17181D02*
X39219D01*
X40679D02*
X40909D01*
X38969Y17171D02*
X39219D01*
X40679D02*
X40909D01*
X38969Y17161D02*
X39219Y17161D01*
X40679D02*
X40909D01*
X38959Y17151D02*
X39219Y17151D01*
X40682Y17151D02*
X40899Y17151D01*
X38949Y17141D02*
X39219Y17141D01*
X40677D02*
X40899Y17141D01*
X38949Y17131D02*
X39219Y17131D01*
X40679D02*
X40899Y17131D01*
X34201Y18611D02*
X34341D01*
X34211Y18601D02*
X34351Y18601D01*
X34231Y18591D02*
X34361Y18591D01*
X34231Y18581D02*
X34371D01*
X34251Y18571D02*
X34381D01*
X34251Y18561D02*
X34381D01*
X34261Y18551D02*
X34381Y18551D01*
X34261Y18541D02*
X34391D01*
X34271Y18531D02*
X34401Y18531D01*
X35061Y18531D02*
X35131Y18531D01*
X34281Y18521D02*
X34401Y18521D01*
X35061D02*
X35141Y18521D01*
X34281Y18511D02*
X34421D01*
X35061Y18511D02*
X35181Y18511D01*
X34291Y18501D02*
X34421Y18501D01*
X35061D02*
X35191D01*
X34301Y18491D02*
X34431D01*
X35081D02*
X35211D01*
X34301Y18481D02*
X34441D01*
X35081Y18481D02*
X35221D01*
X34301Y18471D02*
X34461Y18471D01*
X35101D02*
X35251D01*
X34311Y18461D02*
X34461D01*
X35111D02*
X35261D01*
X34321Y18451D02*
X34461D01*
X35121Y18451D02*
X35281D01*
X34321Y18441D02*
X34471Y18441D01*
X35131Y18441D02*
X35291Y18441D01*
X34321Y18431D02*
X34481D01*
X34321Y18421D02*
X34491D01*
X34321Y18411D02*
X34501Y18411D01*
X34321Y18401D02*
X34501Y18401D01*
X34981Y18031D02*
X35141Y18031D01*
X34991Y18021D02*
X35141D01*
X35001Y18011D02*
X35141Y18011D01*
X35011Y18001D02*
X35151D01*
X35021Y17991D02*
X35161D01*
X35021Y17981D02*
X35171D01*
X35031Y17971D02*
X35181D01*
X35031Y17961D02*
X35181D01*
X35041Y17951D02*
X35191D01*
X35051Y17941D02*
X35191D01*
X35061Y17931D02*
X35201D01*
X35821Y18031D02*
X35941Y18031D01*
X35831Y18021D02*
X35951D01*
X35861Y18011D02*
X35971Y18011D01*
X35871Y18001D02*
X35971Y18001D01*
X35901Y17991D02*
X35991Y17991D01*
X35911Y17981D02*
X35991Y17981D01*
X35931Y17971D02*
X35991Y17971D01*
X33341Y19511D02*
X33531D01*
X33351Y19501D02*
X33561Y19501D01*
X33371Y19491D02*
X33571Y19491D01*
X33381Y19481D02*
X33601Y19481D01*
X33401Y19471D02*
X33611Y19471D01*
X33411Y19461D02*
X33641D01*
X33431Y19451D02*
X33651Y19451D01*
X33431Y19441D02*
X33681Y19441D01*
X33461Y19431D02*
X33691Y19431D01*
X34331D02*
X34601Y19431D01*
X33471Y19421D02*
X33721D01*
X34311D02*
X34601Y19421D01*
X33491Y19411D02*
X33731Y19411D01*
X34311Y19411D02*
X34601D01*
X33491Y19401D02*
X33761Y19401D01*
X34281Y19401D02*
X34621Y19401D01*
X33521Y19391D02*
X33771D01*
X34271D02*
X34621D01*
X33531Y19381D02*
X33801D01*
X33921D02*
X34621D01*
X33921Y19371D02*
X34621D01*
X33551Y19361D02*
X34621Y19361D01*
X33581Y19351D02*
X34621D01*
X33591Y19341D02*
X34621D01*
X33601Y19331D02*
X34631D01*
X33611Y19321D02*
X34641D01*
X33621Y19311D02*
X34641Y19311D01*
X33631Y19301D02*
X34641D01*
X33661Y19291D02*
X34651Y19291D01*
X33661Y19281D02*
X34651Y19281D01*
X34761Y19041D02*
X35231Y19041D01*
X34781Y19031D02*
X35381D01*
X34791Y19021D02*
X35521Y19021D01*
X34871Y18931D02*
X35481D01*
X34881Y18921D02*
X35471D01*
X34891Y18911D02*
X35421Y18911D01*
X34901Y18901D02*
X35411Y18901D01*
X34901Y18891D02*
X35341D01*
X34911Y18881D02*
X35331D01*
X34931Y18871D02*
X35281D01*
X34931Y18861D02*
X35271D01*
X34951Y18851D02*
X35221D01*
X33531Y18841D02*
X34171D01*
X34961Y18841D02*
X35211Y18841D01*
X33431Y18831D02*
X34181Y18831D01*
X34971D02*
X35141D01*
X33421Y18821D02*
X34181Y18821D01*
X34981Y18821D02*
X35131D01*
X33311Y18811D02*
X34201D01*
X33301Y18801D02*
X34201D01*
X33281Y18791D02*
X34201D01*
X33281Y18781D02*
X34211D01*
X33281Y18771D02*
X34221D01*
X33281Y18761D02*
X34221D01*
X33521Y18751D02*
X34231D01*
X33531Y18741D02*
X34241D01*
X33441Y20181D02*
X33531Y20181D01*
X33441Y20171D02*
X33541D01*
X33441Y20161D02*
X33551D01*
X33441Y20151D02*
X33561D01*
X33461Y20141D02*
X33561D01*
X33461Y20131D02*
X33571D01*
X33471Y20121D02*
X33591D01*
X33471Y20111D02*
X33591D01*
X33481Y20101D02*
X33611Y20101D01*
X33481Y20091D02*
X33621D01*
X33501Y20081D02*
X33621Y20081D01*
X33501Y20071D02*
X33621Y20071D01*
X33511Y20061D02*
X33631D01*
X33511Y20051D02*
X33641D01*
X33521Y20041D02*
X33651D01*
X33521Y20031D02*
X33661D01*
X34824Y16931D02*
X35074D01*
X34562Y16931D02*
X34793D01*
X34601Y17091D02*
X34851Y17091D01*
X34601Y17081D02*
X34841D01*
X34601Y17071D02*
X34841Y17071D01*
X34581Y17011D02*
X34831Y17011D01*
X34581Y17001D02*
X34831D01*
X34581Y16991D02*
X34821D01*
X34561Y16921D02*
X35071Y16921D01*
X34561Y16911D02*
X35071D01*
X34561Y16901D02*
X34801Y16901D01*
X34824D02*
X35074D01*
X34561Y16891D02*
X34801Y16891D01*
X34824D02*
X35074D01*
X34561Y16881D02*
X34801D01*
X34824D02*
X35074D01*
X34561Y16871D02*
X34801D01*
X34824D02*
X35074Y16871D01*
X34541Y16861D02*
X34801Y16861D01*
X34824Y16861D02*
X35084D01*
X34541Y16851D02*
X34801Y16851D01*
X34824Y16851D02*
X35084Y16851D01*
X34541Y16841D02*
X34801Y16841D01*
X34541Y16831D02*
X34801Y16831D01*
X34541Y16821D02*
X34791Y16821D01*
X34541Y16811D02*
X34791Y16811D01*
X34541Y16801D02*
X34791D01*
X34541Y16791D02*
X34791D01*
X34541Y16781D02*
X34791D01*
X34541Y16771D02*
X34781D01*
X34521Y16761D02*
X34781D01*
X34521Y16751D02*
X34781Y16751D01*
X34521Y16741D02*
X34781D01*
X34521Y16731D02*
X34781D01*
X34511Y16721D02*
X34771Y16721D01*
X34511Y16711D02*
X34771D01*
X34511Y16701D02*
X34781Y16701D01*
X34521Y16691D02*
X34781D01*
X34521Y16681D02*
X34781Y16681D01*
X34521Y16671D02*
X34771D01*
X34964Y16661D02*
X34974Y16661D01*
X35594Y16741D02*
X35839Y16741D01*
X35674Y17111D02*
X35914D01*
X35664Y17101D02*
X35914Y17101D01*
X35664Y17091D02*
X35914Y17091D01*
X35664Y17081D02*
X35914Y17081D01*
X35654Y17071D02*
X35914Y17071D01*
X35654Y17061D02*
X35914Y17061D01*
X35654Y17051D02*
X35914Y17051D01*
X35654Y17041D02*
X35894Y17041D01*
X35654Y17031D02*
X35894Y17031D01*
X35654Y17021D02*
X35894D01*
X35654Y17011D02*
X35894D01*
X35644Y17001D02*
X35894Y17001D01*
X35644Y16991D02*
X35894Y16991D01*
X35644Y16981D02*
X35894Y16981D01*
X35644Y16971D02*
X35894Y16971D01*
X35634Y16961D02*
X35874Y16961D01*
X35634Y16951D02*
X35874D01*
X35634Y16941D02*
X35874D01*
X35634Y16931D02*
X35874Y16931D01*
X35624Y16921D02*
X35874D01*
X35624Y16911D02*
X35874Y16911D01*
X35214Y16901D02*
X35394D01*
X35624D02*
X35874Y16901D01*
X35215Y16891D02*
X35394D01*
X35624D02*
X35874Y16891D01*
X35199Y16881D02*
X35394D01*
X35614D02*
X35874Y16881D01*
X35170Y16871D02*
X35394D01*
X35614D02*
X35874D01*
X35144Y16861D02*
X35394D01*
X35614D02*
X35854Y16861D01*
X35614Y16851D02*
X35854D01*
X35614Y16841D02*
X35854D01*
X35614Y16831D02*
X35854Y16831D01*
X35604Y16821D02*
X35854Y16821D01*
X35604Y16811D02*
X35854D01*
X35604Y16801D02*
X35854Y16801D01*
X35604Y16791D02*
X35854Y16791D01*
X35594Y16781D02*
X35854Y16781D01*
X35584Y16771D02*
X35854D01*
X35584Y16761D02*
X35834D01*
X35594Y16751D02*
X35834Y16751D01*
X35594Y16731D02*
X35834Y16731D01*
X35584Y16721D02*
X35834Y16721D01*
X35584Y16711D02*
X35834D01*
X35564Y16701D02*
X35834Y16701D01*
X35554Y16691D02*
X35834Y16691D01*
X35554Y16681D02*
X35834Y16681D01*
X35554Y16671D02*
X35834Y16671D01*
X35554Y16661D02*
X35814Y16661D01*
X35554Y16651D02*
X35814D01*
X36204Y16701D02*
X36214Y16711D01*
X36144Y16761D02*
X36154Y16771D01*
X35994Y17111D02*
X36223Y17111D01*
X36314Y17111D02*
X36554D01*
X35994Y17101D02*
X36214D01*
X36314D02*
X36554Y17101D01*
X35994Y17091D02*
X36214Y17091D01*
X36304Y17091D02*
X36554D01*
X35994Y17081D02*
X36214D01*
X36294D02*
X36544Y17081D01*
X35974Y17071D02*
X36214D01*
X36294D02*
X36544Y17071D01*
X35974Y17061D02*
X36214Y17061D01*
X36294Y17061D02*
X36544D01*
X35974Y17051D02*
X36214Y17051D01*
X36294Y17051D02*
X36544D01*
X35974Y17041D02*
X36214Y17041D01*
X36294Y17041D02*
X36534Y17041D01*
X35974Y17031D02*
X36214D01*
X36294D02*
X36534D01*
X35974Y17021D02*
X36214Y17021D01*
X36294D02*
X36534D01*
X35974Y17011D02*
X36214Y17011D01*
X36284Y17011D02*
X36534Y17011D01*
X35964Y17001D02*
X36194D01*
X36274Y17001D02*
X36534Y17001D01*
X35964Y16991D02*
X36204D01*
X36274D02*
X36534D01*
X35964Y16981D02*
X36204D01*
X36274Y16981D02*
X36524Y16981D01*
X35964Y16971D02*
X36194Y16971D01*
X36274Y16971D02*
X36524Y16971D01*
X35954Y16961D02*
X36194D01*
X36274Y16961D02*
X36524D01*
X35954Y16951D02*
X36194Y16951D01*
X36274D02*
X36524D01*
X35954Y16941D02*
X36194Y16941D01*
X36274Y16941D02*
X36514Y16941D01*
X35954Y16931D02*
X36194Y16931D01*
X36264Y16931D02*
X36514Y16931D01*
X35954Y16921D02*
X36184Y16921D01*
X36274D02*
X36514D01*
X35954Y16911D02*
X36184D01*
X36264D02*
X36514D01*
X35944Y16901D02*
X36184D01*
X36254Y16901D02*
X36504Y16901D01*
X35944Y16891D02*
X36174Y16891D01*
X36254Y16891D02*
X36504D01*
X35944Y16881D02*
X36174Y16881D01*
X36254Y16881D02*
X36504D01*
X35944Y16871D02*
X36174Y16871D01*
X36254D02*
X36504Y16871D01*
X36254Y16861D02*
X36494Y16861D01*
X36254Y16851D02*
X36494D01*
X36254Y16841D02*
X36494D01*
X36244Y16831D02*
X36494D01*
X36234Y16821D02*
X36494Y16821D01*
X36234Y16811D02*
X36494D01*
X36234Y16801D02*
X36484D01*
X36234Y16791D02*
X36474D01*
X36234Y16781D02*
X36474Y16781D01*
X36234Y16771D02*
X36474D01*
X36234Y16761D02*
X36474D01*
X36234Y16751D02*
X36474D01*
X36234Y16741D02*
X36474Y16741D01*
X36221Y16731D02*
X36474Y16731D01*
X36214Y16721D02*
X36464D01*
X36214Y16711D02*
X36464Y16711D01*
X36204Y16701D02*
X36464Y16701D01*
X36204Y16691D02*
X36464D01*
X36204Y16681D02*
X36454D01*
X36474D02*
X36724Y16681D01*
X36204Y16671D02*
X36454Y16671D01*
X36464D02*
X36724D01*
X36214Y16661D02*
X36454D01*
X36464D02*
X36724D01*
X36214Y16651D02*
X36454D01*
X36474D02*
X36724D01*
X37224Y17111D02*
X37437Y17111D01*
X37213Y17091D02*
X37421Y17091D01*
X36851Y17111D02*
X37101Y17111D01*
X36851Y17101D02*
X37101D01*
X37214D02*
X37421D01*
X36851Y17091D02*
X37101Y17091D01*
X36851Y17081D02*
X37101D01*
X36851Y17071D02*
X37101D01*
X36851Y17061D02*
X37101D01*
X36841Y17051D02*
X37101D01*
X36831Y17041D02*
X37081Y17041D01*
X36831Y17031D02*
X37081Y17031D01*
X36831Y17021D02*
X37081D01*
X36831Y17011D02*
X37081D01*
X36831Y17001D02*
X37081Y17001D01*
X36831Y16991D02*
X37081D01*
X36831Y16981D02*
X37081D01*
X36831Y16971D02*
X37081D01*
X36831Y16961D02*
X37081Y16961D01*
X36821Y16951D02*
X37081D01*
X36811Y16941D02*
X37061Y16941D01*
X36811Y16931D02*
X37061D01*
X36811Y16921D02*
X37061Y16921D01*
X37151Y16921D02*
X37381Y16921D01*
X36811Y16911D02*
X37061Y16911D01*
X37141D02*
X37381D01*
X36811Y16901D02*
X37061Y16901D01*
X37131Y16901D02*
X37381Y16901D01*
X36811Y16891D02*
X37061Y16891D01*
X37131Y16891D02*
X37381Y16891D01*
X36811Y16881D02*
X37061D01*
X37131D02*
X37381Y16881D01*
X36811Y16871D02*
X37061D01*
X37131Y16871D02*
X37381D01*
X36811Y16861D02*
X37061D01*
X37131Y16861D02*
X37381Y16861D01*
X36811Y16851D02*
X37061Y16851D01*
X37131D02*
X37381Y16851D01*
X36811Y16841D02*
X37061D01*
X36811Y16831D02*
X37061Y16831D01*
X36811Y16821D02*
X37361Y16821D01*
X36811Y16811D02*
X37361D01*
X36811Y16801D02*
X37361D01*
X36811Y16791D02*
X37361Y16791D01*
X36811Y16781D02*
X37361Y16781D01*
X36811Y16771D02*
X37361D01*
X36831Y16761D02*
X37361Y16761D01*
X36831Y16751D02*
X37331Y16751D01*
X36840Y16741D02*
X37321D01*
X36847Y16731D02*
X37311D01*
X36851Y16721D02*
X37301D01*
X36861Y16711D02*
X37301D01*
X36871Y16701D02*
X37281D01*
X36881Y16691D02*
X37291D01*
X36891Y16681D02*
X37251Y16681D01*
X36901Y16671D02*
X37251Y16671D01*
X36931Y16661D02*
X37201D01*
X36941Y16651D02*
X37191D01*
X36991Y16641D02*
X37121Y16641D01*
X37141Y16641D02*
X37161Y16641D01*
X37001Y16631D02*
X37111Y16631D01*
X37909Y17111D02*
X38169Y17111D01*
X37909Y17101D02*
X38169Y17101D01*
X37909Y17091D02*
X38169Y17091D01*
X37909Y17081D02*
X38169Y17081D01*
X37909Y17071D02*
X38169Y17071D01*
X37909Y17061D02*
X38149D01*
X37909Y17051D02*
X38149Y17051D01*
X37899Y17041D02*
X38149D01*
X37899Y17031D02*
X38149D01*
X37899Y17021D02*
X38149D01*
X37889Y17011D02*
X38149D01*
X37889Y17001D02*
X38149Y17001D01*
X37889Y16991D02*
X38149Y16991D01*
X37889Y16981D02*
X38129Y16981D01*
X37889Y16971D02*
X38129Y16971D01*
X37889Y16961D02*
X38129Y16961D01*
X37889Y16951D02*
X38129D01*
X37879Y16941D02*
X38129D01*
X37879Y16931D02*
X38129D01*
X37879Y16921D02*
X38129D01*
X37879Y16911D02*
X38129D01*
X37869Y16901D02*
X38129D01*
X37869Y16891D02*
X38129D01*
X37869Y16881D02*
X38109D01*
X37869Y16871D02*
X38109D01*
X37869Y16861D02*
X38109D01*
X37869Y16851D02*
X38119Y16851D01*
X37869Y16841D02*
X38129D01*
X37869Y16831D02*
X38139D01*
X37969Y16681D02*
X38309D01*
X37969Y16671D02*
X38309D01*
X38009Y16661D02*
X38269D01*
X38009Y16651D02*
X38269D01*
X37579Y16641D02*
X37629D01*
X38069D02*
X38189D01*
X38069Y16631D02*
X38189Y16631D01*
X38509Y17111D02*
X38819D01*
X38509Y17101D02*
X38829D01*
X38509Y17091D02*
X38839D01*
X38509Y17081D02*
X38849D01*
X38509Y17071D02*
X38849Y17071D01*
X38529Y17061D02*
X38849D01*
X38529Y17051D02*
X38859D01*
X38529Y17041D02*
X38869D01*
X38529Y17031D02*
X38879Y17031D01*
X38549Y17021D02*
X38889D01*
X38549Y17011D02*
X38899D01*
X38569Y17001D02*
X38899Y17001D01*
X38569Y16991D02*
X38889D01*
X38589Y16981D02*
X38899D01*
X38589Y16971D02*
X38899Y16971D01*
X38459Y16911D02*
X38489Y16911D01*
X38619Y16841D02*
X38899D01*
X38609Y16831D02*
X38899D01*
X38429Y16781D02*
X38879D01*
X38429Y16771D02*
X38869D01*
X38409Y16761D02*
X38869Y16761D01*
X38409Y16751D02*
X38869Y16751D01*
X38409Y16741D02*
X38859D01*
X38409Y16731D02*
X38854D01*
X38429Y16721D02*
X38847D01*
X38429Y16711D02*
X38829Y16711D01*
X38449Y16701D02*
X38819Y16701D01*
X38449Y16691D02*
X38809Y16691D01*
X38469Y16681D02*
X38789Y16681D01*
X38469Y16671D02*
X38789D01*
X38849Y16671D02*
X38889Y16671D01*
X38489Y16661D02*
X38749Y16661D01*
X38849D02*
X38909D01*
X38489Y16651D02*
X38749D01*
X38849D02*
X38929D01*
X38549Y16641D02*
X38699D01*
X38709D02*
X38719D01*
X38847D02*
X38969D01*
X38549Y16631D02*
X38689D01*
X38849Y16631D02*
X38979Y16631D01*
X38854Y16621D02*
X39049D01*
X38969Y16441D02*
X38999Y16441D01*
X39279Y17111D02*
X39539D01*
X39559D02*
X39889D01*
X39269Y17101D02*
X39539Y17101D01*
X39559Y17101D02*
X39899D01*
X39269Y17091D02*
X39539D01*
X39559D02*
X39899Y17091D01*
X39269Y17081D02*
X39519Y17081D01*
X39579D02*
X39899Y17081D01*
X39269Y17071D02*
X39519Y17071D01*
X39579Y17071D02*
X39909Y17071D01*
X39269Y17061D02*
X39519D01*
X39586D02*
X39919D01*
X39269Y17051D02*
X39519D01*
X39269Y17041D02*
X39519D01*
X39269Y17031D02*
X39519D01*
X39269Y17021D02*
X39512D01*
X39259Y17011D02*
X39505Y17011D01*
X39249Y17001D02*
X39499Y17001D01*
X39249Y16991D02*
X39499D01*
X39249Y16981D02*
X39499Y16981D01*
X39249Y16971D02*
X39499Y16971D01*
X39249Y16961D02*
X39499Y16961D01*
X39249Y16951D02*
X39499D01*
X39249Y16941D02*
X39499Y16941D01*
X39249Y16931D02*
X39499Y16931D01*
X39229Y16921D02*
X39499Y16921D01*
X39229Y16911D02*
X39539D01*
X39229Y16901D02*
X39479D01*
X39499D02*
X39539Y16901D01*
X39229Y16891D02*
X39479D01*
X39489D02*
X39539D01*
X39219Y16881D02*
X39479D01*
X39489D02*
X39559D01*
X39209Y16871D02*
X39479D01*
X39499D02*
X39559Y16871D01*
X39499Y16861D02*
X39579D01*
X39489Y16851D02*
X39579D01*
X39489Y16841D02*
X39609D01*
X39489Y16831D02*
X39619D01*
X39469Y16761D02*
X39919Y16761D01*
X39469Y16751D02*
X39919D01*
X39469Y16741D02*
X39919Y16741D01*
X39469Y16731D02*
X39919D01*
X39469Y16721D02*
X39899Y16721D01*
X39479Y16711D02*
X39889Y16711D01*
X39189Y16701D02*
X39439Y16701D01*
X39489Y16701D02*
X39879Y16701D01*
X39189Y16691D02*
X39439D01*
X39499D02*
X39879D01*
X39189Y16681D02*
X39439D01*
X39519Y16681D02*
X39839Y16681D01*
X39179Y16671D02*
X39439D01*
X39519Y16671D02*
X39829Y16671D01*
X39183Y16661D02*
X39439D01*
X39549D02*
X39819Y16661D01*
X39169Y16651D02*
X39439Y16651D01*
X39559D02*
X39809D01*
X39159Y16641D02*
X39419D01*
X39609D02*
X39739D01*
X39149Y16631D02*
X39419Y16631D01*
X39619Y16631D02*
X39739Y16631D01*
X39169Y16441D02*
X39179Y16441D01*
X39939Y16761D02*
X40239Y16761D01*
X39999Y17111D02*
X40259Y17111D01*
X40319Y17111D02*
X40562Y17111D01*
X39999Y17101D02*
X40239D01*
X40319D02*
X40559Y17101D01*
X39999Y17091D02*
X40239Y17091D01*
X39999Y17081D02*
X40249D01*
X39999Y17071D02*
X40239D01*
X39989Y17061D02*
X40239D01*
X39989Y17051D02*
X40239Y17051D01*
X39989Y17041D02*
X40239Y17041D01*
X39979Y17031D02*
X40239D01*
X39979Y17021D02*
X40239D01*
X39979Y17011D02*
X40239D01*
X39979Y17001D02*
X40219D01*
X39979Y16991D02*
X40219D01*
X39969Y16981D02*
X40219D01*
X39969Y16971D02*
X40219Y16971D01*
X39979Y16961D02*
X40219Y16961D01*
X39969Y16951D02*
X40219Y16951D01*
X40279Y16921D02*
X40539Y16921D01*
X40279Y16911D02*
X40539D01*
X40279Y16901D02*
X40529Y16901D01*
X40279Y16891D02*
X40519Y16891D01*
X40279Y16881D02*
X40519D01*
X40279Y16871D02*
X40519Y16871D01*
X40279Y16861D02*
X40519D01*
X40279Y16851D02*
X40529D01*
X40229Y16841D02*
X40249D01*
X40269D02*
X40539D01*
X40219Y16831D02*
X40259D01*
X40269D02*
X40539Y16831D01*
X40219Y16821D02*
X40259Y16821D01*
X39939Y16751D02*
X40239D01*
X39939Y16741D02*
X40239D01*
X39939Y16731D02*
X40239D01*
X39939Y16721D02*
X40239D01*
X39939Y16711D02*
X40239D01*
X39954Y16701D02*
X40219D01*
X39959Y16691D02*
X40219D01*
X39979Y16681D02*
X40219D01*
X40339D02*
X40719D01*
X39979Y16671D02*
X40219Y16671D01*
X40339Y16671D02*
X40698Y16671D01*
X39979Y16661D02*
X40179Y16661D01*
X40399Y16661D02*
X40679Y16661D01*
X39979Y16651D02*
X40179D01*
X40409Y16651D02*
X40679D01*
X40039Y16641D02*
X40119Y16641D01*
X40459Y16641D02*
X40609D01*
X40039Y16631D02*
X40119Y16631D01*
X40459Y16631D02*
X40599Y16631D01*
X40919Y17111D02*
X41169D01*
X41239Y17111D02*
X41469Y17111D01*
X40919Y17101D02*
X41169D01*
X41239D02*
X41469D01*
X40909Y17091D02*
X41169D01*
X41239Y17091D02*
X41469Y17091D01*
X40899Y17081D02*
X41169Y17081D01*
X41239Y17081D02*
X41469D01*
X40899Y17071D02*
X41159Y17071D01*
X41229Y17071D02*
X41469D01*
X40899Y17061D02*
X41149D01*
X41219D02*
X41469D01*
X40899Y17051D02*
X41149D01*
X41219D02*
X41469D01*
X40899Y17041D02*
X41149Y17041D01*
X41219Y17041D02*
X41469Y17041D01*
X40899Y17031D02*
X41149D01*
X41219Y17031D02*
X41469D01*
X40899Y17021D02*
X41149D01*
X41219Y17021D02*
X41449Y17021D01*
X40899Y17011D02*
X41149D01*
X41219D02*
X41449D01*
X40899Y17001D02*
X41149D01*
X41219Y17001D02*
X41449D01*
X40889Y16991D02*
X41139Y16991D01*
X41209D02*
X41449D01*
X40879Y16981D02*
X41129Y16981D01*
X41199Y16981D02*
X41449D01*
X40879Y16971D02*
X41129Y16971D01*
X41199Y16971D02*
X41449D01*
X40879Y16961D02*
X41129Y16961D01*
X41199Y16961D02*
X41449Y16961D01*
X40879Y16951D02*
X41129D01*
X41199D02*
X41449Y16951D01*
X40879Y16941D02*
X41129D01*
X41199D02*
X41429D01*
X40879Y16931D02*
X41129D01*
X41199D02*
X41429D01*
X40819Y16921D02*
X40859Y16921D01*
X40879Y16921D02*
X41129D01*
X41199Y16921D02*
X41429Y16921D01*
X40829Y16911D02*
X40859D01*
X40869D02*
X41129D01*
X41199D02*
X41429D01*
X40829Y16901D02*
X41129D01*
X41199Y16901D02*
X41429Y16901D01*
X40829Y16891D02*
X41119D01*
X41199Y16891D02*
X41429Y16891D01*
X40859Y16881D02*
X41109D01*
X41179D02*
X41429D01*
X40859Y16871D02*
X41109Y16871D01*
X41179Y16871D02*
X41429Y16871D01*
X40859Y16861D02*
X41109D01*
X41179Y16861D02*
X41429Y16861D01*
X40859Y16851D02*
X41109D01*
X41179Y16851D02*
X41429D01*
X40859Y16841D02*
X41109D01*
X41179Y16841D02*
X41409Y16841D01*
X40859Y16831D02*
X41109D01*
X41179Y16831D02*
X41409Y16831D01*
X40859Y16821D02*
X41109D01*
X41179D02*
X41409Y16821D01*
X40859Y16811D02*
X41109Y16811D01*
X41179D02*
X41409D01*
X40839Y16801D02*
X41109D01*
X41179D02*
X41409D01*
X40839Y16791D02*
X41099Y16791D01*
X41179Y16791D02*
X41409Y16791D01*
X40839Y16781D02*
X41089D01*
X41159Y16781D02*
X41409Y16781D01*
X40839Y16771D02*
X41089D01*
X41159D02*
X41409D01*
X40839Y16761D02*
X41089Y16761D01*
X41159Y16761D02*
X41389Y16761D01*
X40839Y16751D02*
X41089D01*
X41159Y16751D02*
X41389Y16751D01*
X40839Y16741D02*
X41089Y16741D01*
X41159Y16741D02*
X41389Y16741D01*
X40839Y16731D02*
X41089D01*
X41159D02*
X41389D01*
X40839Y16721D02*
X41083Y16721D01*
X41159Y16721D02*
X41389D01*
X40839Y16711D02*
X41086Y16711D01*
X41159Y16711D02*
X41389D01*
X40828Y16701D02*
X41082Y16701D01*
X41159Y16701D02*
X41389Y16701D01*
X40825Y16691D02*
X41079D01*
X41159D02*
X41389D01*
X40819Y16681D02*
X41069Y16681D01*
X41159D02*
X41389D01*
X40819Y16671D02*
X41069Y16671D01*
X41159Y16671D02*
X41389Y16671D01*
X40819Y16661D02*
X41069D01*
X41159Y16661D02*
X41369Y16661D01*
X40819Y16651D02*
X41069D01*
X41159D02*
X41369D01*
X41549Y17111D02*
X42139D01*
X41539Y17101D02*
X41809D01*
X41819D02*
X42149D01*
X41539Y17091D02*
X41809Y17091D01*
X41829Y17091D02*
X42149D01*
X41539Y17081D02*
X41789Y17081D01*
X41829D02*
X42149D01*
X41539Y17071D02*
X41789Y17071D01*
X41829Y17071D02*
X42159Y17071D01*
X41539Y17061D02*
X41789D01*
X41829D02*
X42169D01*
X41539Y17051D02*
X41789Y17051D01*
X41829D02*
X42179Y17051D01*
X41539Y17041D02*
X41789Y17041D01*
X41839Y17041D02*
X42189D01*
X41849Y17031D02*
X42189D01*
X41869Y17021D02*
X42189D01*
X41869Y17011D02*
X42199Y17011D01*
X41889Y17001D02*
X42209Y17001D01*
X41889Y16991D02*
X42209Y16991D01*
X41889Y16981D02*
X42209Y16981D01*
X41889Y16971D02*
X42219D01*
X41909Y16961D02*
X42209Y16961D01*
X41909Y16951D02*
X42219D01*
X41929Y16941D02*
X42229D01*
X41929Y16931D02*
X42229D01*
X41759Y16921D02*
X41769Y16921D01*
X41929D02*
X42229D01*
X41929Y16911D02*
X42229D01*
X41949Y16901D02*
X42229D01*
X41759Y16891D02*
X41809Y16891D01*
X41949D02*
X42229D01*
X41949Y16881D02*
X42209Y16881D01*
X41951Y16871D02*
X42209D01*
X41949Y16861D02*
X42219Y16861D01*
X41939Y16851D02*
X42219Y16851D01*
X41929Y16841D02*
X42219Y16841D01*
X41919Y16831D02*
X42209Y16831D01*
X41739Y16821D02*
X42209Y16821D01*
X41739Y16811D02*
X42209Y16811D01*
X41739Y16801D02*
X42209Y16801D01*
X41739Y16791D02*
X42209Y16791D01*
X41729Y16721D02*
X42149D01*
X41729Y16711D02*
X42149D01*
X41739Y16701D02*
X42129D01*
X41749Y16691D02*
X42129D01*
X41769Y16681D02*
X42089Y16681D01*
X41769Y16671D02*
X42089D01*
X41799Y16661D02*
X42069D01*
X41809Y16651D02*
X42069D01*
X41869Y16641D02*
X41989Y16641D01*
X41869Y16631D02*
X41989Y16631D01*
X34601Y17431D02*
X34711D01*
X34591Y17421D02*
X34721D01*
X34521Y17411D02*
X34761Y17411D01*
X34501Y17401D02*
X34781Y17401D01*
X34491Y17391D02*
X34801Y17391D01*
X34481Y17381D02*
X34801D01*
X34611Y17221D02*
X34871Y17221D01*
X34621Y17211D02*
X34861Y17211D01*
X34621Y17201D02*
X34861D01*
X34621Y17191D02*
X34861Y17191D01*
X34621Y17181D02*
X34861Y17181D01*
X34621Y17171D02*
X34861D01*
X34601Y17131D02*
X35121Y17131D01*
X35263Y17192D02*
X35453Y17192D01*
X35264Y17202D02*
X35454D01*
X35264Y17212D02*
X35454D01*
X35274Y17221D02*
X35454Y17221D01*
X35264Y17131D02*
X35454D01*
X35264Y17141D02*
X35454D01*
X35264Y17151D02*
X35454Y17151D01*
X35264Y17161D02*
X35454Y17161D01*
X35264Y17171D02*
X35454D01*
X35141Y17841D02*
X35271D01*
X35141Y17831D02*
X35271D01*
X35151Y17821D02*
X35281D01*
X35161Y17811D02*
X35291Y17811D01*
X35171Y17801D02*
X35291D01*
X35181Y17791D02*
X35301Y17791D01*
X35191Y17781D02*
X35311Y17781D01*
X35201Y17771D02*
X35321Y17771D01*
X35201Y17761D02*
X35321Y17761D01*
X35211Y17751D02*
X35341D01*
X35211Y17741D02*
X35341D01*
X35231Y17731D02*
X35351Y17731D01*
X35241Y17721D02*
X35351D01*
X35251Y17711D02*
X35361D01*
X35261Y17701D02*
X35371Y17701D01*
X35271Y17691D02*
X35371D01*
X35281Y17681D02*
X35381D01*
X35281Y17671D02*
X35391Y17671D01*
X35291Y17661D02*
X35391Y17661D01*
X35301Y17651D02*
X35401D01*
X35311Y17641D02*
X35411Y17641D01*
X35321Y17631D02*
X35421Y17631D01*
X35331Y17621D02*
X35421Y17621D01*
X35331Y17611D02*
X35441D01*
X35351Y17601D02*
X35441D01*
X35351Y17591D02*
X35451D01*
X35371Y17581D02*
X35451D01*
X35371Y17571D02*
X35461Y17571D01*
X35381Y17561D02*
X35471Y17561D01*
X35391Y17551D02*
X35471Y17551D01*
X35411Y17541D02*
X35481D01*
X35411Y17531D02*
X35501Y17531D01*
X35421Y17521D02*
X35511D01*
X35431Y17511D02*
X35511D01*
X35431Y17501D02*
X35511D01*
X35441Y17491D02*
X35521Y17491D01*
X35451Y17481D02*
X35531Y17481D01*
X35461Y17471D02*
X35551Y17471D01*
X35471Y17461D02*
X35551Y17461D01*
X35481Y17451D02*
X35551D01*
X35491Y17441D02*
X35551D01*
X35501Y17431D02*
X35551D01*
X35521Y17421D02*
X35551D01*
X35674Y17141D02*
X35914Y17141D01*
X35674Y17131D02*
X35914Y17131D01*
X36524Y17331D02*
X36534Y17321D01*
X36464Y17391D02*
X36474Y17381D01*
X36654Y17431D02*
X36674Y17411D01*
X36654Y17441D02*
X36674Y17421D01*
X35954Y17411D02*
X36084D01*
X36284Y17411D02*
X36434D01*
X35954Y17401D02*
X36094D01*
X36274Y17401D02*
X36434D01*
X36204Y17391D02*
X36464D01*
X36194Y17381D02*
X36474Y17381D01*
X36184Y17371D02*
X36494Y17371D01*
X36014Y17201D02*
X36254Y17201D01*
X36314D02*
X36554D01*
X36004Y17191D02*
X36254Y17191D01*
X36314Y17191D02*
X36554Y17191D01*
X36004Y17181D02*
X36254D01*
X36314Y17181D02*
X36554Y17181D01*
X35994Y17171D02*
X36254D01*
X36314D02*
X36554D01*
X35994Y17161D02*
X36234Y17161D01*
X36314D02*
X36554D01*
X35994Y17151D02*
X36234D01*
X36314Y17151D02*
X36554Y17151D01*
X35994Y17141D02*
X36234Y17141D01*
X36314Y17141D02*
X36554Y17141D01*
X35994Y17131D02*
X36232Y17131D01*
X36314D02*
X36554D01*
X37225D02*
X37440D01*
X37227Y17131D02*
X37440Y17131D01*
X37227Y17141D02*
X37441Y17141D01*
X36874Y17341D02*
X36884Y17351D01*
X37101Y17411D02*
X37271Y17411D01*
X37091Y17401D02*
X37281D01*
X37021Y17391D02*
X37331Y17391D01*
X36854Y17381D02*
X36894D01*
X37021Y17381D02*
X37341Y17381D01*
X37001Y17371D02*
X37351D01*
X36991Y17361D02*
X37361D01*
X36961Y17351D02*
X37391Y17351D01*
X36961Y17341D02*
X37401D01*
X36941Y17331D02*
X37401D01*
X36941Y17321D02*
X37401Y17321D01*
X36925Y17311D02*
X37410D01*
X36911Y17301D02*
X37421Y17301D01*
X36911Y17291D02*
X37421D01*
X36911Y17281D02*
X37421D01*
X36891Y17271D02*
X37451D01*
X36891Y17261D02*
X37451Y17261D01*
X36891Y17251D02*
X37451Y17251D01*
X36891Y17241D02*
X37441D01*
X36881Y17231D02*
X37441D01*
X36871Y17221D02*
X37441Y17221D01*
X36871Y17211D02*
X37441D01*
X36871Y17201D02*
X37141D01*
X37218D02*
X37441D01*
X36871Y17191D02*
X37131D01*
X37234Y17191D02*
X37441Y17191D01*
X36871Y17181D02*
X37121D01*
X37230D02*
X37441D01*
X36871Y17171D02*
X37121D01*
X37227D02*
X37441D01*
X36871Y17161D02*
X37121D01*
X37223D02*
X37441D01*
X36861Y17151D02*
X37120Y17151D01*
X37227Y17151D02*
X37441D01*
X36851Y17141D02*
X37114Y17141D01*
X37228Y17141D02*
X37441Y17141D01*
X36851Y17131D02*
X37109Y17131D01*
X37769Y17411D02*
X37899Y17411D01*
X37689Y17401D02*
X37719D01*
X37769Y17401D02*
X37909D01*
X37689Y17391D02*
X37939D01*
X37689Y17381D02*
X37949D01*
X37689Y17371D02*
X37969Y17371D01*
X37689Y17361D02*
X37969D01*
X37649Y17351D02*
X37969D01*
X37649Y17341D02*
X37969Y17341D01*
X37609Y17321D02*
X37989Y17321D01*
X37769Y17181D02*
X38189D01*
X37769Y17171D02*
X38189D01*
X37789Y17161D02*
X38169Y17161D01*
X37789Y17151D02*
X37919Y17151D01*
X37929Y17151D02*
X38169D01*
X37929Y17141D02*
X38169D01*
X37929Y17131D02*
X38169Y17131D01*
X38659Y17391D02*
X38999D01*
X38649Y17381D02*
X38999Y17381D01*
X38610Y17371D02*
X38999Y17371D01*
X38589Y17361D02*
X38999Y17361D01*
X38579Y17351D02*
X38999Y17351D01*
X38569Y17341D02*
X38979Y17341D01*
X38559Y17331D02*
X38979Y17331D01*
X38549Y17321D02*
X38979D01*
X38529Y17311D02*
X38969D01*
X38529Y17301D02*
X38969D01*
X38509Y17291D02*
X38969Y17291D01*
X38509Y17281D02*
X38969Y17281D01*
X38509Y17271D02*
X38969Y17271D01*
X38509Y17261D02*
X38959Y17261D01*
X39339Y17391D02*
X39579D01*
X39329Y17381D02*
X39579Y17381D01*
X39329Y17371D02*
X39579D01*
X39329Y17361D02*
X39579D01*
X39329Y17351D02*
X39579Y17351D01*
X39329Y17341D02*
X39579Y17341D01*
X39329Y17331D02*
X39579D01*
X39329Y17321D02*
X39579D01*
X39329Y17311D02*
X39579D01*
X39329Y17301D02*
X39579D01*
X39309Y17271D02*
X39569D01*
X39309Y17261D02*
X39559D01*
X39309Y17251D02*
X39559D01*
X39309Y17201D02*
X39839D01*
X39299Y17191D02*
X39829Y17191D01*
X39289Y17181D02*
X39539Y17181D01*
X39559D02*
X39819D01*
X39289Y17171D02*
X39539D01*
X39559D02*
X39829D01*
X39289Y17161D02*
X39539D01*
X39559Y17161D02*
X39839D01*
X39289Y17151D02*
X39539D01*
X39559Y17151D02*
X39849D01*
X39289Y17141D02*
X39539D01*
X39559Y17141D02*
X39859Y17141D01*
X39289Y17131D02*
X39539D01*
X39559Y17131D02*
X39869Y17131D01*
X40099Y17571D02*
X40339Y17571D01*
X40099Y17561D02*
X40339Y17561D01*
X40099Y17551D02*
X40339Y17551D01*
X40099Y17541D02*
X40339D01*
X40099Y17531D02*
X40339D01*
X40089Y17521D02*
X40339Y17521D01*
X40089Y17511D02*
X40339D01*
X40089Y17501D02*
X40339D01*
X40079Y17491D02*
X40339Y17491D01*
X40079Y17481D02*
X40339Y17481D01*
X40079Y17471D02*
X40339Y17471D01*
X40079Y17461D02*
X40319D01*
X40079Y17451D02*
X40319Y17451D01*
X40079Y17441D02*
X40319D01*
X40079Y17431D02*
X40319D01*
X40079Y17421D02*
X40319D01*
X40019Y17411D02*
X40319D01*
X40019Y17401D02*
X40319D01*
X40059Y17391D02*
X40387D01*
X40059Y17381D02*
X40382Y17381D01*
X40059Y17371D02*
X40369Y17371D01*
X40059Y17361D02*
X40369Y17361D01*
X40059Y17351D02*
X40367Y17351D01*
X40059Y17341D02*
X40362Y17341D01*
X40059Y17331D02*
X40359D01*
X40059Y17321D02*
X40369D01*
X40039Y17301D02*
X40369Y17301D01*
X40039Y17291D02*
X40359Y17291D01*
X40039Y17281D02*
X40359D01*
X40039Y17261D02*
X40339D01*
X40039Y17251D02*
X40339D01*
X40029Y17241D02*
X40339D01*
X40029Y17231D02*
X40339D01*
X40039Y17221D02*
X40339Y17221D01*
X39989Y17201D02*
X40279D01*
X40319Y17201D02*
X40599Y17201D01*
X39999Y17191D02*
X40009Y17191D01*
X40019Y17191D02*
X40279Y17191D01*
X40339Y17191D02*
X40599Y17191D01*
X40019Y17181D02*
X40259D01*
X40339Y17181D02*
X40588D01*
X40019Y17171D02*
X40259D01*
X40339Y17171D02*
X40584Y17171D01*
X40009Y17161D02*
X40259Y17161D01*
X40329D02*
X40579Y17161D01*
X40009Y17151D02*
X40259D01*
X40329Y17151D02*
X40579Y17151D01*
X40009Y17141D02*
X40259D01*
X40339Y17141D02*
X40576Y17141D01*
X39999Y17131D02*
X40259Y17131D01*
X40329D02*
X40567D01*
X41209Y17411D02*
X41339D01*
X41199Y17401D02*
X41349D01*
X41149Y17391D02*
X41379Y17391D01*
X41139Y17381D02*
X41389Y17381D01*
X41109Y17371D02*
X41399Y17371D01*
X40939Y17201D02*
X41199D01*
X41249Y17201D02*
X41509Y17201D01*
X40939Y17191D02*
X41199Y17191D01*
X41249Y17191D02*
X41499Y17191D01*
X40939Y17181D02*
X41179Y17181D01*
X41239Y17181D02*
X41489Y17181D01*
X40929Y17171D02*
X41179Y17171D01*
X41239D02*
X41489D01*
X40919Y17161D02*
X41169Y17161D01*
X41239Y17161D02*
X41489D01*
X40919Y17151D02*
X41169Y17151D01*
X41239Y17151D02*
X41489Y17151D01*
X40919Y17141D02*
X41169D01*
X41239Y17141D02*
X41489Y17141D01*
X40919Y17131D02*
X41169Y17131D01*
X41239Y17131D02*
X41489D01*
X41969Y17391D02*
X42289D01*
X41969Y17381D02*
X42289Y17381D01*
X41909Y17371D02*
X42289Y17371D01*
X41909Y17361D02*
X42289Y17361D01*
X41879Y17351D02*
X42289Y17351D01*
X41859Y17341D02*
X42289D01*
X41849Y17331D02*
X42289D01*
X41849Y17321D02*
X42289D01*
X41849Y17311D02*
X42289D01*
X41849Y17301D02*
X42269Y17301D01*
X41819Y17291D02*
X42269D01*
X41819Y17281D02*
X42279D01*
X41819Y17271D02*
X42269D01*
X41819Y17261D02*
X42269Y17261D01*
X41819Y17251D02*
X42269D01*
X41829Y17241D02*
X42269D01*
X41559Y17201D02*
X42089D01*
X41559Y17191D02*
X42089Y17191D01*
X41559Y17181D02*
X42089D01*
X41559Y17171D02*
X42089D01*
X41559Y17161D02*
X42089D01*
X41559Y17151D02*
X42099D01*
X41559Y17141D02*
X42109Y17141D01*
X41559Y17131D02*
X42119D01*
X34021Y18711D02*
X34261Y18711D01*
X34031Y18701D02*
X34261Y18701D01*
X34081Y18691D02*
X34281Y18691D01*
X34091Y18681D02*
X34281D01*
X34121Y18671D02*
X34291Y18671D01*
X34131Y18661D02*
X34301Y18661D01*
X34161Y18651D02*
X34301Y18651D01*
X34161Y18641D02*
X34311D01*
X34181Y18631D02*
X34321D01*
X34191Y18621D02*
X34321Y18621D01*
X35061Y18551D02*
X35081Y18551D01*
X35061Y18541D02*
X35101D01*
X34341Y18391D02*
X34521D01*
X34341Y18381D02*
X34531D01*
X34341Y18371D02*
X34531Y18371D01*
X34341Y18361D02*
X34541D01*
X34341Y18351D02*
X34561D01*
X34341Y18341D02*
X34561D01*
X34341Y18331D02*
X34561Y18331D01*
X34341Y18321D02*
X34571Y18321D01*
X34861Y18231D02*
X35001D01*
X34861Y18221D02*
X35001D01*
X34861Y18211D02*
X35021Y18211D01*
X34861Y18201D02*
X35021Y18201D01*
X34861Y18191D02*
X35031Y18191D01*
X34861Y18181D02*
X35031Y18181D01*
X34881Y18171D02*
X35041D01*
X34881Y18161D02*
X35051D01*
X34881Y18151D02*
X35051Y18151D01*
X34891Y18141D02*
X35051Y18141D01*
X34901Y18131D02*
X35061Y18131D01*
X34911Y18121D02*
X35061D01*
X34921Y18111D02*
X35081Y18111D01*
X34921Y18101D02*
X35091Y18101D01*
X34941Y18091D02*
X35091D01*
X34941Y18081D02*
X35091D01*
X34951Y18071D02*
X35101D01*
X34951Y18061D02*
X35111D01*
X34961Y18051D02*
X35121D01*
X34971Y18041D02*
X35121D01*
X35541Y18171D02*
X35741D01*
X35141Y18431D02*
X35321D01*
X35151Y18421D02*
X35331D01*
X35161Y18411D02*
X35361D01*
X35171Y18401D02*
X35361D01*
X35181Y18391D02*
X35391D01*
X35191Y18381D02*
X35401Y18381D01*
X35211Y18371D02*
X35421Y18371D01*
X35221Y18361D02*
X35431D01*
X35241Y18351D02*
X35461Y18351D01*
X35251Y18341D02*
X35471Y18341D01*
X35271Y18331D02*
X35501D01*
X35281Y18321D02*
X35511D01*
X35301Y18311D02*
X35521Y18311D01*
X35311Y18301D02*
X35531Y18301D01*
X35331Y18291D02*
X35561D01*
X35341Y18281D02*
X35571D01*
X35361Y18271D02*
X35591Y18271D01*
X35371Y18261D02*
X35591D01*
X35391Y18251D02*
X35611Y18251D01*
X35401Y18241D02*
X35621D01*
X35431Y18231D02*
X35641Y18231D01*
X35441Y18221D02*
X35651Y18221D01*
X35471Y18211D02*
X35671Y18211D01*
X35481Y18201D02*
X35681D01*
X35501Y18191D02*
X35701D01*
X35511Y18181D02*
X35711D01*
X35551Y18161D02*
X35741D01*
X35581Y18151D02*
X35761D01*
X35591Y18141D02*
X35771D01*
X35621Y18131D02*
X35801D01*
X35631Y18121D02*
X35821Y18121D01*
X35661Y18111D02*
X35821D01*
X35671Y18101D02*
X35831D01*
X35701Y18091D02*
X35861D01*
X35711Y18081D02*
X35871Y18081D01*
X35741Y18071D02*
X35881D01*
X35751Y18061D02*
X35881Y18061D01*
X35791Y18051D02*
X35911Y18051D01*
X35791Y18041D02*
X35911Y18041D01*
X35951Y17961D02*
X35991Y17961D01*
X33861Y19511D02*
X34101Y19511D01*
X33871Y19501D02*
X34111D01*
X33881Y19491D02*
X34121D01*
X33891Y19481D02*
X34131Y19481D01*
X33901Y19471D02*
X34141Y19471D01*
X33901Y19461D02*
X34141D01*
X33901Y19451D02*
X34151Y19451D01*
X33921Y19441D02*
X34171Y19441D01*
X33921Y19431D02*
X34181Y19431D01*
X33921Y19421D02*
X34191D01*
X33941Y19411D02*
X34201D01*
X33941Y19401D02*
X34211Y19401D01*
X33921Y19391D02*
X34221D01*
X33551Y19371D02*
X33811Y19371D01*
X33691Y19271D02*
X34161Y19271D01*
X33691Y19261D02*
X34151Y19261D01*
X33721Y19251D02*
X34141Y19251D01*
X33721Y19241D02*
X34131Y19241D01*
X33741Y19231D02*
X34111Y19231D01*
X33741Y19221D02*
X34111D01*
X33761Y19211D02*
X34101D01*
X33761Y19201D02*
X34101Y19201D01*
X33791Y19191D02*
X34081Y19191D01*
X33791Y19181D02*
X34081D01*
X33801Y19171D02*
X34081Y19171D01*
X33811Y19161D02*
X34081D01*
X33821Y19151D02*
X34081D01*
X33831Y19141D02*
X34081Y19141D01*
X33851Y19131D02*
X34081D01*
X33851Y19121D02*
X34081D01*
X33871Y19111D02*
X34081Y19111D01*
X33871Y19101D02*
X34081Y19101D01*
X33891Y19091D02*
X34071D01*
X33891Y19081D02*
X34071Y19081D01*
X33891Y19071D02*
X34081D01*
X33901Y19061D02*
X34081Y19061D01*
X33901Y19051D02*
X34081Y19051D01*
X33901Y19041D02*
X34081Y19041D01*
X33901Y19031D02*
X34081D01*
X33901Y19021D02*
X34081Y19021D01*
X33901Y19011D02*
X34081D01*
X33891Y19001D02*
X34091D01*
X33891Y18991D02*
X34101D01*
X33881Y18981D02*
X34101Y18981D01*
X33871Y18971D02*
X34101Y18971D01*
X33861Y18961D02*
X34101D01*
X33841Y18951D02*
X34121Y18951D01*
X33831Y18941D02*
X34121D01*
X33801Y18931D02*
X34121Y18931D01*
X33791Y18921D02*
X34121D01*
X33761Y18911D02*
X34141Y18911D01*
X33741Y18901D02*
X34141D01*
X33701Y18891D02*
X34141Y18891D01*
X33691Y18881D02*
X34141D01*
X33631Y18871D02*
X34161Y18871D01*
X33611Y18861D02*
X34161Y18861D01*
X33551Y18851D02*
X34161Y18851D01*
X33841Y18731D02*
X34261D01*
X34681Y19111D02*
X34761Y19111D01*
X34381Y19511D02*
X34581Y19511D01*
X34371Y19501D02*
X34581Y19501D01*
X34361Y19491D02*
X34591D01*
X34361Y19481D02*
X34601D01*
X34361Y19471D02*
X34601Y19471D01*
X34351Y19461D02*
X34601Y19461D01*
X34341Y19451D02*
X34601Y19451D01*
X34341Y19441D02*
X34601D01*
X34351Y19271D02*
X34661D01*
X34361Y19261D02*
X34661Y19261D01*
X34411Y19251D02*
X34671Y19251D01*
X34421Y19241D02*
X34671D01*
X34471Y19231D02*
X34677D01*
X34471Y19221D02*
X34681Y19221D01*
X34501Y19211D02*
X34691D01*
X34521Y19201D02*
X34691Y19201D01*
X34541Y19191D02*
X34701D01*
X34561Y19181D02*
X34711D01*
X34591Y19171D02*
X34721D01*
X34601Y19161D02*
X34721Y19161D01*
X34631Y19151D02*
X34731D01*
X34641Y19141D02*
X34741D01*
X34661Y19131D02*
X34751D01*
X34671Y19121D02*
X34751Y19121D01*
X34691Y19101D02*
X34761Y19101D01*
X34701Y19091D02*
X34761D01*
X34711Y19081D02*
X34751D01*
X34761D02*
X34831Y19081D01*
X34761Y19071D02*
X34861D01*
X34761Y19061D02*
X34911D01*
X34921D02*
X34961D01*
X34761Y19051D02*
X35061D01*
X35021Y18811D02*
X35061Y18811D01*
X35031Y18801D02*
X35051Y18801D01*
X35591Y19021D02*
X35651D01*
X33341Y20311D02*
X33421D01*
X33351Y20301D02*
X33441Y20301D01*
X33361Y20291D02*
X33441D01*
X33371Y20281D02*
X33451Y20281D01*
X33381Y20271D02*
X33461D01*
X33381Y20261D02*
X33461D01*
X33381Y20251D02*
X33471D01*
X33391Y20241D02*
X33481Y20241D01*
X33391Y20231D02*
X33491D01*
X33411Y20221D02*
X33511Y20221D01*
X33421Y20211D02*
X33521Y20211D01*
X33421Y20201D02*
X33521D01*
X33421Y20191D02*
X33521Y20191D01*
X32771Y19881D02*
X32831D01*
X32771Y19871D02*
X32841Y19871D01*
X32771Y19861D02*
X32861D01*
X32771Y19851D02*
X32871D01*
X32781Y19841D02*
X32901Y19841D01*
X32801Y19831D02*
X32911D01*
X32811Y19821D02*
X32941Y19821D01*
X32831Y19811D02*
X32951D01*
X32831Y19801D02*
X32981D01*
X32871Y19791D02*
X32991Y19791D01*
X32881Y19781D02*
X33021Y19781D01*
X32901Y19771D02*
X33031Y19771D01*
X32911Y19761D02*
X33061D01*
X32941Y19751D02*
X33071D01*
X32951Y19741D02*
X33101D01*
X32981Y19731D02*
X33111D01*
X32991Y19721D02*
X33131Y19721D01*
X33011Y19711D02*
X33131Y19711D01*
X33021Y19701D02*
X33171D01*
X33041Y19691D02*
X33171D01*
X33051Y19681D02*
X33211D01*
X33081Y19671D02*
X33211D01*
X33091Y19661D02*
X33251Y19661D01*
X33111Y19651D02*
X33251Y19651D01*
X33121Y19641D02*
X33291D01*
X33141Y19631D02*
X33291D01*
X33151Y19621D02*
X33331D01*
X33161Y19611D02*
X33331Y19611D01*
X33181Y19601D02*
X33371Y19601D01*
X33211Y19591D02*
X33371D01*
X33221Y19581D02*
X33411D01*
X33241Y19571D02*
X33411Y19571D01*
X33251Y19561D02*
X33451D01*
X33271Y19551D02*
X33451D01*
X33281Y19541D02*
X33491D01*
X33301Y19531D02*
X33491D01*
X33541Y20021D02*
X33661Y20021D01*
X33541Y20011D02*
X33671D01*
X33551Y20001D02*
X33691D01*
X33561Y19991D02*
X33691D01*
X33561Y19981D02*
X33711D01*
X33561Y19971D02*
X33721D01*
X33581Y19961D02*
X33721D01*
X33581Y19951D02*
X33721D01*
X33591Y19941D02*
X33731D01*
X33601Y19931D02*
X33741D01*
X33601Y19921D02*
X33751D01*
X33601Y19911D02*
X33761Y19911D01*
X33621Y19901D02*
X33761Y19901D01*
X33621Y19891D02*
X33771D01*
X33631Y19881D02*
X33791Y19881D01*
X33641Y19871D02*
X33801Y19871D01*
X33641Y19861D02*
X33801D01*
X33641Y19851D02*
X33801D01*
X33661Y19841D02*
X33821D01*
X33661Y19831D02*
X33821D01*
X33671Y19821D02*
X33831Y19821D01*
X33681Y19811D02*
X33841Y19811D01*
X33681Y19801D02*
X33851Y19801D01*
X33681Y19791D02*
X33861D01*
X33691Y19781D02*
X33861D01*
X33701Y19771D02*
X33871Y19771D01*
X33701Y19761D02*
X33891D01*
X33701Y19751D02*
X33901D01*
X33721Y19741D02*
X33901Y19741D01*
X33721Y19731D02*
X33901Y19731D01*
X33731Y19721D02*
X33911Y19721D01*
X33741Y19711D02*
X33921Y19711D01*
X33741Y19701D02*
X33941Y19701D01*
X33741Y19691D02*
X33941Y19691D01*
X33751Y19681D02*
X33951D01*
X33761Y19671D02*
X33961Y19671D01*
X33771Y19661D02*
X33971Y19661D01*
X33781Y19651D02*
X33981Y19651D01*
X33781Y19641D02*
X33981D01*
X33781Y19631D02*
X33991D01*
X33791Y19621D02*
X34011Y19621D01*
X33791Y19611D02*
X34011D01*
X33801Y19601D02*
X34031D01*
X33821Y19591D02*
X34041D01*
X33821Y19581D02*
X34041Y19581D01*
X33821Y19571D02*
X34041D01*
X33841Y19561D02*
X34061D01*
X33841Y19551D02*
X34061Y19551D01*
X33851Y19541D02*
X34071Y19541D01*
X33861Y19531D02*
X34081D01*
X34521Y20011D02*
X34541D01*
X34481Y20001D02*
X34541Y20001D01*
X34481Y19991D02*
X34541Y19991D01*
X34481Y19981D02*
X34541D01*
X34481Y19971D02*
X34541D01*
X34481Y19961D02*
X34541Y19961D01*
X34481Y19951D02*
X34551Y19951D01*
X34471Y19941D02*
X34561D01*
X34461Y19931D02*
X34561D01*
X34461Y19921D02*
X34561Y19921D01*
X34461Y19911D02*
X34561Y19911D01*
X34461Y19901D02*
X34561D01*
X34461Y19891D02*
X34561Y19891D01*
X34461Y19881D02*
X34561Y19881D01*
X34461Y19871D02*
X34561D01*
X34441Y19861D02*
X34561D01*
X34441Y19851D02*
X34561Y19851D01*
X34441Y19841D02*
X34561Y19841D01*
X34441Y19831D02*
X34561Y19831D01*
X34441Y19821D02*
X34561D01*
X34441Y19811D02*
X34561Y19811D01*
X34441Y19801D02*
X34561Y19801D01*
X34441Y19791D02*
X34561D01*
X34441Y19781D02*
X34561D01*
X34441Y19771D02*
X34561D01*
X34441Y19761D02*
X34561D01*
X34441Y19751D02*
X34571D01*
X34441Y19741D02*
X34581D01*
X34441Y19731D02*
X34581D01*
X34421Y19721D02*
X34581Y19721D01*
X34421Y19711D02*
X34581Y19711D01*
X34421Y19701D02*
X34581Y19701D01*
X34421Y19691D02*
X34581D01*
X34421Y19681D02*
X34581Y19681D01*
X34421Y19671D02*
X34581D01*
X34421Y19661D02*
X34581Y19661D01*
X34421Y19651D02*
X34581Y19651D01*
X34421Y19641D02*
X34581D01*
X34421Y19631D02*
X34581D01*
X34411Y19621D02*
X34581Y19621D01*
X34401Y19611D02*
X34581D01*
X34401Y19601D02*
X34581D01*
X34401Y19591D02*
X34581D01*
X34401Y19581D02*
X34581D01*
X34401Y19571D02*
X34581D01*
X34381Y19561D02*
X34581D01*
X34381Y19551D02*
X34581Y19551D01*
X34381Y19541D02*
X34581D01*
X34381Y19531D02*
X34581Y19531D01*
X33281Y20421D02*
X33341D01*
X33281Y20411D02*
X33351D01*
X33281Y20401D02*
X33351Y20401D01*
X33281Y20391D02*
X33361Y20391D01*
X33291Y20381D02*
X33371D01*
X33301Y20371D02*
X33371Y20371D01*
X33311Y20361D02*
X33391Y20361D01*
X33321Y20351D02*
X33401Y20351D01*
X33331Y20341D02*
X33401Y20341D01*
X33341Y20331D02*
X33401D01*
X34381Y17931D02*
X34501Y17931D01*
X34381Y17941D02*
X34501D01*
X34381Y17951D02*
X34501D01*
X34381Y17961D02*
X34501Y17961D01*
X34381Y17971D02*
X34501D01*
X34381Y17981D02*
X34521D01*
X34381Y17991D02*
X34521Y17991D01*
X34381Y18001D02*
X34521Y18001D01*
X34381Y18011D02*
X34521Y18011D01*
X34361Y18021D02*
X34531D01*
X34361Y18031D02*
X34531Y18031D01*
X34361Y18041D02*
X34531Y18041D01*
X34361Y18051D02*
X34531Y18051D01*
X34361Y18061D02*
X34541D01*
X34361Y18071D02*
X34541D01*
X34361Y18081D02*
X34541D01*
X34361Y18091D02*
X34541D01*
X34361Y18101D02*
X34541Y18101D01*
X34361Y18111D02*
X34541Y18111D01*
X34361Y18121D02*
X34551D01*
X34361Y18131D02*
X34551Y18131D01*
X34361Y18141D02*
X34551Y18141D01*
X34361Y18151D02*
X34551Y18151D01*
X34361Y18161D02*
X34561D01*
X34361Y18171D02*
X34561D01*
X34361Y18181D02*
X34561D01*
X34361Y18191D02*
X34561D01*
X34361Y18201D02*
X34561D01*
X34361Y18211D02*
X34561D01*
X34361Y18221D02*
X34561Y18221D01*
X34361Y18231D02*
X34561Y18231D01*
X34361Y18241D02*
X34571D01*
X34361Y18251D02*
X34571Y18251D01*
X34361Y18261D02*
X34581Y18261D01*
X34361Y18271D02*
X34581Y18271D01*
X34361Y18281D02*
X34581Y18281D01*
X34361Y18291D02*
X34581Y18291D01*
X34361Y18301D02*
X34581Y18301D01*
X34361Y18311D02*
X34581D01*
X34401Y17761D02*
X34441Y17761D01*
X34401Y17771D02*
X34441Y17771D01*
X34401Y17781D02*
X34451Y17781D01*
X34401Y17791D02*
X34451Y17791D01*
X34401Y17801D02*
X34461D01*
X34401Y17811D02*
X34461Y17811D01*
X34381Y17821D02*
X34461Y17821D01*
X34381Y17831D02*
X34461D01*
X34381Y17841D02*
X34461D01*
X34381Y17851D02*
X34471Y17851D01*
X34381Y17861D02*
X34481D01*
X34381Y17871D02*
X34481Y17871D01*
X34381Y17881D02*
X34481Y17881D01*
X34381Y17891D02*
X34481D01*
X34381Y17901D02*
X34481Y17901D01*
X34381Y17911D02*
X34491D01*
X33981Y17131D02*
X34221D01*
X33691D02*
X33931Y17131D01*
X33981Y17141D02*
X34221Y17141D01*
X33691Y17141D02*
X33931D01*
X33981Y17151D02*
X34221D01*
X33691Y17151D02*
X33951Y17151D01*
X33981Y17161D02*
X34221D01*
X33691D02*
X33951Y17161D01*
X33981Y17171D02*
X34231D01*
X33701Y17171D02*
X33951Y17171D01*
X33981Y17181D02*
X34241Y17181D01*
X33701Y17181D02*
X33951Y17181D01*
X33981Y17191D02*
X34241Y17191D01*
X33701Y17191D02*
X33951D01*
X33981Y17201D02*
X34241Y17201D01*
X33701D02*
X33951D01*
X33991Y17211D02*
X34261D01*
X33711D02*
X33951D01*
X34001Y17221D02*
X34261Y17221D01*
X33711Y17221D02*
X33951D01*
X33711Y17231D02*
X33951D01*
X33711Y17241D02*
X33951Y17241D01*
X33711Y17251D02*
X33961D01*
X33711Y17261D02*
X33971Y17261D01*
X33711Y17271D02*
X33971D01*
X33731Y17281D02*
X33971D01*
X33731Y17291D02*
X33971D01*
X33731Y17301D02*
X33971D01*
X33731Y17311D02*
X33971D01*
X33731Y17321D02*
X33971D01*
X33731Y17331D02*
X33981Y17331D01*
X33731Y17341D02*
X33991Y17341D01*
X33731Y17351D02*
X34001Y17351D01*
X33741Y17361D02*
X34011D01*
X33741Y17371D02*
X34011Y17371D01*
X33741Y17381D02*
X34011Y17381D01*
X33731Y17391D02*
X34001D01*
X33801Y17422D02*
X33951D01*
X33791Y17432D02*
X33971D01*
X33771Y17442D02*
X33981D01*
X33771Y17452D02*
X33991D01*
X33771Y17462D02*
X34011D01*
X33761Y17472D02*
X34021D01*
X33761Y17482D02*
X34021D01*
X33761Y17492D02*
X34024D01*
X33761Y17502D02*
X34031D01*
X33761Y17512D02*
X34041D01*
X33761Y17522D02*
X34051D01*
X33761Y17532D02*
X34051D01*
X33761Y17542D02*
X34051D01*
X33771Y17552D02*
X34051Y17552D01*
X33771Y17562D02*
X34041Y17562D01*
X33791Y17572D02*
X34025D01*
X33791Y17582D02*
X34019D01*
X33811Y17592D02*
X34011D01*
X33811Y17602D02*
X34011Y17602D01*
X33851Y17612D02*
X33971Y17612D01*
X33851Y17622D02*
X33971D01*
X33871Y16671D02*
X34121Y16671D01*
X33871Y16681D02*
X34121D01*
X33871Y16691D02*
X34141D01*
X33871Y16701D02*
X34141Y16701D01*
X33881Y16711D02*
X34141Y16711D01*
X33881Y16721D02*
X34141Y16721D01*
X33881Y16731D02*
X34141Y16731D01*
X33881Y16741D02*
X34141Y16741D01*
X33891Y16751D02*
X34141Y16751D01*
X33901Y16761D02*
X34141D01*
X33901Y16771D02*
X34141D01*
X33901Y16781D02*
X34141D01*
X33901Y16791D02*
X34161Y16791D01*
X33901Y16801D02*
X34161Y16801D01*
X33901Y16811D02*
X34161Y16811D01*
X33901Y16821D02*
X34161Y16821D01*
X33901Y16831D02*
X34161Y16831D01*
X33901Y16841D02*
X34161Y16841D01*
X33921Y16851D02*
X34171D01*
X33921Y16861D02*
X34171Y16861D01*
X33921Y16871D02*
X34171Y16871D01*
X33631Y16871D02*
X33891Y16871D01*
X33921Y16881D02*
X34171D01*
X33631D02*
X33891D01*
X33921Y16891D02*
X34181D01*
X33631D02*
X33891D01*
X33921Y16901D02*
X34181D01*
X33631Y16901D02*
X33891Y16901D01*
X33921Y16911D02*
X34181Y16911D01*
X33641Y16911D02*
X33891D01*
X33651Y16921D02*
X33891D01*
X33641Y16931D02*
X33891D01*
X33941Y16941D02*
X34181Y16941D01*
X33631Y16941D02*
X33891D01*
X33941Y16951D02*
X34181D01*
X33631Y16951D02*
X33891Y16951D01*
X33941Y16961D02*
X34181D01*
X33631Y16961D02*
X33891Y16961D01*
X33941Y16971D02*
X34201Y16971D01*
X33651Y16971D02*
X33911Y16971D01*
X33941Y16981D02*
X34201Y16981D01*
X33651D02*
X33911Y16981D01*
X33941Y16991D02*
X34201D01*
X33661D02*
X33911D01*
X33941Y17001D02*
X34201Y17001D01*
X33661D02*
X33911D01*
X33941Y17011D02*
X34201Y17011D01*
X33671D02*
X33911D01*
X33941Y17021D02*
X34201Y17021D01*
X33671D02*
X33911D01*
X33951Y17031D02*
X34201D01*
X33671D02*
X33911D01*
X33961Y17041D02*
X34201Y17041D01*
X33671Y17041D02*
X33911Y17041D01*
X33961Y17051D02*
X34201D01*
X33671Y17051D02*
X33911Y17051D01*
X33961Y17061D02*
X34201D01*
X33671D02*
X33911D01*
X33961Y17071D02*
X34221Y17071D01*
X33671Y17071D02*
X33931Y17071D01*
X33961Y17081D02*
X34221Y17081D01*
X33671Y17081D02*
X33931Y17081D01*
X33961Y17091D02*
X34221D01*
X33681D02*
X33931Y17091D01*
X33961Y17101D02*
X34221Y17101D01*
X33691Y17101D02*
X33931D01*
X33971Y17111D02*
X34221D01*
X33691D02*
X33931D01*
X33931Y16931D02*
X34171D01*
X33921Y16921D02*
X34161Y16921D01*
X33921Y16921D02*
X34181Y16921D01*
X34281Y17081D02*
X34291Y17091D01*
X34301Y17101D01*
X34301Y17131D02*
X34541Y17131D01*
X34301Y17141D02*
X34541D01*
X34301Y17151D02*
X34541D01*
X34301Y17161D02*
X34541Y17161D01*
X34301Y17171D02*
X34541D01*
X34301Y17181D02*
X34551Y17181D01*
X34301Y17191D02*
X34551Y17191D01*
X34301Y17201D02*
X34561D01*
X34301Y17211D02*
X34571D01*
X34301Y17221D02*
X34581D01*
X34171Y17381D02*
X34461D01*
X34171Y17391D02*
X34461Y17391D01*
X34201Y17401D02*
X34431Y17401D01*
X34211Y17411D02*
X34421Y17411D01*
X34271Y17421D02*
X34391Y17421D01*
X34281Y17431D02*
X34381D01*
X34201Y16671D02*
X34451Y16671D01*
X33121D02*
X33831Y16671D01*
X34201Y16681D02*
X34461Y16681D01*
X33121D02*
X33831D01*
X34201Y16691D02*
X34461D01*
X33121D02*
X33851D01*
X34201Y16701D02*
X34461Y16701D01*
X33121Y16701D02*
X33851D01*
X34201Y16711D02*
X34451Y16711D01*
X33121D02*
X33851Y16711D01*
X34201Y16721D02*
X34451Y16721D01*
X33121D02*
X33851Y16721D01*
X34221Y16731D02*
X34451D01*
X33121D02*
X33851Y16731D01*
X34221Y16741D02*
X34441Y16741D01*
X33121D02*
X33851D01*
X34221Y16751D02*
X34461Y16751D01*
X33121D02*
X33851D01*
X34221Y16761D02*
X34461Y16761D01*
X33131D02*
X33851Y16761D01*
X34221Y16771D02*
X34461Y16771D01*
X33141Y16771D02*
X33851D01*
X34221Y16781D02*
X34461Y16781D01*
X33141Y16781D02*
X33851Y16781D01*
X34221Y16791D02*
X34461Y16791D01*
X33141D02*
X33871D01*
X34221Y16801D02*
X34461Y16801D01*
X33141Y16801D02*
X33871Y16801D01*
X34221Y16811D02*
X34461D01*
X33141Y16811D02*
X33871D01*
X34221Y16821D02*
X34461Y16821D01*
X33141Y16821D02*
X33871Y16821D01*
X34231Y16831D02*
X34461Y16831D01*
X33141D02*
X33871D01*
X34241Y16841D02*
X34471Y16841D01*
X33151D02*
X33871D01*
X34241Y16851D02*
X34481D01*
X33161D02*
X33871Y16851D01*
X34241Y16861D02*
X34481Y16861D01*
X33161D02*
X33871D01*
X34241Y16871D02*
X34481Y16871D01*
X34241Y16881D02*
X34481D01*
X34241Y16891D02*
X34481Y16891D01*
X34241Y16901D02*
X34481Y16901D01*
X34251Y16911D02*
X34481D01*
X34261Y16921D02*
X34481D01*
X34261Y16931D02*
X34481D01*
X34261Y16941D02*
X34491D01*
X34261Y16951D02*
X34501Y16951D01*
X34261Y16961D02*
X34501Y16961D01*
X34261Y16971D02*
X34501Y16971D01*
X34261Y16981D02*
X34501D01*
X34261Y16991D02*
X34501D01*
X34261Y17001D02*
X34501Y17001D01*
X34271Y17011D02*
X34501D01*
X34281Y17021D02*
X34511D01*
X34281Y17031D02*
X34521Y17031D01*
X34281Y17041D02*
X34521Y17041D01*
X34281Y17051D02*
X34521D01*
X34281Y17061D02*
X34521D01*
X34281Y17071D02*
X34521Y17071D01*
X34281Y17081D02*
X34521Y17081D01*
X34291Y17091D02*
X34521Y17091D01*
X34301Y17101D02*
X34521Y17101D01*
X34291Y17111D02*
X34521D01*
X34381Y17921D02*
X34501Y17921D01*
X33981Y17121D02*
X34221D01*
X33691D02*
X33931D01*
X34301Y17121D02*
X34531Y17121D01*
X33211D02*
X33471Y17121D01*
X33341Y17591D02*
X33561Y17591D01*
X33331Y17581D02*
X33561D01*
X33311Y17571D02*
X33561Y17571D01*
X33301Y17561D02*
X33561Y17561D01*
X33301Y17551D02*
X33551Y17551D01*
X33301Y17541D02*
X33551D01*
X33301Y17531D02*
X33561Y17531D01*
X33301Y17521D02*
X33561D01*
X33291Y17511D02*
X33561Y17511D01*
X33291Y17501D02*
X33561Y17501D01*
X33291Y17491D02*
X33551D01*
X33281Y17481D02*
X33551D01*
X33281Y17471D02*
X33541Y17471D01*
X33281Y17461D02*
X33531D01*
X33281Y17451D02*
X33531D01*
X33281Y17441D02*
X33531D01*
X33281Y17431D02*
X33531D01*
X33281Y17421D02*
X33531D01*
X33271Y17411D02*
X33531Y17411D01*
X33271Y17401D02*
X33531D01*
X33271Y17391D02*
X33531Y17391D01*
X33261Y17381D02*
X33531D01*
X33211Y17111D02*
X33471Y17111D01*
X33201Y17101D02*
X33471Y17101D01*
X33201Y17091D02*
X33461D01*
X33201Y17081D02*
X33451D01*
X33201Y17071D02*
X33451D01*
X33201Y17061D02*
X33451D01*
X33201Y17051D02*
X33451D01*
X33191Y17041D02*
X33451Y17041D01*
X33191Y17031D02*
X33451D01*
X33191Y17021D02*
X33451D01*
X33191Y17011D02*
X33451D01*
X33181Y17001D02*
X33451Y17001D01*
X33181Y16991D02*
X33441D01*
X33181Y16981D02*
X33431D01*
X33181Y16971D02*
X33431Y16971D01*
X33181Y16961D02*
X33431Y16961D01*
X33181Y16951D02*
X33431Y16951D01*
X33171Y16941D02*
X33431Y16941D01*
X33171Y16931D02*
X33431D01*
X33161Y16921D02*
X33431Y16921D01*
X33161Y16911D02*
X33421Y16911D01*
X33161Y16901D02*
X33411D01*
X33161Y16891D02*
X33411D01*
X33161Y16881D02*
X33411Y16881D01*
X33161Y16871D02*
X33411D01*
X33261Y17371D02*
X33521Y17371D01*
X33261Y17361D02*
X33511D01*
X33261Y17351D02*
X33511D01*
X33261Y17341D02*
X33511D01*
X33251Y17331D02*
X33511Y17331D01*
X33251Y17321D02*
X33511Y17321D01*
X33251Y17311D02*
X33511Y17311D01*
X33241Y17301D02*
X33511D01*
X33241Y17291D02*
X33511Y17291D01*
X33241Y17281D02*
X33511Y17281D01*
X33241Y17271D02*
X33501Y17271D01*
X33241Y17261D02*
X33491D01*
X33241Y17251D02*
X33491D01*
X33241Y17241D02*
X33491D01*
X33231Y17231D02*
X33491D01*
X33231Y17221D02*
X33491Y17221D01*
X33231Y17211D02*
X33491D01*
X33221Y17201D02*
X33491D01*
X33221Y17191D02*
X33481Y17191D01*
X33221Y17181D02*
X33471D01*
X33221Y17171D02*
X33471D01*
X33221Y17161D02*
X33471Y17161D01*
X33221Y17151D02*
X33471D01*
X33221Y17141D02*
X33471D01*
X33221Y17131D02*
X33471Y17131D01*
G54D13*
X35264Y17181D02*
X35454Y17181D01*
G54D14*
X15801Y18192D02*
X18321D01*
X15801D02*
Y20397D01*
X18321D01*
Y18192D02*
Y20397D01*
X27303Y28150D02*
X27362D01*
X26181Y29331D02*
X26240D01*
X27303D02*
X27362D01*
X26181Y28150D02*
X26240D01*
X26181D02*
Y28445D01*
Y29035D02*
Y29331D01*
X27362Y28150D02*
Y29331D01*
X24213D02*
X24272D01*
X25335Y28150D02*
X25394D01*
X24213D02*
X24272D01*
X25335Y29331D02*
X25394D01*
Y29035D02*
Y29331D01*
Y28150D02*
Y28445D01*
X24213Y28150D02*
Y29331D01*
X26181Y26516D02*
Y26575D01*
X25000Y25394D02*
Y25453D01*
Y26516D02*
Y26575D01*
X26181Y25394D02*
Y25453D01*
X25886Y25394D02*
X26181D01*
X25000D02*
X25295D01*
X25000Y26575D02*
X26181D01*
X25000Y22244D02*
Y22303D01*
X26181Y23366D02*
Y23425D01*
Y22244D02*
Y22303D01*
X25000Y23366D02*
Y23425D01*
X25295D01*
X25886D02*
X26181D01*
X25000Y22244D02*
X26181D01*
X48228Y29567D02*
X49409D01*
X49114Y30748D02*
X49409D01*
X48228D02*
X48524D01*
X48228Y30689D02*
Y30748D01*
X49409Y29567D02*
Y29626D01*
Y30689D02*
Y30748D01*
X48228Y29567D02*
Y29626D01*
X31693Y39252D02*
X32874D01*
X31693Y38071D02*
X31988D01*
X32579D02*
X32874D01*
Y38130D01*
X31693Y39193D02*
Y39252D01*
Y38071D02*
Y38130D01*
X32874Y39193D02*
Y39252D01*
X38780Y39252D02*
X39961D01*
X38780Y38071D02*
X39075D01*
X39665D02*
X39961D01*
Y38130D01*
X38780Y39193D02*
Y39252D01*
Y38071D02*
Y38130D01*
X39961Y39193D02*
Y39252D01*
X41142Y29567D02*
X42323D01*
X42028Y30748D02*
X42323D01*
X41142D02*
X41437D01*
X41142Y30689D02*
Y30748D01*
X42323Y29567D02*
Y29626D01*
Y30689D02*
Y30748D01*
X41142Y29567D02*
Y29626D01*
X48228Y39252D02*
X49409D01*
X48228Y38071D02*
X48524D01*
X49114D02*
X49409D01*
Y38130D01*
X48228Y39193D02*
Y39252D01*
Y38071D02*
Y38130D01*
X49409Y39193D02*
Y39252D01*
X31693Y29567D02*
X32874D01*
X32579Y30748D02*
X32874D01*
X31693D02*
X31988D01*
X31693Y30689D02*
Y30748D01*
X32874Y29567D02*
Y29626D01*
Y30689D02*
Y30748D01*
X31693Y29567D02*
Y29626D01*
X41142Y39252D02*
X42323D01*
X41142Y38071D02*
X41437D01*
X42028D02*
X42323D01*
Y38130D01*
X41142Y39193D02*
Y39252D01*
Y38071D02*
Y38130D01*
X42323Y39193D02*
Y39252D01*
X38780Y29567D02*
X39961D01*
X39665Y30748D02*
X39961D01*
X38780D02*
X39075D01*
X38780Y30689D02*
Y30748D01*
X39961Y29567D02*
Y29626D01*
Y30689D02*
Y30748D01*
X38780Y29567D02*
Y29626D01*
X50394Y32815D02*
Y32953D01*
X50354Y32815D02*
X50394D01*
X50000Y32825D02*
Y32943D01*
Y32825D02*
X50039D01*
X50354Y33533D02*
X50394D01*
Y33415D02*
Y33533D01*
X50000Y33543D02*
X50039D01*
X50000Y33406D02*
Y33543D01*
X30709Y35866D02*
Y36004D01*
X30748D01*
X31102Y35876D02*
Y35994D01*
X31063D02*
X31102D01*
X30709Y35285D02*
X30748D01*
X30709D02*
Y35404D01*
X31063Y35276D02*
X31102D01*
Y35413D01*
X38913Y34756D02*
X39050D01*
Y34717D02*
Y34756D01*
X38922Y34363D02*
X39040D01*
Y34402D01*
X38332Y34717D02*
Y34756D01*
X38450D01*
X38322Y34363D02*
Y34402D01*
Y34363D02*
X38460D01*
X42052Y34062D02*
X42190D01*
X42052D02*
Y34102D01*
X42062Y34456D02*
X42180D01*
X42062Y34417D02*
Y34456D01*
X42771Y34062D02*
Y34102D01*
X42652Y34062D02*
X42771D01*
X42780Y34417D02*
Y34456D01*
X42643D02*
X42780D01*
X26225Y29715D02*
X26357D01*
X26291D01*
Y30108D01*
X26225Y30043D01*
X26553Y29715D02*
Y30108D01*
X26750D01*
X26816Y30043D01*
Y29911D01*
X26750Y29846D01*
X26553D01*
X26947Y29715D02*
Y30108D01*
X27144D01*
X27209Y30043D01*
Y29911D01*
X27144Y29846D01*
X26947D01*
X27603Y30043D02*
X27537Y30108D01*
X27406D01*
X27341Y30043D01*
Y29977D01*
X27406Y29911D01*
X27537D01*
X27603Y29846D01*
Y29780D01*
X27537Y29715D01*
X27406D01*
X27341Y29780D01*
X27734Y29715D02*
X27865D01*
X27800D01*
Y29977D01*
X27734D01*
X28062Y29715D02*
Y29977D01*
X28259D01*
X28324Y29911D01*
Y29715D01*
X23386Y29799D02*
X23517D01*
X23451D01*
Y30193D01*
X23386Y30127D01*
X23714Y29799D02*
Y30193D01*
X23911D01*
X23976Y30127D01*
Y29996D01*
X23911Y29930D01*
X23714D01*
X24107Y29799D02*
Y30193D01*
X24304D01*
X24370Y30127D01*
Y29996D01*
X24304Y29930D01*
X24107D01*
X24763Y30127D02*
X24698Y30193D01*
X24567D01*
X24501Y30127D01*
Y30062D01*
X24567Y29996D01*
X24698D01*
X24763Y29930D01*
Y29865D01*
X24698Y29799D01*
X24567D01*
X24501Y29865D01*
X24960Y29799D02*
X25091D01*
X25157Y29865D01*
Y29996D01*
X25091Y30062D01*
X24960D01*
X24895Y29996D01*
Y29865D01*
X24960Y29799D01*
X25288Y30062D02*
Y29865D01*
X25354Y29799D01*
X25550D01*
Y30062D01*
X25747Y30127D02*
Y30062D01*
X25682D01*
X25813D01*
X25747D01*
Y29865D01*
X25813Y29799D01*
X24513Y23868D02*
Y24262D01*
X24644Y24130D01*
X24775Y24262D01*
Y23868D01*
X24906Y24262D02*
Y23868D01*
Y24065D01*
X25169D01*
Y24262D01*
Y23868D01*
X25300Y24262D02*
X25562D01*
Y24196D01*
X25300Y23934D01*
Y23868D01*
X25562D01*
X25694D02*
X25825D01*
X25759D01*
Y24130D01*
X25694D01*
X26021Y23868D02*
Y24130D01*
X26218D01*
X26284Y24065D01*
Y23868D01*
X24577Y26703D02*
Y27096D01*
X24708Y26965D01*
X24839Y27096D01*
Y26703D01*
X24970Y27096D02*
Y26703D01*
Y26900D01*
X25233D01*
Y27096D01*
Y26703D01*
X25364Y27096D02*
X25626D01*
Y27031D01*
X25364Y26768D01*
Y26703D01*
X25626D01*
X25823D02*
X25954D01*
X26020Y26768D01*
Y26900D01*
X25954Y26965D01*
X25823D01*
X25757Y26900D01*
Y26768D01*
X25823Y26703D01*
X26151Y26965D02*
Y26768D01*
X26217Y26703D01*
X26413D01*
Y26965D01*
X26610Y27031D02*
Y26965D01*
X26545D01*
X26676D01*
X26610D01*
Y26768D01*
X26676Y26703D01*
X36083Y39173D02*
Y38780D01*
X36345D01*
X36476D02*
Y39173D01*
X36739Y38780D01*
Y39173D01*
X36870Y38780D02*
Y39042D01*
X37001Y39173D01*
X37132Y39042D01*
Y38780D01*
Y38976D01*
X36870D01*
X37329Y38780D02*
X37460D01*
X37526Y38845D01*
Y38976D01*
X37460Y39042D01*
X37329D01*
X37263Y38976D01*
Y38845D01*
X37329Y38780D01*
X37657Y39042D02*
Y38845D01*
X37723Y38780D01*
X37919D01*
Y39042D01*
X38116Y39108D02*
Y39042D01*
X38051D01*
X38182D01*
X38116D01*
Y38845D01*
X38182Y38780D01*
X42825Y30718D02*
Y30325D01*
X43087D01*
X43218D02*
Y30718D01*
X43481Y30325D01*
Y30718D01*
X43612Y30325D02*
Y30587D01*
X43743Y30718D01*
X43874Y30587D01*
Y30325D01*
Y30522D01*
X43612D01*
X44071Y30325D02*
X44202D01*
X44268Y30390D01*
Y30522D01*
X44202Y30587D01*
X44071D01*
X44006Y30522D01*
Y30390D01*
X44071Y30325D01*
X44399Y30587D02*
Y30390D01*
X44465Y30325D01*
X44661D01*
Y30587D01*
X44858Y30653D02*
Y30587D01*
X44793D01*
X44924D01*
X44858D01*
Y30390D01*
X44924Y30325D01*
X36437Y30679D02*
Y30285D01*
X36699D01*
X36831D02*
Y30679D01*
X37093Y30285D01*
Y30679D01*
X37224Y30285D02*
Y30548D01*
X37355Y30679D01*
X37487Y30548D01*
Y30285D01*
Y30482D01*
X37224D01*
X37618Y30285D02*
X37749D01*
X37683D01*
Y30548D01*
X37618D01*
X37946Y30285D02*
Y30548D01*
X38142D01*
X38208Y30482D01*
Y30285D01*
X43022Y39173D02*
Y38780D01*
X43284D01*
X43415D02*
Y39173D01*
X43678Y38780D01*
Y39173D01*
X43809Y38780D02*
Y39042D01*
X43940Y39173D01*
X44071Y39042D01*
Y38780D01*
Y38976D01*
X43809D01*
X44202Y38780D02*
X44334D01*
X44268D01*
Y39042D01*
X44202D01*
X44530Y38780D02*
Y39042D01*
X44727D01*
X44793Y38976D01*
Y38780D01*
X46624Y39104D02*
X46886D01*
X46755D01*
Y38711D01*
X47018D02*
Y39104D01*
X47214D01*
X47280Y39039D01*
Y38907D01*
X47214Y38842D01*
X47018D01*
X47149D02*
X47280Y38711D01*
X47411Y39104D02*
X47674Y38711D01*
Y39104D02*
X47411Y38711D01*
X33373Y30738D02*
X33636D01*
X33504D01*
Y30344D01*
X33767D02*
Y30738D01*
X33964D01*
X34029Y30672D01*
Y30541D01*
X33964Y30476D01*
X33767D01*
X33898D02*
X34029Y30344D01*
X34160Y30738D02*
X34423Y30344D01*
Y30738D02*
X34160Y30344D01*
X46289Y30709D02*
X46552D01*
X46421D01*
Y30315D01*
X46683Y30709D02*
X46945Y30315D01*
Y30709D02*
X46683Y30315D01*
X47077D02*
X47208D01*
X47142D01*
Y30577D01*
X47077D01*
X47404Y30315D02*
Y30577D01*
X47601D01*
X47667Y30512D01*
Y30315D01*
X33317Y39163D02*
X33579D01*
X33448D01*
Y38770D01*
X33710Y39163D02*
X33973Y38770D01*
Y39163D02*
X33710Y38770D01*
X34104D02*
X34235D01*
X34170D01*
Y39032D01*
X34104D01*
X34432Y38770D02*
Y39032D01*
X34629D01*
X34694Y38966D01*
Y38770D01*
X23676Y33011D02*
X23476D01*
X23576D01*
Y32511D01*
X23476Y32411D01*
X23376D01*
X23276Y32511D01*
X23876Y33011D02*
X24276D01*
X24076D01*
Y32411D01*
X24476D02*
Y32811D01*
X24676Y33011D01*
X24876Y32811D01*
Y32411D01*
Y32711D01*
X24476D01*
X25475Y32911D02*
X25375Y33011D01*
X25175D01*
X25076Y32911D01*
Y32511D01*
X25175Y32411D01*
X25375D01*
X25475Y32511D01*
Y32711D01*
X25275D01*
X23766Y18621D02*
X23566D01*
X23666D01*
Y18122D01*
X23566Y18022D01*
X23466D01*
X23366Y18122D01*
X24366Y18022D02*
X23966D01*
X24366Y18422D01*
Y18521D01*
X24266Y18621D01*
X24066D01*
X23966Y18521D01*
X18452Y22595D02*
X18386Y22529D01*
Y22398D01*
X18452Y22333D01*
X18714D01*
X18780Y22398D01*
Y22529D01*
X18714Y22595D01*
X18583D01*
Y22464D01*
X18780Y22726D02*
X18386D01*
Y22923D01*
X18452Y22989D01*
X18583D01*
X18648Y22923D01*
Y22726D01*
X18386Y23120D02*
Y23251D01*
Y23185D01*
X18780D01*
Y23120D01*
Y23251D01*
X18386Y23645D02*
Y23513D01*
X18452Y23448D01*
X18714D01*
X18780Y23513D01*
Y23645D01*
X18714Y23710D01*
X18452D01*
X18386Y23645D01*
X18452Y23841D02*
X18386Y23907D01*
Y24038D01*
X18452Y24104D01*
X18517D01*
X18583Y24038D01*
Y23973D01*
Y24038D01*
X18648Y24104D01*
X18714D01*
X18780Y24038D01*
Y23907D01*
X18714Y23841D01*
X18780Y24235D02*
X18386D01*
X18780Y24497D01*
X18386D01*
X19997Y22595D02*
X19931Y22529D01*
Y22398D01*
X19997Y22333D01*
X20259D01*
X20325Y22398D01*
Y22529D01*
X20259Y22595D01*
X20128D01*
Y22464D01*
X20325Y22726D02*
X19931D01*
Y22923D01*
X19997Y22989D01*
X20128D01*
X20194Y22923D01*
Y22726D01*
X19931Y23120D02*
Y23251D01*
Y23185D01*
X20325D01*
Y23120D01*
Y23251D01*
X19931Y23645D02*
Y23513D01*
X19997Y23448D01*
X20259D01*
X20325Y23513D01*
Y23645D01*
X20259Y23710D01*
X19997D01*
X19931Y23645D01*
X19997Y23841D02*
X19931Y23907D01*
Y24038D01*
X19997Y24104D01*
X20062D01*
X20128Y24038D01*
Y23973D01*
Y24038D01*
X20194Y24104D01*
X20259D01*
X20325Y24038D01*
Y23907D01*
X20259Y23841D01*
X20325Y24235D02*
X19931D01*
Y24432D01*
X19997Y24497D01*
X20128D01*
X20194Y24432D01*
Y24235D01*
X19593Y33779D02*
X19393D01*
X19493D01*
Y33279D01*
X19393Y33179D01*
X19293D01*
X19193Y33279D01*
X19793Y33179D02*
X19993D01*
X19893D01*
Y33779D01*
X19793Y33679D01*
X23445Y33671D02*
X23707Y33278D01*
Y33671D02*
X23445Y33278D01*
X23838Y33606D02*
X23904Y33671D01*
X24035D01*
X24101Y33606D01*
Y33540D01*
X24035Y33474D01*
X24101Y33409D01*
Y33343D01*
X24035Y33278D01*
X23904D01*
X23838Y33343D01*
Y33409D01*
X23904Y33474D01*
X23838Y33540D01*
Y33606D01*
X23904Y33474D02*
X24035D01*
X21591Y23008D02*
X21526Y22943D01*
Y22812D01*
X21591Y22746D01*
X21854D01*
X21919Y22812D01*
Y22943D01*
X21854Y23008D01*
X21723D01*
Y22877D01*
X21919Y23140D02*
X21526D01*
Y23336D01*
X21591Y23402D01*
X21723D01*
X21788Y23336D01*
Y23140D01*
X21526Y23533D02*
Y23664D01*
Y23599D01*
X21919D01*
Y23533D01*
Y23664D01*
X21526Y24058D02*
Y23927D01*
X21591Y23861D01*
X21854D01*
X21919Y23927D01*
Y24058D01*
X21854Y24124D01*
X21591D01*
X21526Y24058D01*
X21591Y24255D02*
X21526Y24320D01*
Y24452D01*
X21591Y24517D01*
X21657D01*
X21723Y24452D01*
X21788Y24517D01*
X21854D01*
X21919Y24452D01*
Y24320D01*
X21854Y24255D01*
X21788D01*
X21723Y24320D01*
X21657Y24255D01*
X21591D01*
X21723Y24320D02*
Y24452D01*
X16545Y36899D02*
X16808Y36506D01*
Y36899D02*
X16545Y36506D01*
X16939D02*
X17070D01*
X17004D01*
Y36899D01*
X16939Y36834D01*
X23166Y23332D02*
X23101Y23266D01*
Y23135D01*
X23166Y23069D01*
X23428D01*
X23494Y23135D01*
Y23266D01*
X23428Y23332D01*
X23297D01*
Y23200D01*
X23494Y23463D02*
X23101D01*
X23494Y23725D01*
X23101D01*
Y23856D02*
X23494D01*
Y24053D01*
X23428Y24119D01*
X23166D01*
X23101Y24053D01*
Y23856D01*
X23494Y24250D02*
Y24381D01*
Y24315D01*
X23101D01*
X23166Y24250D01*
G54D15*
X31126Y34496D02*
X31246D01*
X31126Y34934D02*
X31246D01*
X30682Y34376D02*
X31075D01*
Y34061D02*
Y34376D01*
Y33549D02*
Y33864D01*
X30682Y33549D02*
X31075D01*
X30682D02*
Y33864D01*
Y34061D02*
Y34376D01*
X49811Y34220D02*
X49931D01*
X49811Y33782D02*
X49931D01*
X50413Y34301D02*
Y34695D01*
X50098Y34301D02*
X50413D01*
X49587D02*
X49902D01*
X49587D02*
Y34695D01*
X49902D01*
X50098D02*
X50413D01*
G54D16*
X31187Y33884D02*
X31487D01*
X18316Y28041D02*
X18616D01*
X19758Y19324D02*
X22770D01*
X19758Y20328D02*
X22770Y20328D01*
Y19324D02*
Y20328D01*
X20750Y19324D02*
Y20328D01*
X19758Y19324D02*
Y20328D01*
X17088Y32607D02*
Y32907D01*
X15748Y29298D02*
Y29598D01*
X26524Y32539D02*
X26824D01*
X23888Y35640D02*
X29892D01*
X23888Y36644D02*
X29892Y36644D01*
Y35640D02*
Y36644D01*
X24880Y35640D02*
Y36644D01*
X23888Y35640D02*
Y36644D01*
X19876Y36053D02*
Y37057D01*
X20868Y36053D02*
Y37057D01*
X22888Y36053D02*
Y37057D01*
X19876Y37057D02*
X22888Y37057D01*
X19876Y36053D02*
X22888D01*
X32579Y31603D02*
Y31903D01*
X34379Y33750D02*
X34679D01*
X40266Y32073D02*
Y32373D01*
X39075Y31601D02*
Y31901D01*
X48524Y36916D02*
Y37216D01*
X46433Y35069D02*
X46733D01*
X40837Y36446D02*
Y36746D01*
X42028Y36918D02*
Y37218D01*
X18907Y36640D02*
Y36940D01*
X22172Y30325D02*
X22472D01*
X18180Y28837D02*
Y29137D01*
X29466Y32486D02*
X29766D01*
X48670Y32008D02*
X48970D01*
X32132Y36811D02*
X32432D01*
X39065Y36879D02*
Y37179D01*
X42037Y31640D02*
Y31940D01*
X38484Y35021D02*
Y35321D01*
X42618Y33498D02*
Y33798D01*
X38474Y35557D02*
Y35857D01*
X42628Y32961D02*
Y33261D01*
X49956Y34842D02*
Y35142D01*
X31613Y33884D02*
X31913D01*
X49956Y35275D02*
Y35575D01*
X49081Y35984D02*
X49381D01*
X31721Y32835D02*
X32021D01*
X48696Y33956D02*
Y34256D01*
X32406Y34563D02*
Y34863D01*
X40915Y35556D02*
Y35856D01*
X40187Y32963D02*
Y33263D01*
G54D17*
X16805Y27115D02*
X17605D01*
X16805D02*
Y28615D01*
X17605D01*
Y27115D02*
Y28615D01*
X27436Y31265D02*
X27549Y31152D01*
X27436Y33027D02*
X27549Y33140D01*
Y31152D02*
X28730D01*
X28844Y31265D01*
X27549Y33140D02*
X28730D01*
X28844Y33027D01*
X20910Y27800D02*
X21024Y27687D01*
X20910Y29562D02*
X21024Y29675D01*
Y27687D02*
X22205D01*
X22318Y27800D01*
X21024Y29675D02*
X22205D01*
X22318Y29562D01*
X22604Y18210D02*
Y19350D01*
X23144D01*
Y18210D02*
Y19350D01*
X22604Y18210D02*
X23144D01*
X18347Y35901D02*
Y36441D01*
Y35901D02*
X19487D01*
Y36441D01*
X18347D02*
X19487D01*
X26438Y24364D02*
X27578D01*
Y23824D02*
Y24364D01*
X26438Y23824D02*
X27578D01*
X26438D02*
Y24364D01*
X41358Y32402D02*
Y32702D01*
X37904Y35990D02*
Y36530D01*
Y35990D02*
X39044D01*
Y36530D01*
X37904D02*
X39044D01*
X43198Y32289D02*
Y32829D01*
X42058D02*
X43198D01*
X42058Y32289D02*
Y32829D01*
Y32289D02*
X43198D01*
X49856Y33224D02*
Y33764D01*
X48716D02*
X49856D01*
X48716Y33224D02*
Y33764D01*
Y33224D02*
X49856D01*
X31246Y35055D02*
Y35595D01*
Y35055D02*
X32386D01*
Y35595D01*
X31246D02*
X32386D01*
X19625Y30674D02*
X20765D01*
Y30134D02*
Y30674D01*
X19625Y30134D02*
X20765D01*
X19625D02*
Y30674D01*
X19017Y29582D02*
X20157D01*
X19017D02*
Y30122D01*
X20157D01*
Y29582D02*
Y30122D01*
X15344Y26826D02*
Y27366D01*
X14204D02*
X15344D01*
X14204Y26826D02*
Y27366D01*
Y26826D02*
X15344D01*
Y27344D02*
Y27884D01*
X14204D02*
X15344D01*
X14204Y27344D02*
Y27884D01*
Y27344D02*
X15344D01*
X15355Y27870D02*
Y28410D01*
X14215D02*
X15355D01*
X14215Y27870D02*
Y28410D01*
Y27870D02*
X15355D01*
X39075Y35472D02*
Y36417D01*
Y35472D02*
X40217D01*
Y36417D01*
X39075D02*
X40217D01*
X39744Y36117D02*
Y36417D01*
X42028Y32402D02*
Y33346D01*
X40886D02*
X42028D01*
X40886Y32402D02*
Y33346D01*
Y32402D02*
X42028D01*
G54D18*
X19866Y20446D02*
X20654D01*
X19866Y19206D02*
X20654D01*
X23996Y36762D02*
X24783D01*
X23996Y35522D02*
X24783D01*
X19984Y35935D02*
X20772D01*
X19984Y37175D02*
X20772D01*
G54D19*
X18484Y18445D02*
X18780Y18642D01*
X18484D02*
X18780Y18445D01*
Y18740D02*
Y18838D01*
Y18789D01*
X18484D01*
X18534Y18740D01*
X18484Y18986D02*
Y19183D01*
X18534D01*
X18730Y18986D01*
X18780D01*
X30935Y31668D02*
X30886Y31619D01*
Y31520D01*
X30935Y31471D01*
X31132D01*
X31181Y31520D01*
Y31619D01*
X31132Y31668D01*
X31181Y31766D02*
Y31865D01*
Y31815D01*
X30886D01*
X30935Y31766D01*
X31132Y32012D02*
X31181Y32061D01*
Y32160D01*
X31132Y32209D01*
X30935D01*
X30886Y32160D01*
Y32061D01*
X30935Y32012D01*
X30984D01*
X31033Y32061D01*
Y32209D01*
X30886Y32307D02*
X31181D01*
Y32455D01*
X31132Y32504D01*
X31083D01*
X31033Y32455D01*
Y32307D01*
Y32455D01*
X30984Y32504D01*
X30935D01*
X30886Y32455D01*
Y32307D01*
X34803Y35640D02*
X35049D01*
X35098Y35689D01*
Y35787D01*
X35049Y35837D01*
X34803D01*
X34852Y35935D02*
X34803Y35984D01*
Y36083D01*
X34852Y36132D01*
X34902D01*
X34951Y36083D01*
Y36033D01*
Y36083D01*
X35000Y36132D01*
X35049D01*
X35098Y36083D01*
Y35984D01*
X35049Y35935D01*
X34803Y36230D02*
X35098D01*
Y36378D01*
X35049Y36427D01*
X35000D01*
X34951Y36378D01*
Y36230D01*
Y36378D01*
X34902Y36427D01*
X34852D01*
X34803Y36378D01*
Y36230D01*
X33121Y34926D02*
Y34631D01*
X33318D01*
X33613Y34926D02*
X33515Y34877D01*
X33416Y34779D01*
Y34680D01*
X33465Y34631D01*
X33564D01*
X33613Y34680D01*
Y34729D01*
X33564Y34779D01*
X33416D01*
X33711Y34926D02*
Y34631D01*
X33859D01*
X33908Y34680D01*
Y34729D01*
X33859Y34779D01*
X33711D01*
X33859D01*
X33908Y34828D01*
Y34877D01*
X33859Y34926D01*
X33711D01*
X31041Y32828D02*
Y32631D01*
X30844Y32828D01*
X30795D01*
X30746Y32779D01*
Y32680D01*
X30795Y32631D01*
X30746Y33123D02*
X30795Y33025D01*
X30893Y32926D01*
X30992D01*
X31041Y32975D01*
Y33074D01*
X30992Y33123D01*
X30943D01*
X30893Y33074D01*
Y32926D01*
X30746Y33221D02*
X31041D01*
Y33369D01*
X30992Y33418D01*
X30943D01*
X30893Y33369D01*
Y33221D01*
Y33369D01*
X30844Y33418D01*
X30795D01*
X30746Y33369D01*
Y33221D01*
X45807Y32441D02*
X46053D01*
X46102Y32490D01*
Y32589D01*
X46053Y32638D01*
X45807D01*
X45856Y32736D02*
X45807Y32785D01*
Y32884D01*
X45856Y32933D01*
X45906D01*
X45955Y32884D01*
Y32835D01*
Y32884D01*
X46004Y32933D01*
X46053D01*
X46102Y32884D01*
Y32785D01*
X46053Y32736D01*
X46102Y33031D02*
X45906D01*
X45807Y33130D01*
X45906Y33228D01*
X46102D01*
X45955D01*
Y33031D01*
X48696Y34692D02*
Y34397D01*
X48893D01*
X49188Y34692D02*
X49089Y34642D01*
X48991Y34544D01*
Y34446D01*
X49040Y34397D01*
X49139D01*
X49188Y34446D01*
Y34495D01*
X49139Y34544D01*
X48991D01*
X49286Y34397D02*
Y34593D01*
X49385Y34692D01*
X49483Y34593D01*
Y34397D01*
Y34544D01*
X49286D01*
X49723Y35945D02*
X49674Y35994D01*
X49576D01*
X49526Y35945D01*
Y35748D01*
X49576Y35699D01*
X49674D01*
X49723Y35748D01*
X50018Y35699D02*
X49822D01*
X50018Y35896D01*
Y35945D01*
X49969Y35994D01*
X49871D01*
X49822Y35945D01*
X50314Y35994D02*
X50215Y35945D01*
X50117Y35846D01*
Y35748D01*
X50166Y35699D01*
X50264D01*
X50314Y35748D01*
Y35797D01*
X50264Y35846D01*
X50117D01*
X50412Y35699D02*
Y35896D01*
X50510Y35994D01*
X50609Y35896D01*
Y35699D01*
Y35846D01*
X50412D01*
X17923Y27785D02*
X17874Y27736D01*
Y27638D01*
X17923Y27589D01*
X18120D01*
X18169Y27638D01*
Y27736D01*
X18120Y27785D01*
X17923Y27884D02*
X17874Y27933D01*
Y28031D01*
X17923Y28081D01*
X17973D01*
X18022Y28031D01*
Y27982D01*
Y28031D01*
X18071Y28081D01*
X18120D01*
X18169Y28031D01*
Y27933D01*
X18120Y27884D01*
X18750Y27716D02*
Y27388D01*
X18816Y27323D01*
X18947D01*
X19012Y27388D01*
Y27716D01*
X19144Y27323D02*
X19275D01*
X19209D01*
Y27716D01*
X19144Y27651D01*
X27919Y31073D02*
Y30778D01*
X28116D01*
X28214Y31024D02*
X28264Y31073D01*
X28362D01*
X28411Y31024D01*
Y30974D01*
X28362Y30925D01*
X28313D01*
X28362D01*
X28411Y30876D01*
Y30827D01*
X28362Y30778D01*
X28264D01*
X28214Y30827D01*
X21260Y30088D02*
Y29793D01*
X21457D01*
X21752D02*
X21555D01*
X21752Y29990D01*
Y30039D01*
X21703Y30088D01*
X21604D01*
X21555Y30039D01*
X14134Y29552D02*
Y29224D01*
X14200Y29158D01*
X14331D01*
X14396Y29224D01*
Y29552D01*
X14790Y29158D02*
X14527D01*
X14790Y29420D01*
Y29486D01*
X14724Y29552D01*
X14593D01*
X14527Y29486D01*
X16922Y33346D02*
X16873Y33395D01*
X16775D01*
X16726Y33346D01*
Y33149D01*
X16775Y33100D01*
X16873D01*
X16922Y33149D01*
X17021Y33100D02*
X17119D01*
X17070D01*
Y33395D01*
X17021Y33346D01*
X17267D02*
X17316Y33395D01*
X17414D01*
X17464Y33346D01*
Y33149D01*
X17414Y33100D01*
X17316D01*
X17267Y33149D01*
Y33346D01*
X15581Y29144D02*
X15531Y29193D01*
X15433D01*
X15384Y29144D01*
Y28947D01*
X15433Y28898D01*
X15531D01*
X15581Y28947D01*
X15679D02*
X15728Y28898D01*
X15827D01*
X15876Y28947D01*
Y29144D01*
X15827Y29193D01*
X15728D01*
X15679Y29144D01*
Y29094D01*
X15728Y29045D01*
X15876D01*
X26554Y30571D02*
X26751Y30276D01*
Y30571D02*
X26554Y30276D01*
X26849Y30522D02*
X26898Y30571D01*
X26997D01*
X27046Y30522D01*
Y30472D01*
X26997Y30423D01*
X26948D01*
X26997D01*
X27046Y30374D01*
Y30325D01*
X26997Y30276D01*
X26898D01*
X26849Y30325D01*
X24636Y30600D02*
X24833Y30305D01*
Y30600D02*
X24636Y30305D01*
X25079D02*
Y30600D01*
X24931Y30453D01*
X25128D01*
X26988Y24585D02*
Y24881D01*
X27136D01*
X27185Y24831D01*
Y24733D01*
X27136Y24684D01*
X26988D01*
X27087D02*
X27185Y24585D01*
X27480Y24881D02*
X27382Y24831D01*
X27283Y24733D01*
Y24635D01*
X27333Y24585D01*
X27431D01*
X27480Y24635D01*
Y24684D01*
X27431Y24733D01*
X27283D01*
X37697Y31998D02*
Y31752D01*
X37746Y31703D01*
X37844D01*
X37894Y31752D01*
Y31998D01*
X38189D02*
X38090Y31949D01*
X37992Y31850D01*
Y31752D01*
X38041Y31703D01*
X38140D01*
X38189Y31752D01*
Y31801D01*
X38140Y31850D01*
X37992D01*
X38287Y31998D02*
Y31703D01*
X38435D01*
X38484Y31752D01*
Y31801D01*
X38435Y31850D01*
X38287D01*
X38435D01*
X38484Y31900D01*
Y31949D01*
X38435Y31998D01*
X38287D01*
X42579Y37146D02*
Y36900D01*
X42628Y36850D01*
X42726D01*
X42776Y36900D01*
Y37146D01*
X43071D02*
X42972Y37096D01*
X42874Y36998D01*
Y36900D01*
X42923Y36850D01*
X43022D01*
X43071Y36900D01*
Y36949D01*
X43022Y36998D01*
X42874D01*
X43169Y36850D02*
Y37047D01*
X43267Y37146D01*
X43366Y37047D01*
Y36850D01*
Y36998D01*
X43169D01*
X33595Y32461D02*
Y32215D01*
X33645Y32165D01*
X33743D01*
X33792Y32215D01*
Y32461D01*
X34087D02*
X33891D01*
Y32313D01*
X33989Y32362D01*
X34038D01*
X34087Y32313D01*
Y32215D01*
X34038Y32165D01*
X33940D01*
X33891Y32215D01*
X34186Y32461D02*
Y32165D01*
X34333D01*
X34383Y32215D01*
Y32264D01*
X34333Y32313D01*
X34186D01*
X34333D01*
X34383Y32362D01*
Y32411D01*
X34333Y32461D01*
X34186D01*
X46841Y36762D02*
Y36516D01*
X46890Y36467D01*
X46988D01*
X47037Y36516D01*
Y36762D01*
X47333D02*
X47136D01*
Y36614D01*
X47234Y36663D01*
X47283D01*
X47333Y36614D01*
Y36516D01*
X47283Y36467D01*
X47185D01*
X47136Y36516D01*
X47431Y36467D02*
Y36663D01*
X47529Y36762D01*
X47628Y36663D01*
Y36467D01*
Y36614D01*
X47431D01*
X13071Y28486D02*
Y28191D01*
X13268D01*
X13563Y28486D02*
X13366D01*
Y28191D01*
X13563D01*
X13366Y28339D02*
X13465D01*
X13661Y28486D02*
Y28191D01*
X13809D01*
X13858Y28240D01*
Y28437D01*
X13809Y28486D01*
X13661D01*
X13957Y28437D02*
X14006Y28486D01*
X14104D01*
X14153Y28437D01*
Y28388D01*
X14104Y28339D01*
X14055D01*
X14104D01*
X14153Y28289D01*
Y28240D01*
X14104Y28191D01*
X14006D01*
X13957Y28240D01*
X13081Y27916D02*
Y27621D01*
X13278D01*
X13573Y27916D02*
X13376D01*
Y27621D01*
X13573D01*
X13376Y27769D02*
X13475D01*
X13671Y27916D02*
Y27621D01*
X13819D01*
X13868Y27670D01*
Y27867D01*
X13819Y27916D01*
X13671D01*
X14163Y27621D02*
X13967D01*
X14163Y27818D01*
Y27867D01*
X14114Y27916D01*
X14016D01*
X13967Y27867D01*
X13131Y27406D02*
Y27111D01*
X13328D01*
X13623Y27406D02*
X13426D01*
Y27111D01*
X13623D01*
X13426Y27259D02*
X13525D01*
X13721Y27406D02*
Y27111D01*
X13869D01*
X13918Y27160D01*
Y27357D01*
X13869Y27406D01*
X13721D01*
X14017Y27111D02*
X14115D01*
X14066D01*
Y27406D01*
X14017Y27357D01*
X26164Y32628D02*
X26114Y32579D01*
Y32480D01*
X26164Y32431D01*
X26360D01*
X26410Y32480D01*
Y32579D01*
X26360Y32628D01*
X26410Y32726D02*
Y32825D01*
Y32775D01*
X26114D01*
X26164Y32726D01*
X26410Y33169D02*
Y32972D01*
X26213Y33169D01*
X26164D01*
X26114Y33120D01*
Y33021D01*
X26164Y32972D01*
X18661Y35785D02*
Y35490D01*
X18858D01*
X18957D02*
X19055D01*
X19006D01*
Y35785D01*
X18957Y35736D01*
X33386Y31890D02*
X33337Y31939D01*
X33238D01*
X33189Y31890D01*
Y31693D01*
X33238Y31644D01*
X33337D01*
X33386Y31693D01*
X33681Y31644D02*
X33484D01*
X33681Y31840D01*
Y31890D01*
X33632Y31939D01*
X33533D01*
X33484Y31890D01*
X33976Y31939D02*
X33779D01*
Y31791D01*
X33878Y31840D01*
X33927D01*
X33976Y31791D01*
Y31693D01*
X33927Y31644D01*
X33829D01*
X33779Y31693D01*
X34075Y31939D02*
Y31644D01*
X34222D01*
X34271Y31693D01*
Y31742D01*
X34222Y31791D01*
X34075D01*
X34222D01*
X34271Y31840D01*
Y31890D01*
X34222Y31939D01*
X34075D01*
X47077Y37175D02*
X47028Y37224D01*
X46929D01*
X46880Y37175D01*
Y36978D01*
X46929Y36929D01*
X47028D01*
X47077Y36978D01*
X47372Y36929D02*
X47175D01*
X47372Y37126D01*
Y37175D01*
X47323Y37224D01*
X47224D01*
X47175Y37175D01*
X47667Y37224D02*
X47470D01*
Y37077D01*
X47569Y37126D01*
X47618D01*
X47667Y37077D01*
Y36978D01*
X47618Y36929D01*
X47519D01*
X47470Y36978D01*
X47765Y36929D02*
Y37126D01*
X47864Y37224D01*
X47962Y37126D01*
Y36929D01*
Y37077D01*
X47765D01*
X39951Y32766D02*
X39902Y32815D01*
X39803D01*
X39754Y32766D01*
Y32569D01*
X39803Y32520D01*
X39902D01*
X39951Y32569D01*
X40246Y32520D02*
X40049D01*
X40246Y32716D01*
Y32766D01*
X40197Y32815D01*
X40098D01*
X40049Y32766D01*
X40492Y32520D02*
Y32815D01*
X40344Y32667D01*
X40541D01*
X40639Y32815D02*
Y32520D01*
X40787D01*
X40836Y32569D01*
Y32618D01*
X40787Y32667D01*
X40639D01*
X40787D01*
X40836Y32716D01*
Y32766D01*
X40787Y32815D01*
X40639D01*
X40492Y36250D02*
X40443Y36299D01*
X40344D01*
X40295Y36250D01*
Y36053D01*
X40344Y36004D01*
X40443D01*
X40492Y36053D01*
X40787Y36004D02*
X40590D01*
X40787Y36201D01*
Y36250D01*
X40738Y36299D01*
X40640D01*
X40590Y36250D01*
X41033Y36004D02*
Y36299D01*
X40886Y36152D01*
X41082D01*
X41181Y36004D02*
Y36201D01*
X41279Y36299D01*
X41378Y36201D01*
Y36004D01*
Y36152D01*
X41181D01*
X39852Y31801D02*
X39803Y31850D01*
X39705D01*
X39656Y31801D01*
Y31604D01*
X39705Y31555D01*
X39803D01*
X39852Y31604D01*
X40147Y31555D02*
X39951D01*
X40147Y31752D01*
Y31801D01*
X40098Y31850D01*
X40000D01*
X39951Y31801D01*
X40246Y31555D02*
X40344D01*
X40295D01*
Y31850D01*
X40246Y31801D01*
X40492Y31850D02*
Y31555D01*
X40639D01*
X40689Y31604D01*
Y31654D01*
X40639Y31703D01*
X40492D01*
X40639D01*
X40689Y31752D01*
Y31801D01*
X40639Y31850D01*
X40492D01*
X40640Y37165D02*
X40591Y37214D01*
X40492D01*
X40443Y37165D01*
Y36968D01*
X40492Y36919D01*
X40591D01*
X40640Y36968D01*
X40935Y36919D02*
X40738D01*
X40935Y37116D01*
Y37165D01*
X40886Y37214D01*
X40787D01*
X40738Y37165D01*
X41033Y36919D02*
X41132D01*
X41082D01*
Y37214D01*
X41033Y37165D01*
X41279Y36919D02*
Y37116D01*
X41378Y37214D01*
X41476Y37116D01*
Y36919D01*
Y37067D01*
X41279D01*
X35020Y33494D02*
X34971Y33445D01*
Y33346D01*
X35020Y33297D01*
X35217D01*
X35266Y33346D01*
Y33445D01*
X35217Y33494D01*
X35266Y33592D02*
Y33691D01*
Y33642D01*
X34971D01*
X35020Y33592D01*
X34971Y33838D02*
Y34035D01*
X35020D01*
X35217Y33838D01*
X35266D01*
X34971Y34134D02*
X35266D01*
Y34281D01*
X35217Y34330D01*
X35167D01*
X35118Y34281D01*
Y34134D01*
Y34281D01*
X35069Y34330D01*
X35020D01*
X34971Y34281D01*
Y34134D01*
X45994Y34705D02*
X45945Y34655D01*
Y34557D01*
X45994Y34508D01*
X46191D01*
X46240Y34557D01*
Y34655D01*
X46191Y34705D01*
X46240Y34803D02*
Y34901D01*
Y34852D01*
X45945D01*
X45994Y34803D01*
X45945Y35049D02*
Y35246D01*
X45994D01*
X46191Y35049D01*
X46240D01*
Y35344D02*
X46043D01*
X45945Y35443D01*
X46043Y35541D01*
X46240D01*
X46093D01*
Y35344D01*
X23907Y26112D02*
X24104Y25817D01*
Y26112D02*
X23907Y25817D01*
X24203D02*
X24301D01*
X24252D01*
Y26112D01*
X24203Y26063D01*
X24449Y25817D02*
X24547D01*
X24498D01*
Y26112D01*
X24449Y26063D01*
X23858Y22992D02*
X24055Y22697D01*
Y22992D02*
X23858Y22697D01*
X24153D02*
X24252D01*
X24203D01*
Y22992D01*
X24153Y22943D01*
X24596Y22697D02*
X24399D01*
X24596Y22894D01*
Y22943D01*
X24547Y22992D01*
X24449D01*
X24399Y22943D01*
X20010Y30817D02*
Y31112D01*
X20157D01*
X20207Y31063D01*
Y30965D01*
X20157Y30915D01*
X20010D01*
X20108D02*
X20207Y30817D01*
X20502Y31112D02*
X20305D01*
Y30965D01*
X20403Y31014D01*
X20453D01*
X20502Y30965D01*
Y30866D01*
X20453Y30817D01*
X20354D01*
X20305Y30866D01*
X18396Y30000D02*
Y30295D01*
X18543D01*
X18592Y30246D01*
Y30148D01*
X18543Y30098D01*
X18396D01*
X18494D02*
X18592Y30000D01*
X18838D02*
Y30295D01*
X18691Y30148D01*
X18888D01*
X18041Y36909D02*
X17992Y36959D01*
X17894D01*
X17844Y36909D01*
Y36713D01*
X17894Y36663D01*
X17992D01*
X18041Y36713D01*
X18336Y36663D02*
X18140D01*
X18336Y36860D01*
Y36909D01*
X18287Y36959D01*
X18189D01*
X18140Y36909D01*
X22756Y30319D02*
X22707Y30270D01*
Y30172D01*
X22756Y30122D01*
X22953D01*
X23002Y30172D01*
Y30270D01*
X22953Y30319D01*
X22707Y30418D02*
Y30614D01*
X22756D01*
X22953Y30418D01*
X23002D01*
X22966Y27648D02*
X22917Y27697D01*
X22819D01*
X22770Y27648D01*
Y27451D01*
X22819Y27402D01*
X22917D01*
X22966Y27451D01*
X23065Y27648D02*
X23114Y27697D01*
X23212D01*
X23262Y27648D01*
Y27598D01*
X23212Y27549D01*
X23262Y27500D01*
Y27451D01*
X23212Y27402D01*
X23114D01*
X23065Y27451D01*
Y27500D01*
X23114Y27549D01*
X23065Y27598D01*
Y27648D01*
X23114Y27549D02*
X23212D01*
X18101Y29518D02*
X18051Y29567D01*
X17953D01*
X17904Y29518D01*
Y29321D01*
X17953Y29272D01*
X18051D01*
X18101Y29321D01*
X18347Y29272D02*
Y29567D01*
X18199Y29419D01*
X18396D01*
X31319Y14635D02*
X31516Y14340D01*
Y14635D02*
X31319Y14340D01*
X31811D02*
X31614D01*
X31811Y14537D01*
Y14586D01*
X31762Y14635D01*
X31663D01*
X31614Y14586D01*
X15455Y26934D02*
Y27229D01*
X15603D01*
X15652Y27180D01*
Y27081D01*
X15603Y27032D01*
X15455D01*
X15554D02*
X15652Y26934D01*
X15750Y27229D02*
X15947D01*
Y27180D01*
X15750Y26983D01*
Y26934D01*
X35098Y29793D02*
X35295Y29498D01*
Y29793D02*
X35098Y29498D01*
X35394D02*
X35492D01*
X35443D01*
Y29793D01*
X35394Y29744D01*
X35640D02*
X35689Y29793D01*
X35787D01*
X35836Y29744D01*
Y29547D01*
X35787Y29498D01*
X35689D01*
X35640Y29547D01*
Y29744D01*
X35098Y29301D02*
X35000D01*
X35049D01*
Y29055D01*
X35000Y29006D01*
X34951D01*
X34902Y29055D01*
X35197Y29301D02*
X35394D01*
X35295D01*
Y29006D01*
X35492D02*
Y29203D01*
X35590Y29301D01*
X35689Y29203D01*
Y29006D01*
Y29153D01*
X35492D01*
X35984Y29252D02*
X35935Y29301D01*
X35836D01*
X35787Y29252D01*
Y29055D01*
X35836Y29006D01*
X35935D01*
X35984Y29055D01*
Y29153D01*
X35886D01*
X15433Y27456D02*
Y27751D01*
X15581D01*
X15630Y27702D01*
Y27604D01*
X15581Y27555D01*
X15433D01*
X15531D02*
X15630Y27456D01*
X15728Y27702D02*
X15777Y27751D01*
X15876D01*
X15925Y27702D01*
Y27653D01*
X15876Y27604D01*
X15925Y27555D01*
Y27505D01*
X15876Y27456D01*
X15777D01*
X15728Y27505D01*
Y27555D01*
X15777Y27604D01*
X15728Y27653D01*
Y27702D01*
X15777Y27604D02*
X15876D01*
X15487Y28012D02*
Y28307D01*
X15634D01*
X15683Y28258D01*
Y28159D01*
X15634Y28110D01*
X15487D01*
X15585D02*
X15683Y28012D01*
X15782Y28061D02*
X15831Y28012D01*
X15929D01*
X15979Y28061D01*
Y28258D01*
X15929Y28307D01*
X15831D01*
X15782Y28258D01*
Y28209D01*
X15831Y28159D01*
X15979D01*
X16427Y27707D02*
X16378Y27657D01*
Y27559D01*
X16427Y27510D01*
X16624D01*
X16673Y27559D01*
Y27657D01*
X16624Y27707D01*
X16673Y27805D02*
Y27903D01*
Y27854D01*
X16378D01*
X16427Y27805D01*
X29372Y31476D02*
X29323Y31427D01*
Y31329D01*
X29372Y31280D01*
X29568D01*
X29618Y31329D01*
Y31427D01*
X29568Y31476D01*
X29618Y31575D02*
Y31673D01*
Y31624D01*
X29323D01*
X29372Y31575D01*
X29618Y31821D02*
Y31919D01*
Y31870D01*
X29323D01*
X29372Y31821D01*
X49124Y31703D02*
X49075Y31653D01*
Y31555D01*
X49124Y31506D01*
X49321D01*
X49370Y31555D01*
Y31653D01*
X49321Y31703D01*
X49370Y31801D02*
Y31899D01*
Y31850D01*
X49075D01*
X49124Y31801D01*
Y32047D02*
X49075Y32096D01*
Y32195D01*
X49124Y32244D01*
X49173D01*
X49222Y32195D01*
Y32145D01*
Y32195D01*
X49272Y32244D01*
X49321D01*
X49370Y32195D01*
Y32096D01*
X49321Y32047D01*
X49370Y32342D02*
X49173D01*
X49075Y32441D01*
X49173Y32539D01*
X49370D01*
X49222D01*
Y32342D01*
X31765Y36458D02*
X31716Y36409D01*
Y36310D01*
X31765Y36261D01*
X31962D01*
X32011Y36310D01*
Y36409D01*
X31962Y36458D01*
X32011Y36556D02*
Y36655D01*
Y36605D01*
X31716D01*
X31765Y36556D01*
Y36802D02*
X31716Y36851D01*
Y36950D01*
X31765Y36999D01*
X31814D01*
X31863Y36950D01*
Y36901D01*
Y36950D01*
X31913Y36999D01*
X31962D01*
X32011Y36950D01*
Y36851D01*
X31962Y36802D01*
X31716Y37097D02*
X32011D01*
Y37245D01*
X31962Y37294D01*
X31913D01*
X31863Y37245D01*
Y37097D01*
Y37245D01*
X31814Y37294D01*
X31765D01*
X31716Y37245D01*
Y37097D01*
X39331Y36732D02*
X39281Y36781D01*
X39183D01*
X39134Y36732D01*
Y36535D01*
X39183Y36486D01*
X39281D01*
X39331Y36535D01*
X39429Y36486D02*
X39527D01*
X39478D01*
Y36781D01*
X39429Y36732D01*
X39823Y36486D02*
Y36781D01*
X39675Y36634D01*
X39872D01*
X39970Y36486D02*
Y36683D01*
X40069Y36781D01*
X40167Y36683D01*
Y36486D01*
Y36634D01*
X39970D01*
X41142Y32283D02*
X41092Y32333D01*
X40994D01*
X40945Y32283D01*
Y32087D01*
X40994Y32037D01*
X41092D01*
X41142Y32087D01*
X41240Y32037D02*
X41338D01*
X41289D01*
Y32333D01*
X41240Y32283D01*
X41634Y32037D02*
Y32333D01*
X41486Y32185D01*
X41683D01*
X41781Y32333D02*
Y32037D01*
X41929D01*
X41978Y32087D01*
Y32136D01*
X41929Y32185D01*
X41781D01*
X41929D01*
X41978Y32234D01*
Y32283D01*
X41929Y32333D01*
X41781D01*
X39360Y34961D02*
X39311Y35010D01*
X39213D01*
X39163Y34961D01*
Y34764D01*
X39213Y34715D01*
X39311D01*
X39360Y34764D01*
X39459Y34715D02*
X39557D01*
X39508D01*
Y35010D01*
X39459Y34961D01*
X39901Y35010D02*
X39705D01*
Y34862D01*
X39803Y34911D01*
X39852D01*
X39901Y34862D01*
Y34764D01*
X39852Y34715D01*
X39754D01*
X39705Y34764D01*
X40000Y34715D02*
Y34911D01*
X40098Y35010D01*
X40197Y34911D01*
Y34715D01*
Y34862D01*
X40000D01*
X41127Y34044D02*
X41078Y34093D01*
X40979D01*
X40930Y34044D01*
Y33847D01*
X40979Y33798D01*
X41078D01*
X41127Y33847D01*
X41225Y33798D02*
X41324D01*
X41275D01*
Y34093D01*
X41225Y34044D01*
X41668Y34093D02*
X41471D01*
Y33945D01*
X41570Y33995D01*
X41619D01*
X41668Y33945D01*
Y33847D01*
X41619Y33798D01*
X41521D01*
X41471Y33847D01*
X41767Y34093D02*
Y33798D01*
X41914D01*
X41963Y33847D01*
Y33896D01*
X41914Y33945D01*
X41767D01*
X41914D01*
X41963Y33995D01*
Y34044D01*
X41914Y34093D01*
X41767D01*
X37047Y35531D02*
X36998Y35581D01*
X36900D01*
X36850Y35531D01*
Y35335D01*
X36900Y35285D01*
X36998D01*
X37047Y35335D01*
X37146Y35285D02*
X37244D01*
X37195D01*
Y35581D01*
X37146Y35531D01*
X37588Y35581D02*
X37490Y35531D01*
X37392Y35433D01*
Y35335D01*
X37441Y35285D01*
X37539D01*
X37588Y35335D01*
Y35384D01*
X37539Y35433D01*
X37392D01*
X37687Y35285D02*
Y35482D01*
X37785Y35581D01*
X37884Y35482D01*
Y35285D01*
Y35433D01*
X37687D01*
X43440Y33536D02*
X43391Y33585D01*
X43292D01*
X43243Y33536D01*
Y33339D01*
X43292Y33290D01*
X43391D01*
X43440Y33339D01*
X43538Y33290D02*
X43637D01*
X43588D01*
Y33585D01*
X43538Y33536D01*
X43981Y33585D02*
X43883Y33536D01*
X43784Y33438D01*
Y33339D01*
X43834Y33290D01*
X43932D01*
X43981Y33339D01*
Y33388D01*
X43932Y33438D01*
X43784D01*
X44080Y33585D02*
Y33290D01*
X44227D01*
X44276Y33339D01*
Y33388D01*
X44227Y33438D01*
X44080D01*
X44227D01*
X44276Y33487D01*
Y33536D01*
X44227Y33585D01*
X44080D01*
X49734Y36388D02*
X49685Y36437D01*
X49587D01*
X49537Y36388D01*
Y36191D01*
X49587Y36142D01*
X49685D01*
X49734Y36191D01*
X49833Y36142D02*
X49931D01*
X49882D01*
Y36437D01*
X49833Y36388D01*
X50079D02*
X50128Y36437D01*
X50226D01*
X50275Y36388D01*
Y36338D01*
X50226Y36289D01*
X50275Y36240D01*
Y36191D01*
X50226Y36142D01*
X50128D01*
X50079Y36191D01*
Y36240D01*
X50128Y36289D01*
X50079Y36338D01*
Y36388D01*
X50128Y36289D02*
X50226D01*
X50374Y36142D02*
Y36338D01*
X50472Y36437D01*
X50571Y36338D01*
Y36142D01*
Y36289D01*
X50374D01*
X31345Y31688D02*
X31296Y31639D01*
Y31540D01*
X31345Y31491D01*
X31542D01*
X31591Y31540D01*
Y31639D01*
X31542Y31688D01*
X31591Y31786D02*
Y31885D01*
Y31835D01*
X31296D01*
X31345Y31786D01*
Y32032D02*
X31296Y32081D01*
Y32180D01*
X31345Y32229D01*
X31394D01*
X31443Y32180D01*
X31493Y32229D01*
X31542D01*
X31591Y32180D01*
Y32081D01*
X31542Y32032D01*
X31493D01*
X31443Y32081D01*
X31394Y32032D01*
X31345D01*
X31443Y32081D02*
Y32180D01*
X31296Y32327D02*
X31591D01*
Y32475D01*
X31542Y32524D01*
X31493D01*
X31443Y32475D01*
Y32327D01*
Y32475D01*
X31394Y32524D01*
X31345D01*
X31296Y32475D01*
Y32327D01*
X49729Y36860D02*
X49680Y36909D01*
X49582D01*
X49532Y36860D01*
Y36663D01*
X49582Y36614D01*
X49680D01*
X49729Y36663D01*
X49828Y36614D02*
X49926D01*
X49877D01*
Y36909D01*
X49828Y36860D01*
X50074Y36663D02*
X50123Y36614D01*
X50221D01*
X50270Y36663D01*
Y36860D01*
X50221Y36909D01*
X50123D01*
X50074Y36860D01*
Y36811D01*
X50123Y36762D01*
X50270D01*
X50369Y36614D02*
Y36811D01*
X50467Y36909D01*
X50566Y36811D01*
Y36614D01*
Y36762D01*
X50369D01*
X48504Y36786D02*
X48455Y36836D01*
X48356D01*
X48307Y36786D01*
Y36590D01*
X48356Y36540D01*
X48455D01*
X48504Y36590D01*
X48799Y36540D02*
X48602D01*
X48799Y36737D01*
Y36786D01*
X48750Y36836D01*
X48651D01*
X48602Y36786D01*
X48897D02*
X48947Y36836D01*
X49045D01*
X49094Y36786D01*
Y36737D01*
X49045Y36688D01*
X48996D01*
X49045D01*
X49094Y36639D01*
Y36590D01*
X49045Y36540D01*
X48947D01*
X48897Y36590D01*
X49193Y36540D02*
Y36737D01*
X49291Y36836D01*
X49389Y36737D01*
Y36540D01*
Y36688D01*
X49193D01*
X31888Y32267D02*
X31839Y32316D01*
X31740D01*
X31691Y32267D01*
Y32070D01*
X31740Y32021D01*
X31839D01*
X31888Y32070D01*
X32183Y32021D02*
X31986D01*
X32183Y32218D01*
Y32267D01*
X32134Y32316D01*
X32035D01*
X31986Y32267D01*
X32281D02*
X32331Y32316D01*
X32429D01*
X32478Y32267D01*
Y32218D01*
X32429Y32169D01*
X32380D01*
X32429D01*
X32478Y32119D01*
Y32070D01*
X32429Y32021D01*
X32331D01*
X32281Y32070D01*
X32577Y32316D02*
Y32021D01*
X32724D01*
X32773Y32070D01*
Y32119D01*
X32724Y32169D01*
X32577D01*
X32724D01*
X32773Y32218D01*
Y32267D01*
X32724Y32316D01*
X32577D01*
X47205Y34213D02*
X47155Y34262D01*
X47057D01*
X47008Y34213D01*
Y34016D01*
X47057Y33967D01*
X47155D01*
X47205Y34016D01*
X47500Y33967D02*
X47303D01*
X47500Y34163D01*
Y34213D01*
X47451Y34262D01*
X47352D01*
X47303Y34213D01*
X47598D02*
X47647Y34262D01*
X47746D01*
X47795Y34213D01*
Y34016D01*
X47746Y33967D01*
X47647D01*
X47598Y34016D01*
Y34213D01*
X47893Y33967D02*
Y34163D01*
X47992Y34262D01*
X48090Y34163D01*
Y33967D01*
Y34114D01*
X47893D01*
X34278Y34877D02*
X34229Y34926D01*
X34130D01*
X34081Y34877D01*
Y34680D01*
X34130Y34631D01*
X34229D01*
X34278Y34680D01*
X34573Y34631D02*
X34376D01*
X34573Y34828D01*
Y34877D01*
X34524Y34926D01*
X34425D01*
X34376Y34877D01*
X34671D02*
X34721Y34926D01*
X34819D01*
X34868Y34877D01*
Y34680D01*
X34819Y34631D01*
X34721D01*
X34671Y34680D01*
Y34877D01*
X34967Y34926D02*
Y34631D01*
X35114D01*
X35163Y34680D01*
Y34729D01*
X35114Y34779D01*
X34967D01*
X35114D01*
X35163Y34828D01*
Y34877D01*
X35114Y34926D01*
X34967D01*
X39311Y35394D02*
Y35148D01*
X39360Y35098D01*
X39459D01*
X39508Y35148D01*
Y35394D01*
X39754Y35098D02*
Y35394D01*
X39606Y35246D01*
X39803D01*
X39901Y35098D02*
Y35295D01*
X40000Y35394D01*
X40098Y35295D01*
Y35098D01*
Y35246D01*
X39901D01*
X40994Y33661D02*
Y33415D01*
X41043Y33366D01*
X41142D01*
X41191Y33415D01*
Y33661D01*
X41437Y33366D02*
Y33661D01*
X41289Y33514D01*
X41486D01*
X41584Y33661D02*
Y33366D01*
X41732D01*
X41781Y33415D01*
Y33465D01*
X41732Y33514D01*
X41584D01*
X41732D01*
X41781Y33563D01*
Y33612D01*
X41732Y33661D01*
X41584D01*
X49774Y30335D02*
X49970Y30039D01*
Y30335D02*
X49774Y30039D01*
X50069D02*
X50167D01*
X50118D01*
Y30335D01*
X50069Y30285D01*
X50315D02*
X50364Y30335D01*
X50462D01*
X50512Y30285D01*
Y30236D01*
X50462Y30187D01*
X50413D01*
X50462D01*
X50512Y30138D01*
Y30089D01*
X50462Y30039D01*
X50364D01*
X50315Y30089D01*
X50610Y30039D02*
Y30236D01*
X50708Y30335D01*
X50807Y30236D01*
Y30039D01*
Y30187D01*
X50610D01*
X30630Y38829D02*
X30827Y38533D01*
Y38829D02*
X30630Y38533D01*
X30925D02*
X31023D01*
X30974D01*
Y38829D01*
X30925Y38779D01*
X31171D02*
X31220Y38829D01*
X31319D01*
X31368Y38779D01*
Y38730D01*
X31319Y38681D01*
X31269D01*
X31319D01*
X31368Y38632D01*
Y38583D01*
X31319Y38533D01*
X31220D01*
X31171Y38583D01*
X31466Y38829D02*
Y38533D01*
X31614D01*
X31663Y38583D01*
Y38632D01*
X31614Y38681D01*
X31466D01*
X31614D01*
X31663Y38730D01*
Y38779D01*
X31614Y38829D01*
X31466D01*
X37283Y38514D02*
X37480Y38219D01*
Y38514D02*
X37283Y38219D01*
X37579D02*
X37677D01*
X37628D01*
Y38514D01*
X37579Y38464D01*
X37972Y38219D02*
Y38514D01*
X37825Y38366D01*
X38021D01*
X38120Y38219D02*
Y38415D01*
X38218Y38514D01*
X38317Y38415D01*
Y38219D01*
Y38366D01*
X38120D01*
X42766Y30020D02*
X42963Y29724D01*
Y30020D02*
X42766Y29724D01*
X43061D02*
X43159D01*
X43110D01*
Y30020D01*
X43061Y29970D01*
X43454Y29724D02*
Y30020D01*
X43307Y29872D01*
X43504D01*
X43602Y30020D02*
Y29724D01*
X43750D01*
X43799Y29774D01*
Y29823D01*
X43750Y29872D01*
X43602D01*
X43750D01*
X43799Y29921D01*
Y29970D01*
X43750Y30020D01*
X43602D01*
X49803Y38809D02*
X50000Y38514D01*
Y38809D02*
X49803Y38514D01*
X50098D02*
X50197D01*
X50148D01*
Y38809D01*
X50098Y38760D01*
X50541Y38809D02*
X50344D01*
Y38661D01*
X50443Y38711D01*
X50492D01*
X50541Y38661D01*
Y38563D01*
X50492Y38514D01*
X50394D01*
X50344Y38563D01*
X50640Y38514D02*
Y38711D01*
X50738Y38809D01*
X50836Y38711D01*
Y38514D01*
Y38661D01*
X50640D01*
X30207Y30305D02*
X30403Y30010D01*
Y30305D02*
X30207Y30010D01*
X30502D02*
X30600D01*
X30551D01*
Y30305D01*
X30502Y30256D01*
X30945Y30305D02*
X30748D01*
Y30157D01*
X30846Y30207D01*
X30895D01*
X30945Y30157D01*
Y30059D01*
X30895Y30010D01*
X30797D01*
X30748Y30059D01*
X31043Y30305D02*
Y30010D01*
X31191D01*
X31240Y30059D01*
Y30108D01*
X31191Y30157D01*
X31043D01*
X31191D01*
X31240Y30207D01*
Y30256D01*
X31191Y30305D01*
X31043D01*
X42815Y38484D02*
X43012Y38189D01*
Y38484D02*
X42815Y38189D01*
X43110D02*
X43209D01*
X43159D01*
Y38484D01*
X43110Y38435D01*
X43553Y38484D02*
X43455Y38435D01*
X43356Y38337D01*
Y38238D01*
X43405Y38189D01*
X43504D01*
X43553Y38238D01*
Y38287D01*
X43504Y38337D01*
X43356D01*
X43651Y38189D02*
Y38386D01*
X43750Y38484D01*
X43848Y38386D01*
Y38189D01*
Y38337D01*
X43651D01*
X37313Y30020D02*
X37510Y29724D01*
Y30020D02*
X37313Y29724D01*
X37608D02*
X37707D01*
X37657D01*
Y30020D01*
X37608Y29970D01*
X38051Y30020D02*
X37953Y29970D01*
X37854Y29872D01*
Y29774D01*
X37903Y29724D01*
X38002D01*
X38051Y29774D01*
Y29823D01*
X38002Y29872D01*
X37854D01*
X38149Y30020D02*
Y29724D01*
X38297D01*
X38346Y29774D01*
Y29823D01*
X38297Y29872D01*
X38149D01*
X38297D01*
X38346Y29921D01*
Y29970D01*
X38297Y30020D01*
X38149D01*
X50059Y31890D02*
Y32087D01*
X50108D01*
X50305Y31890D01*
X50354D01*
Y32087D01*
Y32382D02*
Y32185D01*
X50158Y32382D01*
X50108D01*
X50059Y32333D01*
Y32234D01*
X50108Y32185D01*
X50354Y32480D02*
X50158D01*
X50059Y32579D01*
X50158Y32677D01*
X50354D01*
X50207D01*
Y32480D01*
X30571Y36606D02*
X30768D01*
Y36557D01*
X30571Y36360D01*
Y36311D01*
X30768D01*
X31063D02*
X30866D01*
X31063Y36508D01*
Y36557D01*
X31014Y36606D01*
X30915D01*
X30866Y36557D01*
X31161Y36606D02*
Y36311D01*
X31309D01*
X31358Y36360D01*
Y36409D01*
X31309Y36459D01*
X31161D01*
X31309D01*
X31358Y36508D01*
Y36557D01*
X31309Y36606D01*
X31161D01*
X39134Y34390D02*
X39331D01*
Y34340D01*
X39134Y34144D01*
Y34094D01*
X39331D01*
X39429D02*
X39527D01*
X39478D01*
Y34390D01*
X39429Y34340D01*
X39675Y34094D02*
Y34291D01*
X39773Y34390D01*
X39872Y34291D01*
Y34094D01*
Y34242D01*
X39675D01*
X41191Y34675D02*
X41388D01*
Y34626D01*
X41191Y34429D01*
Y34380D01*
X41388D01*
X41486D02*
X41585D01*
X41535D01*
Y34675D01*
X41486Y34626D01*
X41732Y34675D02*
Y34380D01*
X41880D01*
X41929Y34429D01*
Y34478D01*
X41880Y34528D01*
X41732D01*
X41880D01*
X41929Y34577D01*
Y34626D01*
X41880Y34675D01*
X41732D01*
X37077Y35925D02*
Y35630D01*
X37274D01*
X37520D02*
Y35925D01*
X37372Y35778D01*
X37569D01*
X37667Y35630D02*
Y35827D01*
X37766Y35925D01*
X37864Y35827D01*
Y35630D01*
Y35778D01*
X37667D01*
X43273Y33211D02*
Y32916D01*
X43470D01*
X43716D02*
Y33211D01*
X43568Y33063D01*
X43765D01*
X43863Y33211D02*
Y32916D01*
X44011D01*
X44060Y32965D01*
Y33014D01*
X44011Y33063D01*
X43863D01*
X44011D01*
X44060Y33113D01*
Y33162D01*
X44011Y33211D01*
X43863D01*
X48898Y33124D02*
Y32829D01*
X49094D01*
X49390Y33124D02*
X49193D01*
Y32977D01*
X49291Y33026D01*
X49340D01*
X49390Y32977D01*
Y32878D01*
X49340Y32829D01*
X49242D01*
X49193Y32878D01*
X49488Y32829D02*
Y33026D01*
X49586Y33124D01*
X49685Y33026D01*
Y32829D01*
Y32977D01*
X49488D01*
X31421Y36026D02*
Y35731D01*
X31618D01*
X31913Y36026D02*
X31716D01*
Y35879D01*
X31815Y35928D01*
X31864D01*
X31913Y35879D01*
Y35780D01*
X31864Y35731D01*
X31765D01*
X31716Y35780D01*
X32011Y36026D02*
Y35731D01*
X32159D01*
X32208Y35780D01*
Y35829D01*
X32159Y35879D01*
X32011D01*
X32159D01*
X32208Y35928D01*
Y35977D01*
X32159Y36026D01*
X32011D01*
X40571Y35384D02*
X40522Y35433D01*
X40423D01*
X40374Y35384D01*
Y35187D01*
X40423Y35138D01*
X40522D01*
X40571Y35187D01*
X40866Y35138D02*
X40669D01*
X40866Y35335D01*
Y35384D01*
X40817Y35433D01*
X40718D01*
X40669Y35384D01*
X41161Y35138D02*
X40964D01*
X41161Y35335D01*
Y35384D01*
X41112Y35433D01*
X41014D01*
X40964Y35384D01*
X41260Y35138D02*
Y35335D01*
X41358Y35433D01*
X41456Y35335D01*
Y35138D01*
Y35285D01*
X41260D01*
X39882Y33632D02*
X39833Y33681D01*
X39734D01*
X39685Y33632D01*
Y33435D01*
X39734Y33386D01*
X39833D01*
X39882Y33435D01*
X40177Y33386D02*
X39980D01*
X40177Y33583D01*
Y33632D01*
X40128Y33681D01*
X40029D01*
X39980Y33632D01*
X40472Y33386D02*
X40275D01*
X40472Y33583D01*
Y33632D01*
X40423Y33681D01*
X40325D01*
X40275Y33632D01*
X40571Y33681D02*
Y33386D01*
X40718D01*
X40767Y33435D01*
Y33484D01*
X40718Y33533D01*
X40571D01*
X40718D01*
X40767Y33583D01*
Y33632D01*
X40718Y33681D01*
X40571D01*
M02*
