G04*
G04 #@! TF.GenerationSoftware,Altium Limited,Altium Designer,19.1.9 (167)*
G04*
G04 Layer_Color=16711935*
%FSLAX24Y24*%
%MOIN*%
G70*
G01*
G75*
%ADD72R,0.4252X0.6299*%
%ADD73R,0.6309X0.3829*%
%ADD75R,0.2165X0.0787*%
%ADD76R,1.3701X0.2352*%
%ADD90R,0.0356X0.1734*%
%ADD91R,0.0356X0.1340*%
G04:AMPARAMS|DCode=125|XSize=86.7mil|YSize=86.7mil|CornerRadius=23.7mil|HoleSize=0mil|Usage=FLASHONLY|Rotation=270.000|XOffset=0mil|YOffset=0mil|HoleType=Round|Shape=RoundedRectangle|*
%AMROUNDEDRECTD125*
21,1,0.0867,0.0394,0,0,270.0*
21,1,0.0394,0.0867,0,0,270.0*
1,1,0.0474,-0.0197,-0.0197*
1,1,0.0474,-0.0197,0.0197*
1,1,0.0474,0.0197,0.0197*
1,1,0.0474,0.0197,-0.0197*
%
%ADD125ROUNDEDRECTD125*%
%ADD126C,0.0867*%
%ADD127C,0.2049*%
%ADD156C,0.0492*%
%ADD157C,0.0237*%
G54D72*
X13937Y36220D02*
D03*
G54D73*
X14966Y15497D02*
D03*
G54D75*
X26476Y15945D02*
D03*
G54D76*
X36280Y12889D02*
D03*
G54D90*
X37264Y13189D02*
D03*
X35689D02*
D03*
X31358D02*
D03*
X30571D02*
D03*
X33327D02*
D03*
X32146D02*
D03*
X31752D02*
D03*
X36083D02*
D03*
X34902D02*
D03*
X32539D02*
D03*
X33720D02*
D03*
X30965D02*
D03*
X30177D02*
D03*
X35295D02*
D03*
X36476D02*
D03*
X32933D02*
D03*
X36870D02*
D03*
X40020D02*
D03*
X38051D02*
D03*
X39232D02*
D03*
X38445D02*
D03*
X41201D02*
D03*
X42382D02*
D03*
X40807D02*
D03*
X40413D02*
D03*
X42776D02*
D03*
X37657D02*
D03*
X38839D02*
D03*
X39626D02*
D03*
X41988D02*
D03*
X41594D02*
D03*
G54D91*
X29783Y13386D02*
D03*
G54D125*
X17061Y19795D02*
D03*
G54D126*
Y18794D02*
D03*
X20866Y23642D02*
D03*
X22461Y23632D02*
D03*
X19291Y23622D02*
D03*
X24016D02*
D03*
G54D127*
X14764Y36713D02*
D03*
X14764Y34390D02*
D03*
Y15492D02*
D03*
G54D156*
X48898Y27854D02*
G03*
X48898Y27854I-256J0D01*
G01*
X48898Y18327D02*
G03*
X48898Y18327I-256J0D01*
G01*
G54D157*
X19675Y28337D02*
D03*
X19282D02*
D03*
Y28730D02*
D03*
X19675D02*
D03*
X33366Y33130D02*
D03*
X47736Y35689D02*
D03*
X33366Y33602D02*
D03*
X32894Y33130D02*
D03*
Y33602D02*
D03*
X38494Y32756D02*
D03*
Y33228D02*
D03*
X38967D02*
D03*
X42136Y36063D02*
D03*
X42608D02*
D03*
X42136Y35591D02*
D03*
X42608D02*
D03*
X38967Y32756D02*
D03*
X47736Y35217D02*
D03*
X48209D02*
D03*
Y35689D02*
D03*
M02*
